<svg version="1.1" id="Layer_1" xmlns="http://www.w3.org/2000/svg" xmlns:xlink="http://www.w3.org/1999/xlink" x="0px" y="0px"
	 width="100%" viewBox="0 0 428 324" enable-background="new 0 0 428 324" xml:space="preserve">
<path fill="none" stroke="none" 
	d="
M7.000000,325.000000 
	C5.001142,325.000000 3.002284,325.000000 1.002570,325.000000 
	C1.001713,217.062820 1.001713,109.125633 1.001713,1.000000 
	C143.022583,1.000000 285.045258,1.000000 427.462433,1.463904 
	C427.810974,15.341517 427.765015,28.755228 427.532654,42.009048 
	C426.892914,41.679260 426.439575,41.509361 425.793549,41.079620 
	C424.755066,40.170967 423.909241,39.522148 422.917480,38.574699 
	C417.534729,34.465046 412.297943,30.654018 406.856537,26.558609 
	C400.432678,22.971600 394.213409,19.668974 387.649872,16.191505 
	C382.534943,14.386055 377.764282,12.755445 372.601929,11.063850 
	C366.520782,9.565893 360.831360,8.128922 354.793304,6.493856 
	C347.966919,5.849379 341.489197,5.402995 334.654297,4.826306 
	C330.196869,4.865474 326.096588,5.034945 321.581055,5.145780 
	C317.443268,5.747073 313.720734,6.407005 309.603699,6.912595 
	C304.790344,7.794635 300.371429,8.831017 295.558258,9.852340 
	C290.108551,11.595412 285.053162,13.353544 279.638184,15.121271 
	C276.279236,16.548927 273.253571,17.914270 270.284668,19.393438 
	C247.739975,30.625580 230.047852,47.280975 215.708191,67.845894 
	C211.924042,66.472694 208.453354,65.276482 204.596313,64.040421 
	C198.472290,62.666878 192.734619,61.333187 186.584808,59.962238 
	C181.112061,59.300907 176.051453,58.676830 170.568787,58.003658 
	C164.757721,57.913830 159.368713,57.873096 153.519043,57.815567 
	C147.035370,58.514393 141.012375,59.230019 134.572266,59.933552 
	C127.702614,61.565815 121.250076,63.210167 114.438599,64.884712 
	C111.677742,65.803108 109.275810,66.691315 106.504242,67.666107 
	C102.387589,69.397881 98.640579,71.043076 94.555344,72.791824 
	C91.812950,74.220863 89.408775,75.546341 86.646805,76.914047 
	C83.525658,78.666634 80.762329,80.376999 77.671753,82.169540 
	C40.617035,107.106583 17.923681,141.115646 10.219060,185.388275 
	C9.705943,189.534042 9.311256,193.270370 8.808386,197.379333 
	C8.536293,199.832611 8.372383,201.913239 8.137062,204.452484 
	C8.137961,208.938370 8.210275,212.965622 8.216881,217.411438 
	C8.496428,221.214783 8.841683,224.599579 9.143389,228.399948 
	C10.161493,234.533493 11.223148,240.251434 12.272387,246.344238 
	C14.178343,252.477020 16.096716,258.234955 18.045578,264.362488 
	C20.411505,269.810242 22.746943,274.888367 25.172674,280.303650 
	C26.906563,283.806213 28.550158,286.971619 29.999554,290.413544 
	C20.385895,300.386139 12.463255,311.062500 7.772544,324.104858 
	C7.297254,324.423492 7.112702,324.686554 7.000000,325.000000 
z"/>
<path fill="#12191A" opacity="1.000000" stroke="none" 
	d="
M428.000000,325.000000 
	C394.312439,325.000000 360.624878,325.000000 326.154419,324.727539 
	C323.562897,324.303375 321.754578,324.023834 319.945587,324.019714 
	C301.289368,323.976898 282.633026,323.978638 264.142212,323.681274 
	C278.815247,309.962677 290.228302,294.220428 299.599487,276.727722 
	C302.963684,277.297089 305.930023,277.795410 309.232086,278.500671 
	C317.047211,279.251648 324.526550,279.795715 332.424805,280.478699 
	C340.895020,279.756195 348.946320,278.894836 357.409454,278.069519 
	C366.253784,275.512970 374.686279,272.920380 383.502869,270.290405 
	C385.892303,269.510773 387.949280,268.883240 389.894714,268.007782 
	C403.900208,261.705353 416.272339,252.951248 427.730743,243.190430 
	C427.878448,270.780182 427.939209,297.890076 428.000000,325.000000 
z"/>
<path fill="#F5F5F5" opacity="1.000000" stroke="none" 
	d="
M428.500000,325.000000 
	C427.939209,297.890076 427.878448,270.780182 427.829163,242.759277 
	C427.776428,225.908493 427.712280,209.968674 427.744385,193.567551 
	C427.792542,183.092514 427.744415,173.078781 427.788879,162.617737 
	C427.829346,159.289642 427.777252,156.408859 427.764954,153.027618 
	C427.786133,145.786819 427.767578,139.046463 427.858887,132.049133 
	C427.915802,131.198502 427.862793,130.604843 427.882965,129.577576 
	C427.886536,127.096786 427.816986,125.049622 427.804321,122.536957 
	C427.806061,103.741356 427.750916,85.411240 427.792786,66.616531 
	C427.832916,58.157597 427.775970,50.163265 427.719055,42.168938 
	C427.765015,28.755228 427.810974,15.341517 427.928467,1.463904 
	C428.333344,2.500000 428.957489,3.999836 428.958344,5.500024 
	C429.005249,88.333336 429.000000,171.166672 429.000000,254.000000 
	C429.000000,277.666656 429.000000,301.333344 428.500000,325.000000 
z"/>
<path fill="#262626" opacity="1.000000" stroke="none" 
	d="
M263.976746,323.967926 
	C282.633026,323.978638 301.289368,323.976898 319.945587,324.019714 
	C321.754578,324.023834 323.562897,324.303375 325.685791,324.727539 
	C283.645782,325.000000 241.291550,325.000000 198.497375,324.715454 
	C198.085327,324.242249 198.113220,324.053589 198.593658,323.911865 
	C207.699615,323.954254 216.353027,323.949768 225.474396,323.961548 
	C233.629562,323.964752 241.316757,323.951660 249.469452,323.957336 
	C254.615540,323.973389 259.296143,323.970642 263.976746,323.967926 
z"/>
<path fill="#262626" opacity="1.000000" stroke="none" 
	d="
M160.000000,325.000000 
	C123.312439,325.000000 86.624878,325.000000 49.533329,324.728088 
	C49.184475,324.278229 49.239605,324.100250 49.713818,323.948303 
	C52.758568,323.978882 55.384235,323.983429 58.471825,323.995117 
	C62.955383,323.984100 66.977028,323.965912 71.466782,323.973572 
	C79.621719,323.986420 87.308533,323.973419 95.464096,323.980652 
	C104.290169,323.988251 112.647499,323.975616 121.472733,323.979004 
	C134.404343,323.960449 146.868057,323.925964 159.504242,323.889740 
	C159.676712,323.888031 159.988525,324.035614 159.993652,324.276672 
	C159.998779,324.517761 160.000000,325.000000 160.000000,325.000000 
z"/>
<path fill="#37432D" opacity="1.000000" stroke="none" 
	d="
M49.294739,323.922272 
	C49.239605,324.100250 49.184475,324.278229 49.064671,324.728088 
	C35.312439,325.000000 21.624876,325.000000 7.468657,325.000000 
	C7.112702,324.686554 7.297254,324.423492 8.241719,324.112518 
	C15.616242,323.954926 22.302702,323.895721 29.453857,323.905762 
	C36.232498,323.958191 42.546436,323.941406 48.968781,323.888245 
	C49.077179,323.851868 49.294739,323.922272 49.294739,323.922272 
z"/>
<path fill="#37432D" opacity="1.000000" stroke="none" 
	d="
M160.468658,325.000000 
	C160.000000,325.000000 159.998779,324.517761 160.458954,324.258972 
	C165.273499,323.941437 169.627869,323.882690 174.449432,323.881134 
	C177.394485,323.950775 179.878815,324.083679 182.348801,323.950409 
	C187.375885,323.679138 192.395248,323.264252 197.589600,323.023315 
	C197.941574,323.352417 198.068130,323.594696 198.141098,323.864960 
	C198.113220,324.053589 198.085327,324.242249 198.028717,324.715454 
	C185.645767,325.000000 173.291550,325.000000 160.468658,325.000000 
z"/>
<path fill="#A82216" opacity="1.000000" stroke="none" 
	d="
M12.284803,245.969391 
	C11.223148,240.251434 10.161493,234.533493 9.472335,228.346344 
	C11.090158,226.816025 12.660502,225.970474 13.529696,224.659882 
	C20.875650,213.583481 28.105389,202.429855 35.347523,191.284790 
	C50.203091,168.423264 65.019875,145.536484 79.900002,122.690971 
	C91.419418,105.005157 103.050316,87.391678 114.481316,69.649178 
	C115.239883,68.471779 114.721809,66.471863 114.797539,64.854523 
	C121.250076,63.210167 127.702614,61.565815 134.529846,60.294056 
	C133.853241,62.720352 132.970001,64.882675 131.723923,66.810478 
	C122.200378,81.544174 112.564774,96.205627 103.089958,110.970367 
	C101.992462,112.680595 101.665535,114.885315 100.723579,117.084839 
	C84.536263,128.005051 71.263756,141.377609 63.115894,158.780792 
	C58.015247,169.675369 55.046635,181.568130 50.768944,193.054291 
	C48.996605,194.635818 47.329666,196.013916 46.195633,197.741776 
	C36.544662,212.446304 27.048288,227.252686 17.329895,241.912079 
	C16.193607,243.626083 13.992352,244.634094 12.284803,245.969391 
z"/>
<path fill="#5CC7F9" opacity="1.000000" stroke="none" 
	d="
M309.998199,7.066941 
	C313.720734,6.407005 317.443268,5.747073 321.570068,5.498737 
	C321.169159,7.515208 320.630463,9.339455 319.517731,10.691162 
	C307.751770,24.984148 295.812958,39.135609 284.129059,53.494720 
	C281.709503,56.468273 280.143616,60.136440 277.976868,63.728745 
	C268.475708,70.771210 260.028168,78.397095 253.676926,88.491570 
	C248.867477,98.429771 244.323196,108.209213 239.451950,118.048286 
	C237.380234,119.610123 235.384552,120.903267 233.930862,122.647995 
	C223.457916,135.217651 213.153336,147.927948 202.635056,160.459091 
	C201.021408,162.381516 198.583221,163.611862 196.359344,164.808777 
	C195.751190,158.291687 195.310104,152.128128 195.220276,145.932556 
	C197.348984,144.451492 199.420700,143.247025 200.859085,141.516220 
	C218.337677,120.484161 235.716461,99.369171 253.134644,78.286858 
	C268.968567,59.122070 284.890381,40.029133 300.607025,20.768738 
	C304.095520,16.493679 306.886230,11.649223 309.998199,7.066941 
z"/>
<path fill="#63D6F9" opacity="1.000000" stroke="none" 
	d="
M216.021652,68.022881 
	C230.047852,47.280975 247.739975,30.625580 270.284668,19.393438 
	C273.253571,17.914270 276.279236,16.548927 279.587402,15.464968 
	C279.076294,17.222673 278.427856,18.784773 277.408325,20.047167 
	C271.274719,27.641933 265.070435,35.179829 258.862976,42.714695 
	C241.821838,63.400009 224.832443,84.128693 207.654373,104.699753 
	C204.785553,108.135216 201.074219,110.867126 197.753479,113.517242 
	C198.161209,110.726212 198.567673,108.342079 199.228409,105.690170 
	C204.995667,92.955879 210.508667,80.489380 216.021652,68.022881 
z"/>
<path fill="#5FCDFA" opacity="1.000000" stroke="none" 
	d="
M309.603699,6.912599 
	C306.886230,11.649223 304.095520,16.493679 300.607025,20.768738 
	C284.890381,40.029133 268.968567,59.122070 253.134644,78.286858 
	C235.716461,99.369171 218.337677,120.484161 200.859085,141.516220 
	C199.420700,143.247025 197.348984,144.451492 195.075287,145.555389 
	C194.754944,140.472778 194.930847,135.735306 195.449677,130.946777 
	C197.078934,129.919800 198.589523,129.135880 199.615738,127.937263 
	C207.054688,119.248657 214.441666,110.514450 221.757080,101.721443 
	C232.250488,89.108521 242.665176,76.430138 253.120789,63.785740 
	C263.366486,51.395191 273.725372,39.096207 283.823334,26.586504 
	C288.142212,21.236113 291.925751,15.453575 295.952545,9.867401 
	C300.371429,8.831017 304.790344,7.794635 309.603699,6.912599 
z"/>
<path fill="#61D2FA" opacity="1.000000" stroke="none" 
	d="
M295.558258,9.852341 
	C291.925751,15.453575 288.142212,21.236113 283.823334,26.586504 
	C273.725372,39.096207 263.366486,51.395191 253.120789,63.785740 
	C242.665176,76.430138 232.250488,89.108521 221.757080,101.721443 
	C214.441666,110.514450 207.054688,119.248657 199.615738,127.937263 
	C198.589523,129.135880 197.078934,129.919800 195.377533,130.510864 
	C195.892395,124.725403 196.822311,119.324783 197.752228,113.924149 
	C201.074219,110.867126 204.785553,108.135216 207.654373,104.699753 
	C224.832443,84.128693 241.821838,63.400009 258.862976,42.714695 
	C265.070435,35.179829 271.274719,27.641933 277.408325,20.047167 
	C278.427856,18.784773 279.076294,17.222673 279.946960,15.455374 
	C285.053162,13.353544 290.108551,11.595412 295.558258,9.852341 
z"/>
<path fill="#C2281C" opacity="1.000000" stroke="none" 
	d="
M10.337490,184.978836 
	C17.923681,141.115646 40.617035,107.106583 77.661102,82.537933 
	C74.546623,88.854416 71.394432,95.064812 67.636093,100.883705 
	C51.587372,125.731316 35.430546,150.510178 19.119259,175.185944 
	C16.727493,178.804214 13.290730,181.731720 10.337490,184.978836 
z"/>
<path fill="#B02418" opacity="1.000000" stroke="none" 
	d="
M114.438599,64.884712 
	C114.721809,66.471863 115.239883,68.471779 114.481316,69.649178 
	C103.050316,87.391678 91.419418,105.005157 79.900002,122.690971 
	C65.019875,145.536484 50.203091,168.423264 35.347523,191.284790 
	C28.105389,202.429855 20.875650,213.583481 13.529696,224.659882 
	C12.660502,225.970474 11.090158,226.816025 9.515885,227.930756 
	C8.841683,224.599579 8.496428,221.214783 8.554720,217.395477 
	C11.229685,214.440109 13.879280,212.166382 15.713103,209.359650 
	C31.327997,185.460648 46.742374,161.430756 62.321163,137.508011 
	C76.357674,115.953606 90.545044,94.497475 104.596252,72.952591 
	C105.642311,71.348640 106.127792,69.379105 106.873886,67.579521 
	C109.275810,66.691315 111.677742,65.803108 114.438599,64.884712 
z"/>
<path fill="#B52519" opacity="1.000000" stroke="none" 
	d="
M106.504242,67.666107 
	C106.127792,69.379105 105.642311,71.348640 104.596252,72.952591 
	C90.545044,94.497475 76.357674,115.953606 62.321163,137.508011 
	C46.742374,161.430756 31.327997,185.460648 15.713103,209.359650 
	C13.879280,212.166382 11.229685,214.440109 8.620428,216.976913 
	C8.210275,212.965622 8.137961,208.938370 8.488344,204.442368 
	C11.030420,202.029816 13.631369,200.408585 15.186668,198.086884 
	C22.307030,187.457870 29.075874,176.594315 36.078484,165.885284 
	C54.998737,136.950653 74.002083,108.070259 92.859024,79.094521 
	C94.037041,77.284386 94.238037,74.838417 94.893585,72.688263 
	C98.640579,71.043076 102.387589,69.397881 106.504242,67.666107 
z"/>
<path fill="#56BCF8" opacity="1.000000" stroke="none" 
	d="
M335.011414,4.956604 
	C341.489197,5.402995 347.966919,5.849379 354.644897,6.825219 
	C349.088654,14.544380 343.263855,21.680775 337.596924,28.940428 
	C332.965576,34.873516 328.522614,40.953709 323.626801,47.125175 
	C315.604950,48.899025 307.952362,50.516369 300.041229,51.945278 
	C300.083557,50.770760 300.121460,49.570080 300.724762,48.830734 
	C310.025452,37.432537 319.473083,26.153507 328.707001,14.702021 
	C331.122314,11.706614 332.926544,8.218453 335.011414,4.956604 
z"/>
<path fill="#9C1F14" opacity="1.000000" stroke="none" 
	d="
M100.981354,116.860786 
	C101.665535,114.885315 101.992462,112.680595 103.089958,110.970367 
	C112.564774,96.205627 122.200378,81.544174 131.723923,66.810478 
	C132.970001,64.882675 133.853241,62.720352 134.946960,60.306149 
	C141.012375,59.230019 147.035370,58.514393 153.482483,58.179096 
	C148.051849,67.722862 142.124985,76.841309 136.367340,86.065384 
	C132.458725,92.327240 128.787521,98.737282 124.713593,105.269119 
	C116.605156,109.258385 108.793259,113.059586 100.981354,116.860786 
z"/>
<path fill="#9C1F14" opacity="1.000000" stroke="none" 
	d="
M12.272387,246.344238 
	C13.992352,244.634094 16.193607,243.626083 17.329895,241.912079 
	C27.048288,227.252686 36.544662,212.446304 46.195633,197.741776 
	C47.329666,196.013916 48.996605,194.635818 50.787575,193.501526 
	C50.834164,202.929016 50.509670,211.950562 49.829769,221.020203 
	C48.616501,221.775284 47.525452,222.327026 46.935951,223.212631 
	C38.800156,235.434952 30.784548,247.737640 22.588930,259.919342 
	C21.484999,261.560211 19.559925,262.648621 18.015089,263.992859 
	C16.096716,258.234955 14.178343,252.477020 12.272387,246.344238 
z"/>
<path fill="#479DF7" opacity="1.000000" stroke="none" 
	d="
M387.994171,16.366348 
	C394.213409,19.668974 400.432678,22.971600 406.799927,26.915157 
	C402.424622,33.411716 397.877472,39.249107 393.385254,45.128494 
	C389.513275,50.196194 385.703918,55.311756 381.524963,60.278114 
	C374.761993,57.193855 368.340942,54.237640 362.064270,50.960716 
	C369.457428,41.925854 376.816589,33.299679 383.880005,24.437788 
	C385.724121,22.124098 386.647766,19.076746 387.994171,16.366348 
z"/>
<path fill="#51B2F7" opacity="1.000000" stroke="none" 
	d="
M323.996094,46.968662 
	C328.522614,40.953709 332.965576,34.873516 337.596924,28.940428 
	C343.263855,21.680775 349.088654,14.544380 354.993530,7.023313 
	C360.831360,8.128922 366.520782,9.565893 372.548859,11.401300 
	C366.715240,19.576338 360.435394,27.270889 354.415680,35.163834 
	C351.365631,39.162949 348.785248,43.520248 345.579498,47.756855 
	C338.109680,47.521622 331.052887,47.245140 323.996094,46.968662 
z"/>
<path fill="#4190F6" opacity="1.000000" stroke="none" 
	d="
M381.866882,60.406151 
	C385.703918,55.311756 389.513275,50.196194 393.385254,45.128494 
	C397.877472,39.249107 402.424622,33.411716 407.004517,27.199541 
	C412.297943,30.654018 417.534729,34.465046 422.758606,38.881107 
	C421.215302,41.439941 419.715393,43.418606 418.149200,45.343296 
	C411.053497,54.063049 403.939056,62.767574 396.520111,71.317505 
	C391.428192,67.573662 386.647522,63.989906 381.866882,60.406151 
z"/>
<path fill="#901C12" opacity="1.000000" stroke="none" 
	d="
M125.010139,105.081055 
	C128.787521,98.737282 132.458725,92.327240 136.367340,86.065384 
	C142.124985,76.841309 148.051849,67.722862 153.943176,58.195892 
	C159.368713,57.873096 164.757721,57.913830 170.561584,58.371483 
	C166.687714,65.977013 162.428482,73.183434 158.101654,80.349030 
	C154.110077,86.959396 150.045929,93.525955 145.636841,100.201645 
	C138.509995,101.888016 131.760071,103.484535 125.010139,105.081055 
z"/>
<path fill="#901C12" opacity="1.000000" stroke="none" 
	d="
M18.045578,264.362488 
	C19.559925,262.648621 21.484999,261.560211 22.588930,259.919342 
	C30.784548,247.737640 38.800156,235.434952 46.935951,223.212631 
	C47.525452,222.327026 48.616501,221.775284 50.042847,221.344360 
	C51.763672,228.076157 52.916012,234.531876 53.763977,241.142975 
	C52.411720,242.561890 51.236557,243.741257 50.336201,245.102417 
	C43.477787,255.470749 36.741707,265.920990 29.779163,276.218414 
	C28.708248,277.802216 26.672113,278.733459 25.082378,279.966492 
	C22.746943,274.888367 20.411505,269.810242 18.045578,264.362488 
z"/>
<path fill="#78160D" opacity="1.000000" stroke="none" 
	d="
M186.996948,59.999493 
	C192.734619,61.333187 198.472290,62.666878 204.551086,64.386673 
	C199.871567,72.756538 194.771500,80.691895 189.863525,88.744324 
	C187.383499,92.813240 185.250992,97.093971 182.517303,101.225937 
	C176.041046,100.641685 170.008835,100.110420 163.996124,99.230545 
	C168.901382,90.898232 173.856857,82.956070 178.646988,74.915390 
	C181.562149,70.021973 184.222260,64.976608 186.996948,59.999493 
z"/>
<path fill="#4DA8F7" opacity="1.000000" stroke="none" 
	d="
M345.992523,47.715607 
	C348.785248,43.520248 351.365631,39.162949 354.415680,35.163834 
	C360.435394,27.270889 366.715240,19.576338 372.940582,11.462286 
	C377.764282,12.755445 382.534943,14.386055 387.649872,16.191507 
	C386.647766,19.076746 385.724121,22.124098 383.880005,24.437788 
	C376.816589,33.299679 369.457428,41.925854 361.663513,50.927212 
	C356.076416,50.048149 351.034485,48.881878 345.992523,47.715607 
z"/>
<path fill="#84190F" opacity="1.000000" stroke="none" 
	d="
M25.172672,280.303650 
	C26.672113,278.733459 28.708248,277.802216 29.779163,276.218414 
	C36.741707,265.920990 43.477787,255.470749 50.336201,245.102417 
	C51.236557,243.741257 52.411720,242.561890 53.999577,241.411789 
	C56.362232,246.681915 58.184921,251.838577 59.711201,257.163086 
	C57.884171,259.660522 56.381519,262.009094 54.818111,264.316498 
	C47.893261,274.536987 40.950954,284.745636 33.765240,294.768494 
	C32.408257,293.097992 31.301003,291.617523 30.193750,290.137054 
	C28.550158,286.971619 26.906563,283.806213 25.172672,280.303650 
z"/>
<path fill="#84190F" opacity="1.000000" stroke="none" 
	d="
M186.584808,59.962238 
	C184.222260,64.976608 181.562149,70.021973 178.646988,74.915390 
	C173.856857,82.956070 168.901382,90.898232 163.535355,99.317009 
	C157.374634,99.871994 151.694199,99.991898 146.013748,100.111809 
	C150.045929,93.525955 154.110077,86.959396 158.101654,80.349030 
	C162.428482,73.183434 166.687714,65.977013 170.983643,58.420578 
	C176.051453,58.676830 181.112061,59.300907 186.584808,59.962238 
z"/>
<path fill="#5AC4F8" opacity="1.000000" stroke="none" 
	d="
M334.654297,4.826299 
	C332.926544,8.218453 331.122314,11.706614 328.707001,14.702021 
	C319.473083,26.153507 310.025452,37.432537 300.724762,48.830734 
	C300.121460,49.570080 300.083557,50.770760 299.773804,52.198799 
	C292.571411,56.255325 285.377869,59.869900 278.184296,63.484474 
	C280.143616,60.136440 281.709503,56.468273 284.129059,53.494720 
	C295.812958,39.135609 307.751770,24.984148 319.517731,10.691162 
	C320.630463,9.339455 321.169159,7.515208 321.985352,5.557375 
	C326.096588,5.034945 330.196869,4.865474 334.654297,4.826299 
z"/>
<path fill="#BA271A" opacity="1.000000" stroke="none" 
	d="
M94.555351,72.791824 
	C94.238037,74.838417 94.037041,77.284386 92.859024,79.094521 
	C74.002083,108.070259 54.998737,136.950653 36.078484,165.885284 
	C29.075874,176.594315 22.307030,187.457870 15.186668,198.086884 
	C13.631369,200.408585 11.030420,202.029816 8.559756,203.983749 
	C8.372383,201.913239 8.536293,199.832611 9.148796,197.316345 
	C11.202106,195.024658 13.034961,193.318985 14.373854,191.287704 
	C22.042204,179.653824 29.562307,167.922348 37.190826,156.262039 
	C50.714832,135.590393 64.388214,115.015320 77.756325,94.243607 
	C81.294411,88.746048 83.945976,82.677948 87.004608,76.871819 
	C89.408775,75.546341 91.812950,74.220863 94.555351,72.791824 
z"/>
<path fill="#BE271B" opacity="1.000000" stroke="none" 
	d="
M86.646805,76.914047 
	C83.945976,82.677948 81.294411,88.746048 77.756325,94.243607 
	C64.388214,115.015320 50.714832,135.590393 37.190826,156.262039 
	C29.562307,167.922348 22.042204,179.653824 14.373854,191.287704 
	C13.034961,193.318985 11.202106,195.024658 9.256979,196.943710 
	C9.311256,193.270370 9.705943,189.534042 10.219060,185.388275 
	C13.290730,181.731720 16.727493,178.804214 19.119259,175.185944 
	C35.430546,150.510178 51.587372,125.731316 67.636093,100.883705 
	C71.394432,95.064812 74.546623,88.854416 77.988350,82.455750 
	C80.762329,80.376999 83.525658,78.666634 86.646805,76.914047 
z"/>
<path fill="#3B85F6" opacity="1.000000" stroke="none" 
	d="
M396.831390,71.477585 
	C403.939056,62.767574 411.053497,54.063049 418.149200,45.343296 
	C419.715393,43.418606 421.215302,41.439941 422.904572,39.179741 
	C423.909241,39.522148 424.755066,40.170967 425.794861,41.523674 
	C425.994995,49.812141 426.001160,57.396717 425.648590,64.999268 
	C424.269012,65.736954 423.085846,66.305878 422.254028,67.201202 
	C417.356903,72.472115 412.541595,77.819061 407.422180,82.965408 
	C403.707520,79.019478 400.269470,75.248535 396.831390,71.477585 
z"/>
<path fill="#A3F657" opacity="1.000000" stroke="none" 
	d="
M29.999554,290.413544 
	C31.301003,291.617523 32.408257,293.097992 33.840431,295.099030 
	C35.800739,298.022614 37.436119,300.425598 39.012627,303.193054 
	C38.192657,305.017853 37.397240,306.461487 36.676632,307.941589 
	C34.100422,313.233215 31.549585,318.537201 28.989155,323.836517 
	C22.302702,323.895721 15.616242,323.954926 8.460608,324.006470 
	C12.463255,311.062500 20.385895,300.386139 29.999554,290.413544 
z"/>
<path fill="#6D140D" opacity="1.000000" stroke="none" 
	d="
M182.961365,101.278931 
	C185.250992,97.093971 187.383499,92.813240 189.863525,88.744324 
	C194.771500,80.691895 199.871567,72.756538 204.937454,64.426529 
	C208.453354,65.276482 211.924042,66.472694 215.708191,67.845894 
	C210.508667,80.489380 204.995667,92.955879 198.852783,105.644142 
	C193.135712,104.336914 188.048538,102.807922 182.961365,101.278931 
z"/>
<path fill="#4883E1" opacity="1.000000" stroke="none" 
	d="
M426.007324,64.981293 
	C426.001160,57.396717 425.994995,49.812141 425.987549,41.783512 
	C426.439575,41.509361 426.892914,41.679260 427.532654,42.009048 
	C427.775970,50.163265 427.832916,58.157597 427.511353,66.607468 
	C426.758087,67.041603 426.383331,67.020187 426.011169,66.662674 
	C426.011597,65.878136 426.009460,65.429718 426.007324,64.981293 
z"/>
<path fill="#2252F3" opacity="1.000000" stroke="none" 
	d="
M427.696320,163.065063 
	C427.744415,173.078781 427.792542,183.092514 427.496460,193.612885 
	C426.768280,194.414871 426.384338,194.710175 425.658264,195.050964 
	C419.609985,201.281265 413.657410,207.258850 408.245758,213.691452 
	C394.361755,230.194794 380.634369,246.832260 367.033234,263.569611 
	C363.343109,268.110626 360.324463,273.197235 356.997620,278.033447 
	C348.946320,278.894836 340.895020,279.756195 332.440613,280.159821 
	C332.816772,278.260284 333.385284,276.644775 334.408386,275.404083 
	C343.137939,264.818115 352.066467,254.394058 360.675964,243.712402 
	C363.811157,239.822617 366.245209,235.367676 369.301208,230.982971 
	C385.251617,223.887833 398.460022,213.887604 408.816010,200.171555 
	C417.259979,188.987854 422.616547,176.409668 426.392151,162.978592 
	C427.000427,163.023682 427.348389,163.044373 427.696320,163.065063 
z"/>
<path fill="#0B0101" opacity="1.000000" stroke="none" 
	d="
M264.142212,323.681274 
	C259.296143,323.970642 254.615540,323.973389 249.478256,323.594543 
	C250.483429,320.463470 251.757553,317.592957 253.438217,314.984375 
	C262.932983,300.247253 272.492340,285.551422 282.094025,270.883636 
	C290.890747,257.445526 299.725891,244.031876 308.671143,230.692627 
	C309.685425,229.180115 311.521301,228.218536 312.982422,227.418488 
	C312.656708,230.554016 312.324768,233.272522 311.764465,236.284027 
	C307.424622,249.936905 303.313141,263.296783 299.201630,276.656677 
	C290.228302,294.220428 278.815247,309.962677 264.142212,323.681274 
z"/>
<path fill="#1D49F4" opacity="1.000000" stroke="none" 
	d="
M357.409454,278.069519 
	C360.324463,273.197235 363.343109,268.110626 367.033234,263.569611 
	C380.634369,246.832260 394.361755,230.194794 408.245758,213.691452 
	C413.657410,207.258850 419.609985,201.281265 425.659515,195.518951 
	C426.002716,197.934036 425.916748,199.930923 426.017365,201.918350 
	C426.445557,210.375412 425.778748,217.740311 418.965088,224.726181 
	C407.804199,236.169083 398.155579,249.100327 388.062439,261.560394 
	C385.980164,264.130951 384.744598,267.387421 383.118774,270.327759 
	C374.686279,272.920380 366.253784,275.512970 357.409454,278.069519 
z"/>
<path fill="#285EF5" opacity="1.000000" stroke="none" 
	d="
M368.999115,231.170593 
	C366.245209,235.367676 363.811157,239.822617 360.675964,243.712402 
	C352.066467,254.394058 343.137939,264.818115 334.408386,275.404083 
	C333.385284,276.644775 332.816772,278.260284 332.021729,280.020935 
	C324.526550,279.795715 317.047211,279.251648 309.264160,278.115662 
	C309.482971,276.346405 309.773163,274.976868 310.563660,274.021149 
	C319.087524,263.715851 327.739288,253.515900 336.208252,243.166214 
	C337.247284,241.896423 337.423492,239.920593 338.417664,238.176605 
	C348.890259,235.777695 358.944672,233.474136 368.999115,231.170593 
z"/>
<path fill="#183FF3" opacity="1.000000" stroke="none" 
	d="
M383.502869,270.290405 
	C384.744598,267.387421 385.980164,264.130951 388.062439,261.560394 
	C398.155579,249.100327 407.804199,236.169083 418.965088,224.726181 
	C425.778748,217.740311 426.445557,210.375412 426.017365,201.918350 
	C425.916748,199.930923 426.002716,197.934036 426.001617,195.473495 
	C426.384338,194.710175 426.768280,194.414871 427.400177,194.074219 
	C427.712280,209.968674 427.776428,225.908493 427.742188,242.279449 
	C416.272339,252.951248 403.900208,261.705353 389.894714,268.007782 
	C387.949280,268.883240 385.892303,269.510773 383.502869,270.290405 
z"/>
<path fill="#2D68F3" opacity="1.000000" stroke="none" 
	d="
M337.999542,238.271957 
	C337.423492,239.920593 337.247284,241.896423 336.208252,243.166214 
	C327.739288,253.515900 319.087524,263.715851 310.563660,274.021149 
	C309.773163,274.976868 309.482971,276.346405 308.928406,277.908752 
	C305.930023,277.795410 302.963684,277.297089 299.599487,276.727722 
	C303.313141,263.296783 307.424622,249.936905 312.170715,236.353668 
	C321.203400,236.844208 329.601471,237.558090 337.999542,238.271957 
z"/>
<path fill="#11181A" opacity="1.000000" stroke="none" 
	d="
M338.417664,238.176605 
	C329.601471,237.558090 321.203400,236.844208 312.399078,236.060684 
	C312.324768,233.272522 312.656708,230.554016 312.992920,226.984940 
	C313.331879,221.358353 313.972137,216.579514 313.928589,211.806931 
	C313.865234,204.870026 313.308777,197.937637 312.912445,190.604797 
	C311.247284,183.462265 309.632263,176.718262 308.011169,169.574585 
	C306.003723,163.449326 304.002411,157.723709 301.953308,151.636963 
	C298.284180,144.499252 294.662842,137.722687 290.983521,130.599121 
	C286.972076,124.826981 283.018585,119.401848 278.996307,113.639954 
	C274.653320,108.853081 270.379120,104.402969 265.934570,99.663849 
	C261.823486,95.694160 257.882782,92.013489 253.942078,88.332809 
	C260.028168,78.397095 268.475708,70.771210 277.976868,63.728745 
	C285.377869,59.869900 292.571411,56.255325 300.032410,52.387230 
	C307.952362,50.516369 315.604950,48.899025 323.626801,47.125168 
	C331.052887,47.245140 338.109680,47.521622 345.579498,47.756851 
	C351.034485,48.881878 356.076416,50.048149 361.519104,51.247925 
	C368.340942,54.237640 374.761993,57.193855 381.524963,60.278111 
	C386.647522,63.989906 391.428192,67.573662 396.520111,71.317505 
	C400.269470,75.248535 403.707520,79.019478 407.558258,83.283829 
	C411.071381,88.515083 414.171814,93.252930 417.355194,98.326950 
	C420.615265,107.762306 423.792389,116.861504 426.929138,126.376228 
	C427.026001,127.887764 427.163300,128.983765 427.249725,130.325684 
	C427.382263,131.149765 427.565643,131.727936 427.749023,132.306122 
	C427.767578,139.046463 427.786133,145.786819 427.566101,153.278976 
	C426.928955,157.005264 426.530396,159.979721 426.131836,162.954193 
	C422.616547,176.409668 417.259979,188.987854 408.816010,200.171555 
	C398.460022,213.887604 385.251617,223.887833 369.301208,230.982956 
	C358.944672,233.474136 348.890259,235.777695 338.417664,238.176605 
z"/>
<path fill="#2D68F3" opacity="1.000000" stroke="none" 
	d="
M426.969543,125.960693 
	C423.792389,116.861504 420.615265,107.762306 417.705994,98.314651 
	C422.598389,95.451988 426.183014,92.313919 426.037994,86.374077 
	C425.880371,79.919258 426.006287,73.457504 426.008545,66.998779 
	C426.383331,67.020187 426.758087,67.041603 427.414307,67.072067 
	C427.750916,85.411240 427.806061,103.741356 427.605499,122.782677 
	C427.223022,124.316154 427.096283,125.138428 426.969543,125.960693 
z"/>
<path fill="#3A61DF" opacity="1.000000" stroke="none" 
	d="
M426.392151,162.978592 
	C426.530396,159.979721 426.928955,157.005264 427.526306,153.779434 
	C427.777252,156.408859 427.829346,159.289642 427.788879,162.617752 
	C427.348389,163.044373 427.000427,163.023682 426.392151,162.978592 
z"/>
<path fill="#4883E1" opacity="1.000000" stroke="none" 
	d="
M426.929138,126.376228 
	C427.096283,125.138428 427.223022,124.316154 427.548584,123.248169 
	C427.816986,125.049622 427.886536,127.096786 427.755188,129.591354 
	C427.554260,130.038757 427.300568,130.079758 427.300568,130.079758 
	C427.163300,128.983765 427.026001,127.887764 426.929138,126.376228 
z"/>
<path fill="#3A61DF" opacity="1.000000" stroke="none" 
	d="
M427.249725,130.325684 
	C427.300568,130.079758 427.554260,130.038757 427.682037,130.024979 
	C427.862793,130.604843 427.915802,131.198502 427.858917,132.049133 
	C427.565643,131.727936 427.382263,131.149765 427.249725,130.325684 
z"/>
<path fill="#110100" opacity="1.000000" stroke="none" 
	d="
M312.962585,191.003311 
	C313.308777,197.937637 313.865234,204.870026 313.928589,211.806931 
	C313.972137,216.579514 313.331879,221.358353 312.986694,226.567932 
	C311.521301,228.218536 309.685425,229.180115 308.671143,230.692627 
	C299.725891,244.031876 290.890747,257.445526 282.094025,270.883636 
	C272.492340,285.551422 262.932983,300.247253 253.438217,314.984375 
	C251.757553,317.592957 250.483429,320.463470 249.012772,323.575806 
	C241.316757,323.951660 233.629562,323.964752 225.482086,323.599670 
	C225.638504,321.890381 226.110733,320.466766 226.894516,319.242615 
	C233.877228,308.336609 240.882309,297.444611 247.942734,286.588745 
	C267.058289,257.197266 286.149872,227.789795 305.423035,198.501892 
	C307.330261,195.603622 310.421112,193.484207 312.962585,191.003311 
z"/>
<path fill="#180202" opacity="1.000000" stroke="none" 
	d="
M312.912445,190.604797 
	C310.421112,193.484207 307.330261,195.603622 305.423035,198.501892 
	C286.149872,227.789795 267.058289,257.197266 247.942734,286.588745 
	C240.882309,297.444611 233.877228,308.336609 226.894516,319.242615 
	C226.110733,320.466766 225.638504,321.890381 225.014114,323.583374 
	C216.353027,323.949768 207.699615,323.954254 198.593658,323.911865 
	C198.068130,323.594696 197.941574,323.352417 197.428787,322.687683 
	C196.217819,320.205872 195.339493,318.174438 194.846191,316.009216 
	C215.371719,308.958160 232.803482,297.860626 246.097656,281.141815 
	C251.234634,274.681580 254.784195,266.959045 259.394196,259.774292 
	C266.060883,250.460358 268.627563,239.919998 270.238647,228.683228 
	C270.761353,226.240738 271.100769,224.112152 271.821655,221.960602 
	C273.733276,220.550003 275.631531,219.406021 276.736298,217.736877 
	C287.240173,201.866867 297.609375,185.907761 308.017273,169.974274 
	C309.632263,176.718262 311.247284,183.462265 312.912445,190.604797 
z"/>
<path fill="#641009" opacity="1.000000" stroke="none" 
	d="
M70.998672,323.947723 
	C66.977028,323.965912 62.955383,323.984100 58.326019,323.713226 
	C56.460594,322.000793 55.202888,320.577423 54.003704,318.791931 
	C59.635132,309.882507 65.136879,301.287506 70.818481,292.813049 
	C72.884331,289.731720 75.379173,286.938019 77.880318,284.292206 
	C80.388893,286.712616 82.695442,288.853882 85.142380,291.296570 
	C86.511299,292.550598 87.739830,293.503235 89.011024,294.596802 
	C89.053688,294.737762 89.125671,295.023346 88.936371,295.308502 
	C87.162926,297.898438 85.478790,300.141632 84.013412,302.519592 
	C79.629234,309.634003 75.330666,316.801147 70.998672,323.947723 
z"/>
<path fill="#580D07" opacity="1.000000" stroke="none" 
	d="
M71.466789,323.973572 
	C75.330666,316.801147 79.629234,309.634003 84.013412,302.519592 
	C85.478790,300.141632 87.162926,297.898438 89.218689,295.464600 
	C94.857010,299.202118 100.023712,303.068665 104.908447,307.133850 
	C101.416107,312.875122 98.205727,318.417755 94.995346,323.960388 
	C87.308533,323.973419 79.621719,323.986420 71.466789,323.973572 
z"/>
<path fill="#5FB856" opacity="1.000000" stroke="none" 
	d="
M173.982239,323.823944 
	C169.627869,323.882690 165.273499,323.941437 160.453827,324.017914 
	C159.988525,324.035614 159.676712,323.888031 159.392944,323.598999 
	C158.452103,322.525818 157.795044,321.741669 157.028534,320.694641 
	C156.610962,319.954987 156.302841,319.478241 156.339630,318.947510 
	C158.385498,316.741547 160.320923,314.733215 161.743988,312.410919 
	C166.238113,305.077026 170.540329,297.625519 175.214645,290.352081 
	C178.681931,294.302307 181.851379,298.119995 184.966461,302.290405 
	C184.534195,303.359039 184.150040,304.071655 183.779419,304.791229 
	C180.512329,311.134766 177.247635,317.479553 173.982239,323.823944 
z"/>
<path fill="#470A07" opacity="1.000000" stroke="none" 
	d="
M95.464096,323.980652 
	C98.205727,318.417755 101.416107,312.875122 105.259605,307.153320 
	C111.925667,309.660706 117.958611,312.347260 123.992241,315.415985 
	C122.996895,318.519745 122.000854,321.241394 121.004822,323.963013 
	C112.647499,323.975616 104.290169,323.988251 95.464096,323.980652 
z"/>
<path fill="#3E0603" opacity="1.000000" stroke="none" 
	d="
M121.472733,323.979004 
	C122.000854,321.241394 122.996895,318.519745 124.370949,315.458344 
	C135.282227,318.524231 145.931686,321.285309 157.138000,320.957520 
	C157.795044,321.741669 158.452103,322.525818 159.220459,323.600708 
	C146.868057,323.925964 134.404343,323.960449 121.472733,323.979004 
z"/>
<path fill="#131A19" opacity="1.000000" stroke="none" 
	d="
M53.945183,319.154053 
	C55.202888,320.577423 56.460594,322.000793 57.864105,323.706055 
	C55.384235,323.983429 52.758568,323.978882 49.713818,323.948303 
	C49.294739,323.922272 49.077179,323.851868 49.109077,323.571533 
	C50.254848,321.789459 51.368725,320.287720 52.717827,318.874084 
	C53.283768,319.026154 53.614475,319.090088 53.945183,319.154053 
z"/>
<path fill="#9BEE56" opacity="1.000000" stroke="none" 
	d="
M52.482597,318.785980 
	C51.368725,320.287720 50.254848,321.789459 49.000675,323.607910 
	C42.546436,323.941406 36.232498,323.958191 29.453854,323.905762 
	C31.549585,318.537201 34.100422,313.233215 36.676632,307.941589 
	C37.397240,306.461487 38.192657,305.017853 39.293579,303.343231 
	C40.837799,304.548248 42.042194,305.967499 43.410919,307.692627 
	C46.544365,311.594330 49.513481,315.190155 52.482597,318.785980 
z"/>
<path fill="#58B156" opacity="1.000000" stroke="none" 
	d="
M174.449432,323.881134 
	C177.247635,317.479553 180.512329,311.134766 183.779419,304.791229 
	C184.150040,304.071655 184.534195,303.359039 185.252167,302.470367 
	C188.548538,306.912720 191.504852,311.527863 194.461166,316.143036 
	C195.339493,318.174438 196.217819,320.205872 197.256958,322.572906 
	C192.395248,323.264252 187.375885,323.679138 182.348801,323.950409 
	C179.878815,324.083679 177.394485,323.950775 174.449432,323.881134 
z"/>
<path fill="#111819" opacity="1.000000" stroke="none" 
	d="
M194.846191,316.009216 
	C191.504852,311.527863 188.548538,306.912720 185.306534,302.117615 
	C181.851379,298.119995 178.681931,294.302307 175.040115,290.062500 
	C170.925354,286.678040 167.282974,283.715759 163.429169,280.460327 
	C158.516357,277.351837 153.814957,274.536499 148.869492,271.480347 
	C143.794357,269.331757 138.963287,267.423981 133.822296,265.342163 
	C129.744583,264.243713 125.976791,263.319305 121.844467,262.269196 
	C115.317619,261.638763 109.155304,261.134003 102.573715,260.509827 
	C89.719139,260.471313 77.685562,262.720886 65.780930,266.853394 
	C63.681961,263.416412 61.844788,260.205811 60.007614,256.995239 
	C58.184921,251.838577 56.362232,246.681915 54.303947,241.256439 
	C52.916012,234.531876 51.763672,228.076157 50.398258,221.296265 
	C50.509670,211.950562 50.834164,202.929016 51.140018,193.460236 
	C55.046635,181.568130 58.015247,169.675369 63.115894,158.780792 
	C71.263756,141.377609 84.536263,128.005051 100.723587,117.084839 
	C108.793259,113.059586 116.605156,109.258385 124.713593,105.269119 
	C131.760071,103.484535 138.509995,101.888016 145.636841,100.201645 
	C151.694199,99.991898 157.374634,99.871994 163.515869,99.665619 
	C170.008835,100.110420 176.041046,100.641685 182.517303,101.225937 
	C188.048538,102.807922 193.135712,104.336914 198.598511,105.911926 
	C198.567673,108.342079 198.161209,110.726212 197.753479,113.517250 
	C196.822311,119.324783 195.892395,124.725403 195.034607,130.561920 
	C194.930847,135.735306 194.754944,140.472778 194.724030,145.587418 
	C195.310104,152.128128 195.751190,158.291687 196.376266,165.235916 
	C198.405563,173.009064 200.250900,180.001526 202.078842,187.367615 
	C204.760956,193.824829 207.460464,199.908417 210.205917,206.334915 
	C213.389908,211.689362 216.527954,216.700928 219.781708,222.009338 
	C223.200134,226.336258 226.502838,230.366302 229.917480,234.700195 
	C232.733337,237.657028 235.437241,240.310028 238.285187,243.257477 
	C241.504059,246.079727 244.578903,248.607529 247.847458,251.421051 
	C251.713104,254.408386 255.385040,257.110016 259.056976,259.811615 
	C254.784195,266.959045 251.234634,274.681580 246.097656,281.141815 
	C232.803482,297.860626 215.371719,308.958160 194.846191,316.009216 
z"/>
<path fill="#57BDF8" opacity="1.000000" stroke="none" 
	d="
M202.096222,186.993988 
	C200.250900,180.001526 198.405563,173.009064 196.543304,165.589447 
	C198.583221,163.611862 201.021408,162.381516 202.635056,160.459091 
	C213.153336,147.927948 223.457916,135.217651 233.930862,122.647995 
	C235.384552,120.903267 237.380234,119.610123 239.463837,118.436142 
	C239.151108,122.431870 238.499542,126.099380 237.636719,130.137695 
	C237.221420,136.669876 237.017380,142.831238 236.483978,149.051117 
	C234.647202,150.365997 232.904938,151.427170 231.671539,152.911255 
	C225.041489,160.888718 218.643372,169.060532 211.943024,176.977234 
	C208.926666,180.541199 205.394394,183.668518 202.096222,186.993988 
z"/>
<path fill="#470A07" opacity="1.000000" stroke="none" 
	d="
M237.847977,129.766891 
	C238.499542,126.099380 239.151108,122.431870 239.790802,118.376511 
	C244.323196,108.209213 248.867477,98.429771 253.676926,88.491570 
	C257.882782,92.013489 261.823486,95.694160 265.625244,99.832016 
	C259.818939,108.869392 254.222824,117.498016 248.444107,126.002571 
	C246.516922,128.838837 244.122299,131.357452 241.656403,133.862610 
	C240.196960,132.391571 239.022476,131.079239 237.847977,129.766891 
z"/>
<path fill="#79160D" opacity="1.000000" stroke="none" 
	d="
M59.711205,257.163086 
	C61.844788,260.205811 63.681961,263.416412 65.831589,267.171875 
	C66.748856,268.851868 67.353668,269.987030 67.915962,271.461426 
	C62.721630,279.849945 57.708706,287.992981 52.360123,295.909271 
	C49.633282,299.945190 46.303711,303.573944 43.246582,307.386749 
	C42.042194,305.967499 40.837799,304.548248 39.352448,302.978821 
	C37.436119,300.425598 35.800739,298.022614 34.090164,295.289062 
	C40.950954,284.745636 47.893261,274.536987 54.818111,264.316498 
	C56.381519,262.009094 57.884171,259.660522 59.711205,257.163086 
z"/>
<path fill="#367BF6" opacity="1.000000" stroke="none" 
	d="
M426.011169,66.662674 
	C426.006287,73.457504 425.880371,79.919258 426.037994,86.374077 
	C426.183014,92.313919 422.598389,95.451988 417.623047,97.978485 
	C414.171814,93.252930 411.071381,88.515083 407.834839,83.458817 
	C412.541595,77.819061 417.356903,72.472115 422.254028,67.201202 
	C423.085846,66.305878 424.269012,65.736954 425.648590,64.999268 
	C426.009460,65.429718 426.011597,65.878136 426.011169,66.662674 
z"/>
<path fill="#270301" opacity="1.000000" stroke="none" 
	d="
M291.041473,130.946136 
	C294.662842,137.722687 298.284180,144.499252 301.793823,151.933670 
	C300.205444,154.586609 298.623138,156.512817 297.269714,158.588272 
	C289.945801,169.819275 282.731201,181.122101 275.329651,192.301331 
	C274.325928,193.817352 272.483093,194.777802 271.013733,195.581818 
	C268.991608,186.799545 266.984589,178.430939 265.134216,169.760483 
	C266.549103,167.917603 267.957977,166.475159 269.041229,164.819641 
	C276.412964,153.553558 283.716156,142.242615 291.041473,130.946136 
z"/>
<path fill="#320402" opacity="1.000000" stroke="none" 
	d="
M290.983521,130.599121 
	C283.716156,142.242615 276.412964,153.553558 269.041229,164.819641 
	C267.957977,166.475159 266.549103,167.917603 264.874054,169.527283 
	C260.965607,162.750000 257.473969,155.904083 254.183228,148.788879 
	C258.432556,142.661041 262.410339,136.751999 266.549408,130.958145 
	C270.636475,125.237061 274.886566,119.632446 279.065125,113.976730 
	C283.018585,119.401848 286.972076,124.826981 290.983521,130.599121 
z"/>
<path fill="#1D0201" opacity="1.000000" stroke="none" 
	d="
M271.028778,195.995499 
	C272.483093,194.777802 274.325928,193.817352 275.329651,192.301331 
	C282.731201,181.122101 289.945801,169.819275 297.269714,158.588272 
	C298.623138,156.512817 300.205444,154.586609 301.841583,152.294815 
	C304.002411,157.723709 306.003723,163.449326 308.011169,169.574600 
	C297.609375,185.907761 287.240173,201.866867 276.736298,217.736877 
	C275.631531,219.406021 273.733276,220.550003 271.783508,221.559082 
	C271.517487,219.582748 271.671112,217.984955 271.868866,215.896439 
	C271.618256,208.935654 271.323517,202.465576 271.028778,195.995499 
z"/>
<path fill="#3E0603" opacity="1.000000" stroke="none" 
	d="
M278.996307,113.639961 
	C274.886566,119.632446 270.636475,125.237061 266.549408,130.958145 
	C262.410339,136.751999 258.432556,142.661041 253.894897,148.611938 
	C249.584229,143.809921 245.762802,138.915604 241.941360,134.021286 
	C244.122299,131.357452 246.516922,128.838837 248.444107,126.002571 
	C254.222824,117.498016 259.818939,108.869392 265.795654,100.121025 
	C270.379120,104.402969 274.653320,108.853081 278.996307,113.639961 
z"/>
<path fill="#3F8EF6" opacity="1.000000" stroke="none" 
	d="
M271.824707,216.387146 
	C271.671112,217.984955 271.517487,219.582748 271.402039,221.582062 
	C271.100769,224.112152 270.761353,226.240738 269.877197,228.695831 
	C268.604370,229.339600 267.657227,229.464447 267.182983,230.004578 
	C263.383026,234.332199 259.770935,238.827744 255.899902,243.088898 
	C253.322174,245.926392 250.414001,248.463669 247.653748,251.135330 
	C244.578903,248.607529 241.504059,246.079727 238.617981,243.210938 
	C242.875397,238.408188 247.143082,234.109375 250.962753,229.443771 
	C255.829224,223.499527 260.333313,217.258621 265.323914,211.176529 
	C267.711029,212.934021 269.767853,214.660583 271.824707,216.387146 
z"/>
<path fill="#3B85F2" opacity="1.000000" stroke="none" 
	d="
M247.847458,251.421051 
	C250.414001,248.463669 253.322174,245.926392 255.899902,243.088898 
	C259.770935,238.827744 263.383026,234.332199 267.182983,230.004578 
	C267.657227,229.464447 268.604370,229.339600 269.693878,229.009735 
	C268.627563,239.919998 266.060883,250.460358 259.394196,259.774292 
	C255.385040,257.110016 251.713104,254.408386 247.847458,251.421051 
z"/>
<path fill="#131A19" opacity="1.000000" stroke="none" 
	d="
M157.028534,320.694641 
	C145.931686,321.285309 135.282227,318.524231 124.370262,315.076202 
	C117.958611,312.347260 111.925667,309.660706 105.541565,306.954651 
	C100.023712,303.068665 94.857010,299.202118 89.407990,295.179443 
	C89.125671,295.023346 89.053688,294.737762 89.441597,294.467041 
	C95.524719,293.934601 101.219940,293.672852 107.228516,293.646484 
	C111.315910,294.418213 115.089935,294.954559 119.177948,295.655487 
	C124.315437,297.598999 129.138947,299.377930 134.174042,301.415283 
	C137.868561,303.803619 141.351501,305.933502 145.013321,308.351074 
	C148.793045,312.092957 152.393890,315.547211 155.994720,319.001465 
	C156.302841,319.478241 156.610962,319.954987 157.028534,320.694641 
z"/>
<path fill="#85DC54" opacity="1.000000" stroke="none" 
	d="
M106.915146,293.411102 
	C101.219940,293.672852 95.524719,293.934601 89.398933,294.326111 
	C87.739830,293.503235 86.511299,292.550598 85.489212,291.245789 
	C87.005760,289.513184 88.622681,288.315094 89.570938,286.719604 
	C93.011681,280.930420 96.330299,275.062073 99.483315,269.111420 
	C100.909508,266.419830 101.838463,263.464783 102.992996,260.629242 
	C109.155304,261.134003 115.317619,261.638763 121.788872,262.685547 
	C119.041527,269.016479 115.911514,274.768066 112.953690,280.606873 
	C110.822044,284.814758 108.919746,289.138855 106.915146,293.411102 
z"/>
<path fill="#8FE555" opacity="1.000000" stroke="none" 
	d="
M102.573715,260.509827 
	C101.838463,263.464783 100.909508,266.419830 99.483315,269.111420 
	C96.330299,275.062073 93.011681,280.930420 89.570938,286.719604 
	C88.622681,288.315094 87.005760,289.513184 85.348816,290.944397 
	C82.695442,288.853882 80.388893,286.712616 77.788727,283.983643 
	C74.316231,279.304688 71.137352,275.213440 67.958481,271.122162 
	C67.353668,269.987030 66.748856,268.851868 66.093384,267.398285 
	C77.685562,262.720886 89.719139,260.471313 102.573715,260.509827 
z"/>
<path fill="#6F140B" opacity="1.000000" stroke="none" 
	d="
M67.915955,271.461426 
	C71.137352,275.213440 74.316231,279.304688 77.586700,283.704498 
	C75.379173,286.938019 72.884331,289.731720 70.818481,292.813049 
	C65.136879,301.287506 59.635132,309.882507 54.003708,318.791931 
	C53.614475,319.090088 53.283768,319.026154 52.717827,318.874084 
	C49.513481,315.190155 46.544365,311.594330 43.410912,307.692627 
	C46.303711,303.573944 49.633282,299.945190 52.360123,295.909271 
	C57.708706,287.992981 62.721630,279.849945 67.915955,271.461426 
z"/>
<path fill="#66C055" opacity="1.000000" stroke="none" 
	d="
M156.339630,318.947510 
	C152.393890,315.547211 148.793045,312.092957 145.360504,308.275330 
	C148.376587,303.557617 151.192810,299.182251 154.080673,294.854675 
	C157.232727,290.131226 160.451126,285.451996 163.640594,280.753479 
	C167.282974,283.715759 170.925354,286.678040 174.742264,289.929932 
	C170.540329,297.625519 166.238113,305.077026 161.743988,312.410919 
	C160.320923,314.733215 158.385498,316.741547 156.339630,318.947510 
z"/>
<path fill="#51B2F7" opacity="1.000000" stroke="none" 
	d="
M202.078827,187.367615 
	C205.394394,183.668518 208.926666,180.541199 211.943024,176.977234 
	C218.643372,169.060532 225.041489,160.888718 231.671539,152.911255 
	C232.904938,151.427170 234.647202,150.365997 236.578979,149.474457 
	C238.500916,157.512650 239.998474,165.186005 241.121750,172.916687 
	C239.414856,173.902374 237.808701,174.599289 236.794891,175.797440 
	C231.045837,182.591904 225.546173,189.598999 219.738022,196.341110 
	C216.787186,199.766434 213.367630,202.787964 210.159973,205.992020 
	C207.460464,199.908417 204.760956,193.824829 202.078827,187.367615 
z"/>
<path fill="#4DA8F7" opacity="1.000000" stroke="none" 
	d="
M210.205902,206.334915 
	C213.367630,202.787964 216.787186,199.766434 219.738022,196.341110 
	C225.546173,189.598999 231.045837,182.591904 236.794891,175.797440 
	C237.808701,174.599289 239.414856,173.902374 241.299347,173.207947 
	C244.052063,178.578369 246.252914,183.714798 248.083466,188.914078 
	C247.252213,189.149429 246.627472,189.185638 246.354034,189.514191 
	C237.437164,200.229614 228.554108,210.973129 219.666000,221.712479 
	C216.527954,216.700928 213.389908,211.689362 210.205902,206.334915 
z"/>
<path fill="#479EF7" opacity="1.000000" stroke="none" 
	d="
M219.781708,222.009338 
	C228.554108,210.973129 237.437164,200.229614 246.354034,189.514191 
	C246.627472,189.185638 247.252213,189.149429 248.315735,189.140854 
	C251.620438,193.510483 254.322571,197.716171 256.870239,202.222443 
	C247.745697,213.147461 238.775620,223.771896 229.805527,234.396347 
	C226.502838,230.366302 223.200134,226.336258 219.781708,222.009338 
z"/>
<path fill="#4395F6" opacity="1.000000" stroke="none" 
	d="
M229.917480,234.700195 
	C238.775620,223.771896 247.745697,213.147461 257.164734,202.401642 
	C260.073669,205.235397 262.533661,208.190506 264.993622,211.145599 
	C260.333313,217.258621 255.829224,223.499527 250.962753,229.443771 
	C247.143082,234.109375 242.875397,238.408188 238.473938,242.916473 
	C235.437241,240.310028 232.733337,237.657028 229.917480,234.700195 
z"/>
<path fill="#76CF54" opacity="1.000000" stroke="none" 
	d="
M133.962448,301.156860 
	C129.138947,299.377930 124.315437,297.598999 119.239487,295.266510 
	C120.729164,291.547516 122.547165,288.421051 124.197510,285.208466 
	C127.556969,278.669006 130.825958,272.083008 134.132233,265.516205 
	C138.963287,267.423981 143.794357,269.331757 148.802246,271.850342 
	C146.747726,276.482300 144.428314,280.457642 142.306534,284.535797 
	C139.445526,290.034729 136.736633,295.612762 133.962448,301.156860 
z"/>
<path fill="#6EC855" opacity="1.000000" stroke="none" 
	d="
M134.174042,301.415283 
	C136.736633,295.612762 139.445526,290.034729 142.306534,284.535797 
	C144.428314,280.457642 146.747726,276.482300 149.046326,272.091156 
	C153.814957,274.536499 158.516357,277.351837 163.429184,280.460327 
	C160.451126,285.451996 157.232727,290.131226 154.080673,294.854675 
	C151.192810,299.182251 148.376587,303.557617 145.181610,307.987671 
	C141.351501,305.933502 137.868561,303.803619 134.174042,301.415283 
z"/>
<path fill="#7DD655" opacity="1.000000" stroke="none" 
	d="
M133.822296,265.342163 
	C130.825958,272.083008 127.556969,278.669006 124.197510,285.208466 
	C122.547165,288.421051 120.729164,291.547516 118.925499,295.101929 
	C115.089935,294.954559 111.315910,294.418213 107.228516,293.646484 
	C108.919746,289.138855 110.822044,284.814758 112.953690,280.606873 
	C115.911514,274.768066 119.041527,269.016479 122.153412,262.811218 
	C125.976791,263.319305 129.744583,264.243713 133.822296,265.342163 
z"/>
<path fill="#12191B" opacity="1.000000" stroke="none" 
	d="
M265.323914,211.176544 
	C262.533661,208.190506 260.073669,205.235397 257.319214,202.101074 
	C254.322571,197.716171 251.620438,193.510483 248.686035,189.078018 
	C246.252914,183.714798 244.052063,178.578369 241.673630,173.150650 
	C239.998474,165.186005 238.500916,157.512650 236.908356,149.415939 
	C237.017380,142.831238 237.221420,136.669876 237.636719,130.137695 
	C239.022476,131.079239 240.196960,132.391571 241.656403,133.862610 
	C245.762802,138.915604 249.584229,143.809921 253.694000,148.881195 
	C257.473969,155.904083 260.965607,162.750000 264.717407,169.829132 
	C266.984589,178.430939 268.991608,186.799545 271.013733,195.581818 
	C271.323517,202.465576 271.618256,208.935654 271.868866,215.896439 
	C269.767853,214.660583 267.711029,212.934021 265.323914,211.176544 
z"/>
</svg>