<svg version="1.1" id="Layer_1" xmlns="http://www.w3.org/2000/svg" xmlns:xlink="http://www.w3.org/1999/xlink" x="0px" y="0px"
	 width="100%" viewBox="0 0 937 578" enable-background="new 0 0 937 578" xml:space="preserve">
<path fill="#FFFFFF" opacity="1.000000" stroke="none" 
	d="
M422.000000,1.000001 
	C593.912720,1.000000 765.825500,1.000000 938.000000,1.000000 
	C938.000000,111.356522 938.000000,221.713242 937.614868,332.339294 
	C936.431519,325.407166 935.633240,318.205719 934.907043,310.587860 
	C932.931030,301.449005 930.882935,292.726532 928.896484,283.612732 
	C928.639832,282.152344 928.393311,281.055420 927.991882,280.018463 
	C924.360840,270.637604 920.702759,261.267212 917.021729,251.523651 
	C910.605103,239.770889 904.219360,228.388214 897.802856,216.665695 
	C888.529846,205.514114 879.287476,194.702377 869.913086,183.586975 
	C861.223633,175.839630 852.666199,168.395966 843.943237,160.644653 
	C835.533325,155.186920 827.288818,150.036835 818.873535,144.579224 
	C811.169922,140.830978 803.637085,137.390244 795.915161,133.628204 
	C786.167358,130.168991 776.608582,127.031113 766.839294,123.564598 
	C765.368286,122.948654 764.119751,122.585457 762.845520,122.385681 
	C749.173767,120.242233 735.557678,117.483734 721.804382,116.203842 
	C710.914978,115.190475 699.844910,115.700523 688.876343,116.108017 
	C681.881042,116.367889 674.824707,117.194092 667.972839,118.618179 
	C655.911072,121.125076 643.984863,124.284042 631.673889,127.019424 
	C624.267822,116.897255 617.189758,106.925629 609.977295,96.635559 
	C598.405762,84.559769 587.107971,72.661667 575.448853,61.128788 
	C571.840271,57.559322 567.249390,54.983021 562.971436,51.629257 
	C551.520813,44.200523 540.482544,36.599644 528.825806,30.109625 
	C513.059570,21.331583 496.139709,15.032436 478.713928,10.417846 
	C461.281738,5.801563 443.604889,2.253258 425.444275,1.958238 
	C424.291290,1.939508 423.147858,1.333045 422.000000,1.000001 
z"/>
<path fill="#FFFFFF" opacity="1.000000" stroke="none" 
	d="
M0.999999,391.000000 
	C1.000000,261.071075 1.000000,131.142120 1.000000,1.000000 
	C133.023254,1.000000 265.046600,1.000000 397.362183,1.403219 
	C392.246246,2.203799 386.762878,2.165457 381.444458,3.083066 
	C367.441620,5.499027 353.371552,7.760870 339.582275,11.125281 
	C316.890625,16.661741 295.854218,26.633448 276.049469,38.717262 
	C254.382889,51.937057 234.425980,67.573410 218.178711,87.377426 
	C210.863907,96.293556 203.590363,105.277901 196.879288,114.647560 
	C184.522430,131.899536 175.395096,150.940933 168.178482,170.808823 
	C164.744934,180.261627 162.790741,190.251785 159.986725,200.363312 
	C159.537582,201.453293 159.152908,202.157532 159.016403,202.906952 
	C157.617950,210.584488 156.259766,218.269333 154.530624,226.134903 
	C153.740067,226.529892 153.320877,226.898697 152.876694,226.931778 
	C134.766525,228.280136 117.731400,233.804367 101.460518,241.357025 
	C77.861076,252.311432 57.451664,267.710205 40.589520,288.120911 
	C39.541451,289.346863 38.732475,290.372986 38.050064,291.477325 
	C31.982544,301.296204 25.937401,311.128937 19.579803,321.132141 
	C15.571307,330.871826 11.868670,340.436890 8.085844,350.393646 
	C6.392794,359.191498 4.779932,367.597656 3.081872,376.420288 
	C2.665026,379.235657 2.338305,381.635284 2.000323,384.033295 
	C1.672909,386.356384 1.333910,388.677826 0.999999,391.000000 
z"/>
<path fill="#FFFFFF" opacity="1.000000" stroke="none" 
	d="
M695.000000,579.000000 
	C463.781433,579.000000 232.562881,579.000000 1.000000,579.000000 
	C1.000000,521.643799 1.000000,464.286926 1.382344,406.666260 
	C1.843486,408.200012 1.796161,410.013733 2.025018,411.791931 
	C2.678559,416.869812 3.444383,421.933289 4.097861,427.422852 
	C5.978251,435.573792 7.926815,443.304291 9.931007,451.426697 
	C13.288355,459.894562 16.590073,467.970520 19.948036,476.407837 
	C24.654217,484.215576 29.304153,491.662018 34.092575,499.422699 
	C39.470123,505.859436 44.709183,511.981934 50.080528,518.409180 
	C51.496609,519.999573 52.702705,521.375793 54.078167,522.554382 
	C59.005604,526.776428 63.990387,530.931458 69.091240,535.423462 
	C75.468842,539.858398 81.708694,543.981628 88.112946,548.420166 
	C95.171806,551.864502 102.066261,554.993530 109.136238,558.445557 
	C114.859879,560.550537 120.407990,562.332520 126.155449,564.452881 
	C136.888367,566.565063 147.421921,568.338928 158.193359,570.475464 
	C173.930069,570.212463 189.629883,570.926331 204.879333,568.638550 
	C226.282455,565.427490 246.389328,557.462891 264.932739,546.008484 
	C280.381531,536.465637 294.121735,524.916992 305.978760,510.691467 
	C309.747101,506.196960 313.370331,502.014038 317.380127,497.907715 
	C319.496887,498.360962 321.227081,498.737701 323.133148,499.451630 
	C324.230194,500.056091 325.147247,500.338715 326.073212,500.588226 
	C335.048187,503.006439 344.024658,505.419098 353.364380,508.013672 
	C361.471100,509.500885 369.214203,510.807709 377.175842,512.478882 
	C385.389404,513.389648 393.384460,513.936157 401.755859,514.717529 
	C444.293976,515.361572 484.678711,507.530823 522.908813,489.253662 
	C525.437622,492.377563 527.801086,495.189636 530.187134,498.334656 
	C539.455200,507.479462 548.700684,516.291382 558.083313,525.415344 
	C568.024536,532.446350 577.828735,539.165344 587.810181,546.155151 
	C594.976501,549.987549 601.965454,553.549072 609.120850,557.430542 
	C617.845032,560.873657 626.402893,563.996826 635.146667,567.451050 
	C645.871582,570.223328 656.410583,572.664490 667.168335,575.460327 
	C676.107117,576.549561 684.828430,577.269836 693.543823,578.055115 
	C694.053467,578.101013 694.515686,578.672852 695.000000,579.000000 
z"/>
<path fill="#680000" opacity="1.000000" stroke="none" 
	d="
M160.166397,199.998535 
	C162.790741,190.251785 164.744934,180.261627 168.178482,170.808823 
	C175.395096,150.940933 184.522430,131.899536 196.879288,114.647560 
	C203.590363,105.277901 210.863907,96.293556 218.178711,87.377426 
	C234.425980,67.573410 254.382889,51.937057 276.049469,38.717262 
	C295.854218,26.633448 316.890625,16.661741 339.582275,11.125281 
	C353.371552,7.760870 367.441620,5.499027 381.444458,3.083066 
	C386.762878,2.165457 392.246246,2.203799 397.827209,1.403219 
	C405.687592,1.000000 413.375153,1.000000 421.531372,1.000001 
	C423.147858,1.333045 424.291290,1.939508 425.444275,1.958238 
	C443.604889,2.253258 461.281738,5.801563 478.713928,10.417846 
	C496.139709,15.032436 513.059570,21.331583 528.825806,30.109625 
	C540.482544,36.599644 551.520813,44.200523 562.633972,51.775261 
	C560.285767,53.122631 558.180481,54.128048 555.984192,54.860508 
	C530.631104,63.315788 505.251892,71.693283 479.922333,80.218262 
	C477.704254,80.964775 475.787689,82.607071 473.308807,83.890602 
	C458.734436,78.642403 444.233246,74.568924 429.072205,74.097595 
	C414.420380,73.642082 399.639832,72.941208 385.104797,74.328255 
	C370.071167,75.762886 355.489746,80.324348 341.343842,85.967110 
	C321.451080,93.902275 303.488831,105.031143 287.529144,119.145271 
	C270.508026,134.198090 256.502899,151.831924 245.452515,172.006012 
	C229.337204,177.195129 213.601807,182.371201 197.869202,187.555801 
	C185.299820,191.697968 172.733871,195.850555 160.166397,199.998535 
z"/>
<path fill="#FFFFFF" opacity="1.000000" stroke="none" 
	d="
M938.000000,361.000000 
	C938.000000,433.594025 938.000000,506.188080 938.000000,579.000000 
	C864.979248,579.000000 791.958313,579.000000 718.654358,578.606445 
	C730.983826,576.602844 743.687134,575.499878 756.186646,573.259705 
	C773.427246,570.169800 789.844116,564.055664 805.596375,556.560791 
	C815.457458,551.868835 824.589539,545.644592 834.405884,540.057373 
	C843.858215,532.707458 852.953430,525.408020 862.397278,518.058472 
	C868.868835,511.686127 874.991882,505.363861 881.427734,498.909668 
	C886.510132,492.554169 891.279663,486.330566 896.365540,479.950317 
	C900.399048,473.529327 904.116272,467.264984 907.987793,460.678650 
	C911.799011,452.917725 915.455994,445.478821 919.437012,437.867615 
	C923.451416,426.799133 927.141724,415.902985 930.907593,404.597412 
	C932.933044,392.793274 934.882996,381.398529 936.906189,369.567932 
	C937.319641,366.421387 937.659851,363.710693 938.000000,361.000000 
z"/>
<path fill="#037CFF" opacity="1.000000" stroke="none" 
	d="
M938.000000,360.531372 
	C937.659851,363.710693 937.319641,366.421387 936.476196,369.566711 
	C922.872375,372.543427 909.779236,375.124878 896.668884,377.615601 
	C885.178528,379.798492 873.668823,381.879547 862.094116,383.588501 
	C863.402649,372.782013 864.784668,362.392548 866.581665,352.001984 
	C882.219177,348.877319 897.429504,345.692566 912.669006,342.654388 
	C921.087341,340.976044 929.554749,339.543427 938.000000,338.000000 
	C938.000000,345.354248 938.000000,352.708496 938.000000,360.531372 
z"/>
<path fill="#003DFF" opacity="1.000000" stroke="none" 
	d="
M834.048767,540.107971 
	C824.589539,545.644592 815.457458,551.868835 805.596375,556.560791 
	C789.844116,564.055664 773.427246,570.169800 756.186646,573.259705 
	C743.687134,575.499878 730.983826,576.602844 718.185669,578.606445 
	C710.645752,579.000000 703.291504,579.000000 695.468628,579.000000 
	C694.515686,578.672852 694.053467,578.101013 693.543823,578.055115 
	C684.828430,577.269836 676.107117,576.549561 667.383667,575.156372 
	C677.457886,572.017883 687.480469,569.280762 697.623108,567.103394 
	C739.444153,558.125305 781.292297,549.272095 823.162903,540.528259 
	C826.667969,539.796326 830.414429,540.220764 834.048767,540.107971 
z"/>
<path fill="#0387FF" opacity="1.000000" stroke="none" 
	d="
M938.000000,337.583374 
	C929.554749,339.543427 921.087341,340.976044 912.669006,342.654388 
	C897.429504,345.692566 882.219177,348.877319 866.508911,351.538574 
	C865.638916,342.395630 865.256836,333.714935 865.289490,325.017029 
	C879.539307,322.042694 893.355774,318.995239 907.215820,316.160431 
	C916.389954,314.284027 925.626343,312.712372 934.834961,311.004272 
	C935.633240,318.205719 936.431519,325.407166 937.614868,332.804321 
	C938.000000,334.388885 938.000000,335.777802 938.000000,337.583374 
z"/>
<path fill="#64E236" opacity="1.000000" stroke="none" 
	d="
M0.999999,391.460632 
	C1.333910,388.677826 1.672909,386.356384 2.000323,384.033295 
	C2.338305,381.635284 2.665026,379.235657 3.472409,376.418152 
	C5.718879,375.600494 7.579384,375.427673 9.246025,374.766296 
	C21.584465,369.869934 33.831093,364.738251 46.216076,359.964600 
	C53.750721,357.060455 61.480091,354.661499 69.060570,352.404205 
	C67.432579,356.629272 65.612808,360.405609 64.360802,364.361633 
	C62.627834,369.837311 61.322071,375.448212 59.445965,381.001648 
	C49.304928,384.697845 39.551353,388.393799 29.797657,392.089386 
	C20.198505,395.726440 10.599225,399.363159 0.999999,403.000000 
	C1.000000,399.307098 1.000000,395.614166 0.999999,391.460632 
z"/>
<path fill="#5ADB3A" opacity="1.000000" stroke="none" 
	d="
M0.999999,403.375000 
	C10.599225,399.363159 20.198505,395.726440 29.797657,392.089386 
	C39.551353,388.393799 49.304928,384.697845 59.513874,381.443665 
	C59.590954,390.257507 59.212711,398.629791 58.446953,407.002014 
	C49.073437,410.319550 40.083057,413.625275 31.102684,416.957977 
	C22.118595,420.292084 13.144507,423.653168 4.166035,427.002411 
	C3.444383,421.933289 2.678559,416.869812 2.025018,411.791931 
	C1.796161,410.013733 1.843486,408.200012 1.382344,406.201233 
	C1.000000,405.250000 1.000000,404.500000 0.999999,403.375000 
z"/>
<path fill="#06CBFF" opacity="1.000000" stroke="none" 
	d="
M819.044373,144.886749 
	C827.288818,150.036835 835.533325,155.186920 843.592163,160.795319 
	C837.625549,162.661194 831.874023,164.205872 826.058533,165.452408 
	C801.467102,170.723541 776.835938,175.810883 752.263916,181.169998 
	C743.075562,183.173965 734.008972,185.735977 724.434021,188.026001 
	C701.874390,185.671936 680.247986,188.319336 658.572388,194.263123 
	C648.518738,198.289581 638.833435,202.330490 628.909668,206.027542 
	C626.897888,205.491425 625.024414,204.826324 623.366333,205.177704 
	C597.695923,210.617599 572.062805,216.233109 546.400696,221.712677 
	C533.009949,224.571991 519.579590,227.245743 506.203827,229.657227 
	C510.786896,222.528015 515.333313,215.744919 520.320862,208.973236 
	C522.567871,208.800339 524.408752,208.781128 526.174377,208.407043 
	C553.357727,202.647415 580.523132,196.802917 607.709229,191.056366 
	C641.688782,183.873795 675.691345,176.800018 709.669495,169.610764 
	C743.649597,162.421082 777.618225,155.176605 811.569153,147.850555 
	C814.153748,147.292847 816.556885,145.894394 819.044373,144.886749 
z"/>
<path fill="#6F0000" opacity="1.000000" stroke="none" 
	d="
M473.731079,83.833298 
	C475.787689,82.607071 477.704254,80.964775 479.922333,80.218262 
	C505.251892,71.693283 530.631104,63.315788 555.984192,54.860508 
	C558.180481,54.128048 560.285767,53.122631 562.770752,52.098007 
	C567.249390,54.983021 571.840271,57.559322 575.448853,61.128788 
	C587.107971,72.661667 598.405762,84.559769 609.631714,96.782478 
	C587.055176,104.845734 564.680359,112.416275 542.341125,120.090248 
	C540.426514,120.747948 538.747925,122.092583 536.646729,122.987602 
	C529.389771,117.197479 522.599365,111.335388 515.467896,105.922768 
	C502.783569,96.295746 488.387177,89.793549 473.731079,83.833298 
z"/>
<path fill="#06D1FF" opacity="1.000000" stroke="none" 
	d="
M818.873535,144.579224 
	C816.556885,145.894394 814.153748,147.292847 811.569153,147.850555 
	C777.618225,155.176605 743.649597,162.421082 709.669495,169.610764 
	C675.691345,176.800018 641.688782,183.873795 607.709229,191.056366 
	C580.523132,196.802917 553.357727,202.647415 526.174377,208.407043 
	C524.408752,208.781128 522.567871,208.800339 520.467041,208.661194 
	C525.742371,201.878922 531.312561,195.420074 537.323486,188.972809 
	C539.568298,188.800369 541.405945,188.776672 543.171448,188.407822 
	C562.904541,184.285065 582.633850,180.143036 602.349854,175.939407 
	C631.599915,169.703064 660.832886,163.386551 690.083740,157.154022 
	C714.003296,152.057404 737.955444,147.112503 761.859253,141.943329 
	C773.314758,139.466080 784.691711,136.625534 796.104248,133.949524 
	C803.637085,137.390244 811.169922,140.830978 818.873535,144.579224 
z"/>
<path fill="#07DBFE" opacity="1.000000" stroke="none" 
	d="
M632.001892,127.169968 
	C643.984863,124.284042 655.911072,121.125076 667.972839,118.618179 
	C674.824707,117.194092 681.881042,116.367889 688.876343,116.108017 
	C699.844910,115.700523 710.914978,115.190475 721.804382,116.203842 
	C735.557678,117.483734 749.173767,120.242233 762.845520,122.385681 
	C764.119751,122.585457 765.368286,122.948654 766.669434,123.897186 
	C765.096741,125.331528 763.559204,126.452026 761.858093,126.823654 
	C746.188049,130.246841 730.490051,133.542252 714.799500,136.871445 
	C672.741333,145.795197 630.697998,154.789932 588.613464,163.587494 
	C578.439575,165.714294 568.128906,167.187317 558.029297,168.648010 
	C561.459595,165.826797 564.741882,163.318527 568.360901,160.778061 
	C587.735474,147.270966 608.051514,136.251114 630.166748,128.666245 
	C630.867126,128.426041 631.394104,127.680122 632.001892,127.169968 
z"/>
<path fill="#07D7FF" opacity="1.000000" stroke="none" 
	d="
M557.881165,168.960968 
	C568.128906,167.187317 578.439575,165.714294 588.613464,163.587494 
	C630.697998,154.789932 672.741333,145.795197 714.799500,136.871445 
	C730.490051,133.542252 746.188049,130.246841 761.858093,126.823654 
	C763.559204,126.452026 765.096741,125.331528 766.880005,124.225815 
	C776.608582,127.031113 786.167358,130.168991 795.915161,133.628204 
	C784.691711,136.625534 773.314758,139.466080 761.859253,141.943329 
	C737.955444,147.112503 714.003296,152.057404 690.083740,157.154022 
	C660.832886,163.386551 631.599915,169.703064 602.349854,175.939407 
	C582.633850,180.143036 562.904541,184.285065 543.171448,188.407822 
	C541.405945,188.776672 539.568298,188.800369 537.464600,188.666153 
	C544.070435,181.885605 550.975769,175.423279 557.881165,168.960968 
z"/>
<path fill="#05B7FF" opacity="1.000000" stroke="none" 
	d="
M870.045166,183.890656 
	C879.287476,194.702377 888.529846,205.514114 897.425415,216.718079 
	C871.012085,222.752411 844.945557,228.394485 818.575928,233.905823 
	C807.284729,222.021423 793.921021,213.465469 780.549194,205.279678 
	C782.453003,204.431641 783.897766,203.462448 785.476868,203.129227 
	C808.212463,198.331314 830.987061,193.716400 853.700317,188.816254 
	C859.244751,187.620087 864.601929,185.555801 870.045166,183.890656 
z"/>
<path fill="#06C3FF" opacity="1.000000" stroke="none" 
	d="
M869.913086,183.586975 
	C864.601929,185.555801 859.244751,187.620087 853.700317,188.816254 
	C830.987061,193.716400 808.212463,198.331314 785.476868,203.129227 
	C783.897766,203.462448 782.453003,204.431641 780.262268,205.106522 
	C768.258484,200.834305 757.058044,196.195496 745.572021,192.426956 
	C738.914246,190.242554 731.797180,189.458038 724.886841,188.043549 
	C734.008972,185.735977 743.075562,183.173965 752.263916,181.169998 
	C776.835938,175.810883 801.467102,170.723541 826.058533,165.452408 
	C831.874023,164.205872 837.625549,162.661194 843.757629,161.102982 
	C852.666199,168.395966 861.223633,175.839630 869.913086,183.586975 
z"/>
<path fill="#780101" opacity="1.000000" stroke="none" 
	d="
M631.673889,127.019424 
	C631.394104,127.680122 630.867126,128.426041 630.166748,128.666245 
	C608.051514,136.251114 587.735474,147.270966 568.221680,160.469788 
	C558.707458,146.818954 548.844604,134.128998 536.959656,123.118103 
	C538.747925,122.092583 540.426514,120.747948 542.341125,120.090248 
	C564.680359,112.416275 587.055176,104.845734 609.766113,97.100922 
	C617.189758,106.925629 624.267822,116.897255 631.673889,127.019424 
z"/>
<path fill="#05A8FF" opacity="1.000000" stroke="none" 
	d="
M818.879028,234.036560 
	C844.945557,228.394485 871.012085,222.752411 897.456055,217.057953 
	C904.219360,228.388214 910.605103,239.770889 916.791260,251.819397 
	C915.027771,252.996094 913.493958,253.643021 911.895386,253.996048 
	C899.829468,256.660522 887.764465,259.331665 875.672119,261.872253 
	C865.521912,264.004791 855.335327,265.964081 845.007812,267.683167 
	C836.193481,256.256348 827.536255,245.146454 818.879028,234.036560 
z"/>
<path fill="#049DFF" opacity="1.000000" stroke="none" 
	d="
M845.164856,268.000122 
	C855.335327,265.964081 865.521912,264.004791 875.672119,261.872253 
	C887.764465,259.331665 899.829468,256.660522 911.895386,253.996048 
	C913.493958,253.643021 915.027771,252.996094 916.822021,252.189499 
	C920.702759,261.267212 924.360840,270.637604 927.991882,280.018463 
	C928.393311,281.055420 928.639832,282.152344 928.514771,283.666931 
	C927.121582,284.397308 926.186584,284.751434 925.220032,284.956970 
	C903.106689,289.659241 880.989868,294.345276 858.552734,298.846558 
	C853.876160,288.439209 849.520508,278.219635 845.164856,268.000122 
z"/>
<path fill="#0490FE" opacity="1.000000" stroke="none" 
	d="
M858.873718,299.034363 
	C880.989868,294.345276 903.106689,289.659241 925.220032,284.956970 
	C926.186584,284.751434 927.121582,284.397308 928.453003,284.058228 
	C930.882935,292.726532 932.931030,301.449005 934.906982,310.587891 
	C925.626343,312.712372 916.389954,314.284027 907.215820,316.160431 
	C893.355774,318.995239 879.539307,322.042694 864.948364,324.797668 
	C862.419556,316.075195 860.646606,307.554779 858.873718,299.034363 
z"/>
<path fill="#720000" opacity="1.000000" stroke="none" 
	d="
M159.986725,200.363312 
	C172.733871,195.850555 185.299820,191.697968 197.869202,187.555801 
	C213.601807,182.371201 229.337204,177.195129 245.432999,172.364868 
	C243.492615,177.640213 241.000732,182.487503 238.924530,187.506744 
	C232.879059,202.121704 228.075363,217.090469 226.483780,233.163986 
	C225.398422,239.890182 224.660263,246.445129 223.522858,253.000977 
	C221.361496,253.390793 219.550018,253.630203 217.845322,254.193069 
	C207.495651,257.610382 197.181442,261.135071 186.833801,264.558594 
	C176.198074,268.077454 165.537628,271.521667 154.779984,274.648804 
	C154.429916,272.866089 154.187881,271.433167 154.027130,269.537689 
	C154.181702,261.052399 154.254990,253.029648 154.520233,244.577179 
	C154.805954,242.202362 154.971710,240.257523 154.978577,238.312119 
	C154.993103,234.192276 154.924728,230.072159 154.890350,225.952148 
	C156.259766,218.269333 157.617950,210.584488 159.016403,202.906952 
	C159.152908,202.157532 159.537582,201.453293 159.986725,200.363312 
z"/>
<path fill="#76EF31" opacity="1.000000" stroke="none" 
	d="
M153.945847,270.000244 
	C154.187881,271.433167 154.429916,272.866089 154.709015,275.109253 
	C154.775620,279.949066 154.805161,283.978638 154.450653,288.023682 
	C132.708374,293.623291 113.276855,303.057434 95.722870,317.032349 
	C94.367027,317.261475 93.366409,317.388458 92.456825,317.746582 
	C71.970589,325.813354 51.524216,333.982422 31.000542,341.952454 
	C23.481033,344.872528 15.782762,347.332245 8.166035,350.001953 
	C11.868670,340.436890 15.571307,330.871826 19.989105,321.143799 
	C22.635990,320.552765 24.669701,320.380859 26.484350,319.658630 
	C61.647434,305.662750 96.761581,291.543671 131.946976,277.604309 
	C139.153107,274.749481 146.606445,272.518677 153.945847,270.000244 
z"/>
<path fill="#80F52E" opacity="1.000000" stroke="none" 
	d="
M154.027130,269.537689 
	C146.606445,272.518677 139.153107,274.749481 131.946976,277.604309 
	C96.761581,291.543671 61.647434,305.662750 26.484350,319.658630 
	C24.669701,320.380859 22.635990,320.552765 20.294964,320.969208 
	C25.937401,311.128937 31.982544,301.296204 38.050064,291.477325 
	C38.732475,290.372986 39.541451,289.346863 40.994873,288.132751 
	C42.831261,287.795013 44.043640,287.808136 45.086208,287.393860 
	C73.261375,276.199402 101.390625,264.888763 129.597748,253.775665 
	C137.730453,250.571533 146.078812,247.914673 154.328278,245.006912 
	C154.254990,253.029648 154.181702,261.052399 154.027130,269.537689 
z"/>
<path fill="#89FC2B" opacity="1.000000" stroke="none" 
	d="
M154.520233,244.577179 
	C146.078812,247.914673 137.730453,250.571533 129.597748,253.775665 
	C101.390625,264.888763 73.261375,276.199402 45.086208,287.393860 
	C44.043640,287.808136 42.831261,287.795013 41.292656,287.969177 
	C57.451664,267.710205 77.861076,252.311432 101.460518,241.357025 
	C117.731400,233.804367 134.766525,228.280136 152.876694,226.931778 
	C153.320877,226.898697 153.740067,226.529892 154.530640,226.134903 
	C154.924728,230.072159 154.993103,234.192276 154.978577,238.312119 
	C154.971710,240.257523 154.805954,242.202362 154.520233,244.577179 
z"/>
<path fill="#6DE834" opacity="1.000000" stroke="none" 
	d="
M8.085848,350.393646 
	C15.782762,347.332245 23.481033,344.872528 31.000542,341.952454 
	C51.524216,333.982422 71.970589,325.813354 92.456825,317.746582 
	C93.366409,317.388458 94.367027,317.261475 95.579376,317.338043 
	C85.034561,327.639221 75.571266,338.666779 69.121994,352.035614 
	C61.480091,354.661499 53.750721,357.060455 46.216076,359.964600 
	C33.831093,364.738251 21.584465,369.869934 9.246025,374.766296 
	C7.579384,375.427673 5.718879,375.600494 3.557608,376.001709 
	C4.779932,367.597656 6.392794,359.191498 8.085848,350.393646 
z"/>
<path fill="#D20000" opacity="1.000000" stroke="none" 
	d="
M322.957275,499.114441 
	C321.227081,498.737701 319.496887,498.360962 317.348083,497.546448 
	C319.175842,493.072205 321.422211,489.035767 323.903473,484.717285 
	C326.548065,479.331726 328.957764,474.228271 331.558350,469.113159 
	C331.749207,469.101562 332.127350,469.044464 332.534729,469.033569 
	C334.562042,468.741852 336.250793,468.666260 337.791504,468.149323 
	C359.658234,460.812836 381.513977,453.443176 403.334839,445.971832 
	C404.713440,445.499786 405.782257,444.122864 407.458527,443.090973 
	C420.304901,442.008759 432.788940,441.672302 445.045197,439.824860 
	C460.025360,437.566833 474.260681,432.360474 488.349670,425.974335 
	C490.408905,425.502625 492.234772,425.167664 493.748749,424.292847 
	C502.150146,419.438385 510.475769,414.452759 519.005859,409.831970 
	C521.230286,409.889069 523.386536,409.956268 525.305481,409.314117 
	C558.170044,398.315948 590.987305,387.176117 623.865173,376.218140 
	C629.160217,374.453369 634.696655,373.412842 640.063782,372.406738 
	C635.376587,380.864014 630.747070,388.952057 625.706299,397.029022 
	C623.207825,397.507385 621.065002,397.831268 619.041931,398.511322 
	C592.895752,407.300171 566.783936,416.191254 540.630005,424.956696 
	C469.565704,448.773804 398.482788,472.535400 327.427673,496.379852 
	C325.813446,496.921539 324.441986,498.186737 322.957275,499.114441 
z"/>
<path fill="#0154FF" opacity="1.000000" stroke="none" 
	d="
M907.833496,461.000671 
	C904.116272,467.264984 900.399048,473.529327 896.126709,479.654724 
	C894.773987,479.384735 893.922729,479.002686 893.186584,479.159882 
	C878.785034,482.234924 864.405701,485.413544 850.004150,488.488678 
	C825.569702,493.706085 801.118103,498.843414 776.682739,504.056519 
	C747.392944,510.305267 718.119202,516.629150 688.826294,522.863037 
	C660.179321,528.959473 631.500427,534.907104 602.876526,541.109436 
	C597.693726,542.232422 592.709045,544.269348 587.632874,545.884277 
	C577.828735,539.165344 568.024536,532.446350 558.317322,525.118713 
	C560.958008,523.834106 563.478149,523.047791 566.049133,522.499268 
	C590.438843,517.294739 614.857544,512.223511 639.221252,506.900665 
	C646.898499,505.223419 654.435120,502.903076 662.440918,500.933777 
	C672.915710,502.663269 683.017639,504.166870 693.048096,506.050476 
	C706.403992,508.558624 719.687927,506.839294 732.760681,504.779816 
	C752.749939,501.630707 771.294678,493.924377 789.227600,484.099731 
	C790.363037,484.335999 791.200012,484.652496 791.937805,484.497375 
	C819.224060,478.760498 846.482361,472.888641 873.788696,467.249359 
	C885.085327,464.916412 896.482178,463.068909 907.833496,461.000671 
z"/>
<path fill="#DD0000" opacity="1.000000" stroke="none" 
	d="
M323.133148,499.451599 
	C324.441986,498.186737 325.813446,496.921539 327.427673,496.379852 
	C398.482788,472.535400 469.565704,448.773804 540.630005,424.956696 
	C566.783936,416.191254 592.895752,407.300171 619.041931,398.511322 
	C621.065002,397.831268 623.207825,397.507385 625.565735,397.354614 
	C619.930115,405.807434 614.023743,413.923645 607.693970,422.028137 
	C599.852112,424.301208 592.383423,426.435699 585.022766,428.893860 
	C509.094025,454.250641 433.180359,479.652527 357.283630,505.105042 
	C355.726166,505.627350 354.422699,506.906982 353.000702,507.833313 
	C344.024658,505.419098 335.048187,503.006439 326.073212,500.588226 
	C325.147247,500.338715 324.230194,500.056091 323.133148,499.451599 
z"/>
<path fill="#014DFF" opacity="1.000000" stroke="none" 
	d="
M587.810181,546.155151 
	C592.709045,544.269348 597.693726,542.232422 602.876526,541.109436 
	C631.500427,534.907104 660.179321,528.959473 688.826294,522.863037 
	C718.119202,516.629150 747.392944,510.305267 776.682739,504.056519 
	C801.118103,498.843414 825.569702,493.706085 850.004150,488.488678 
	C864.405701,485.413544 878.785034,482.234924 893.186584,479.159882 
	C893.922729,479.002686 894.773987,479.384735 895.810425,479.811340 
	C891.279663,486.330566 886.510132,492.554169 880.981201,498.897583 
	C875.175720,499.834503 870.086365,500.447479 865.090637,501.503479 
	C840.994324,506.596863 816.930115,511.842041 792.841431,516.971680 
	C763.421692,523.236450 733.989624,529.443909 704.561279,535.668396 
	C680.304199,540.799194 656.024414,545.825623 631.798218,551.098389 
	C624.111572,552.771301 616.565063,555.088318 608.954468,557.110596 
	C601.965454,553.549072 594.976501,549.987549 587.810181,546.155151 
z"/>
<path fill="#18AB4E" opacity="1.000000" stroke="none" 
	d="
M332.127350,469.044464 
	C332.127350,469.044464 331.749207,469.101562 331.145782,469.082764 
	C328.631744,469.581543 326.649261,469.918243 324.821350,470.644104 
	C301.214478,480.018341 277.646088,489.489441 254.035706,498.854767 
	C206.665283,517.644775 159.270416,536.373291 111.918968,555.210999 
	C110.734283,555.682312 109.938110,557.130188 108.960724,558.122559 
	C102.066261,554.993530 95.171806,551.864502 88.310173,548.129089 
	C90.245491,546.513672 92.072906,545.315857 94.062080,544.524780 
	C115.581512,535.966003 137.146362,527.521057 158.643036,518.905884 
	C161.919403,517.592773 164.912109,515.571899 168.493622,513.932983 
	C173.698898,513.658875 178.442123,513.227478 183.195129,513.021118 
	C196.202621,512.456238 208.317307,508.560547 220.134384,503.422272 
	C234.076660,497.359894 245.610931,487.851318 257.296051,477.968262 
	C259.478760,477.610291 261.349213,477.486603 263.011322,476.832977 
	C279.675201,470.280121 296.278809,463.573700 312.954559,457.051575 
	C321.884491,453.558960 330.921936,450.341339 339.912140,447.371460 
	C337.318085,454.843628 334.722717,461.944061 332.127350,469.044464 
z"/>
<path fill="#0148FF" opacity="1.000000" stroke="none" 
	d="
M609.120850,557.430542 
	C616.565063,555.088318 624.111572,552.771301 631.798218,551.098389 
	C656.024414,545.825623 680.304199,540.799194 704.561279,535.668396 
	C733.989624,529.443909 763.421692,523.236450 792.841431,516.971680 
	C816.930115,511.842041 840.994324,506.596863 865.090637,501.503479 
	C870.086365,500.447479 875.175720,499.834503 880.668396,499.029480 
	C874.991882,505.363861 868.868835,511.686127 862.170410,517.781128 
	C830.721497,523.872864 799.834167,530.125427 768.979065,536.532776 
	C746.166565,541.270020 723.396423,546.211365 700.606567,551.057556 
	C680.079163,555.422668 659.541321,559.739807 639.041565,564.231018 
	C637.542297,564.559509 636.314636,566.127991 634.960693,567.119934 
	C626.402893,563.996826 617.845032,560.873657 609.120850,557.430542 
z"/>
<path fill="#0CA351" opacity="1.000000" stroke="none" 
	d="
M323.668610,484.999390 
	C321.422211,489.035767 319.175842,493.072205 316.961487,497.469879 
	C313.370331,502.014038 309.747101,506.196960 305.598297,510.698853 
	C301.596222,512.091980 298.028137,512.935486 294.657196,514.275146 
	C253.277344,530.719971 211.912476,547.202942 170.588242,563.786926 
	C166.232590,565.534912 162.159607,567.987244 157.955475,570.112793 
	C147.421921,568.338928 136.888367,566.565063 126.214218,564.095947 
	C127.369049,562.447632 128.542908,561.212585 129.981750,560.592285 
	C135.162430,558.358704 140.425079,556.313904 145.669891,554.230835 
	C197.339600,533.709412 248.992188,513.144592 300.705597,492.733978 
	C308.208710,489.772583 316.006958,487.558990 323.668610,484.999390 
z"/>
<path fill="#0043FF" opacity="1.000000" stroke="none" 
	d="
M635.146667,567.451050 
	C636.314636,566.127991 637.542297,564.559509 639.041565,564.231018 
	C659.541321,559.739807 680.079163,555.422668 700.606567,551.057556 
	C723.396423,546.211365 746.166565,541.270020 768.979065,536.532776 
	C799.834167,530.125427 830.721497,523.872864 861.821838,517.831299 
	C852.953430,525.408020 843.858215,532.707458 834.405884,540.057373 
	C830.414429,540.220764 826.667969,539.796326 823.162903,540.528259 
	C781.292297,549.272095 739.444153,558.125305 697.623108,567.103394 
	C687.480469,569.280762 677.457886,572.017883 667.164795,574.801636 
	C656.410583,572.664490 645.871582,570.223328 635.146667,567.451050 
z"/>
<path fill="#0261FF" opacity="1.000000" stroke="none" 
	d="
M662.036133,500.877075 
	C654.435120,502.903076 646.898499,505.223419 639.221252,506.900665 
	C614.857544,512.223511 590.438843,517.294739 566.049133,522.499268 
	C563.478149,523.047791 560.958008,523.834106 558.180237,524.806702 
	C548.700684,516.291382 539.455200,507.479462 530.583496,498.323486 
	C551.408997,493.640747 571.884521,489.409607 592.300293,484.907898 
	C599.950562,483.221008 607.461914,480.904602 615.395691,478.936829 
	C630.243530,488.276245 645.557251,495.809113 662.036133,500.877075 
z"/>
<path fill="#E50000" opacity="1.000000" stroke="none" 
	d="
M353.364380,508.013672 
	C354.422699,506.906982 355.726166,505.627350 357.283630,505.105042 
	C433.180359,479.652527 509.094025,454.250641 585.022766,428.893860 
	C592.383423,426.435699 599.852112,424.301208 607.562866,422.341248 
	C602.275696,428.457581 596.696289,434.249115 590.705750,440.029449 
	C588.520203,440.389709 586.687378,440.586609 584.979858,441.157837 
	C517.115112,463.861816 449.259033,486.591766 381.423096,509.381744 
	C379.810486,509.923523 378.440460,511.187469 376.957275,512.114563 
	C369.214203,510.807709 361.471100,509.500885 353.364380,508.013672 
z"/>
<path fill="#13A84F" opacity="1.000000" stroke="none" 
	d="
M323.903473,484.717285 
	C316.006958,487.558990 308.208710,489.772583 300.705597,492.733978 
	C248.992188,513.144592 197.339600,533.709412 145.669891,554.230835 
	C140.425079,556.313904 135.162430,558.358704 129.981750,560.592285 
	C128.542908,561.212585 127.369049,562.447632 126.014862,563.757568 
	C120.407990,562.332520 114.859879,560.550537 109.136246,558.445557 
	C109.938110,557.130188 110.734283,555.682312 111.918968,555.210999 
	C159.270416,536.373291 206.665283,517.644775 254.035706,498.854767 
	C277.646088,489.489441 301.214478,480.018341 324.821350,470.644104 
	C326.649261,469.918243 328.631744,469.581543 330.954895,469.094360 
	C328.957764,474.228271 326.548065,479.331726 323.903473,484.717285 
z"/>
<path fill="#059D54" opacity="1.000000" stroke="none" 
	d="
M158.193359,570.475464 
	C162.159607,567.987244 166.232590,565.534912 170.588242,563.786926 
	C211.912476,547.202942 253.277344,530.719971 294.657196,514.275146 
	C298.028137,512.935486 301.596222,512.091980 305.453156,511.010468 
	C294.121735,524.916992 280.381531,536.465637 264.932739,546.008484 
	C246.389328,557.462891 226.282455,565.427490 204.879333,568.638550 
	C189.629883,570.926331 173.930069,570.212463 158.193359,570.475464 
z"/>
<path fill="#EA0000" opacity="1.000000" stroke="none" 
	d="
M377.175842,512.478882 
	C378.440460,511.187469 379.810486,509.923523 381.423096,509.381744 
	C449.259033,486.591766 517.115112,463.861816 584.979858,441.157837 
	C586.687378,440.586609 588.520203,440.389709 590.575562,440.341339 
	C588.205200,443.215698 585.553711,445.766968 582.563843,448.283356 
	C576.486450,452.508972 570.747559,456.769440 564.769897,460.748657 
	C562.468567,460.763641 560.304810,460.755280 558.358032,461.400909 
	C517.566223,474.929626 476.781097,488.479095 436.038116,502.153992 
	C424.415253,506.055023 412.928619,510.361969 401.379486,514.482727 
	C393.384460,513.936157 385.389404,513.389648 377.175842,512.478882 
z"/>
<path fill="#F00001" opacity="1.000000" stroke="none" 
	d="
M401.755859,514.717529 
	C412.928619,510.361969 424.415253,506.055023 436.038116,502.153992 
	C476.781097,488.479095 517.566223,474.929626 558.358032,461.400909 
	C560.304810,460.755280 562.468567,460.763641 564.613037,461.045776 
	C551.555603,470.002899 538.411194,478.373535 525.288208,486.777710 
	C524.359009,487.372742 523.587952,488.214691 522.743408,488.941833 
	C484.678711,507.530823 444.293976,515.361572 401.755859,514.717529 
z"/>
<path fill="#0270FF" opacity="1.000000" stroke="none" 
	d="
M522.908813,489.253632 
	C523.587952,488.214691 524.359009,487.372742 525.288208,486.777710 
	C538.411194,478.373535 551.555603,470.002899 564.851685,461.327026 
	C570.747559,456.769440 576.486450,452.508972 582.754883,448.553345 
	C585.320984,451.204010 587.155945,453.769745 589.430420,455.856262 
	C597.887573,463.614532 606.489258,471.215271 615.036621,478.875183 
	C607.461914,480.904602 599.950562,483.221008 592.300293,484.907898 
	C571.884521,489.409607 551.408997,493.640747 530.560852,497.990601 
	C527.801086,495.189636 525.437622,492.377563 522.908813,489.253632 
z"/>
<path fill="#28B749" opacity="1.000000" stroke="none" 
	d="
M68.953491,535.111877 
	C63.990387,530.931458 59.005604,526.776428 54.078167,522.554382 
	C52.702705,521.375793 51.496609,519.999573 50.243576,518.086121 
	C61.080837,512.955872 71.910759,508.508667 82.686363,503.933502 
	C91.171440,500.330902 99.589584,496.570679 108.360222,493.030334 
	C117.492867,497.771667 126.302757,502.363098 134.787262,507.107971 
	C133.632339,507.804016 132.866135,508.505096 131.963837,508.865753 
	C115.045639,515.628113 98.084854,522.284912 81.198990,529.126709 
	C76.998413,530.828674 73.029106,533.101440 68.953491,535.111877 
z"/>
<path fill="#1FB04B" opacity="1.000000" stroke="none" 
	d="
M69.091232,535.423462 
	C73.029106,533.101440 76.998413,530.828674 81.198990,529.126709 
	C98.084854,522.284912 115.045639,515.628113 131.963837,508.865753 
	C132.866135,508.505096 133.632339,507.804016 135.175980,507.141785 
	C140.648224,508.349518 145.353149,509.931946 150.178146,510.939178 
	C156.078171,512.170837 162.078857,512.920349 168.036011,513.878418 
	C164.912109,515.571899 161.919403,517.592773 158.643036,518.905884 
	C137.146362,527.521057 115.581512,535.966003 94.062080,544.524780 
	C92.072906,545.315857 90.245491,546.513672 88.145767,547.813843 
	C81.708694,543.981628 75.468842,539.858398 69.091232,535.423462 
z"/>
<path fill="#47CD3F" opacity="1.000000" stroke="none" 
	d="
M19.891792,476.046478 
	C16.590073,467.970520 13.288355,459.894562 10.311083,451.381531 
	C28.130192,443.949738 45.624855,436.954987 63.439728,430.153076 
	C67.117470,438.566864 70.475006,446.787781 73.472084,455.055481 
	C55.371681,462.083710 37.631741,469.065094 19.891792,476.046478 
z"/>
<path fill="#39C343" opacity="1.000000" stroke="none" 
	d="
M19.948038,476.407837 
	C37.631741,469.065094 55.371681,462.083710 73.625793,455.373901 
	C79.132233,462.417511 84.124496,469.189545 88.779953,476.103027 
	C77.812553,480.492218 67.133568,484.623871 56.567585,489.026703 
	C48.951805,492.200226 41.486515,495.734894 33.954094,499.108459 
	C29.304153,491.662018 24.654217,484.215576 19.948038,476.407837 
z"/>
<path fill="#31BD46" opacity="1.000000" stroke="none" 
	d="
M34.092579,499.422729 
	C41.486515,495.734894 48.951805,492.200226 56.567585,489.026703 
	C67.133568,484.623871 77.812553,480.492218 89.083298,476.234314 
	C95.828117,481.776276 101.932793,487.328369 108.037460,492.880463 
	C99.589584,496.570679 91.171440,500.330902 82.686363,503.933502 
	C71.910759,508.508667 61.080837,512.955872 50.111286,517.781372 
	C44.709183,511.981934 39.470123,505.859436 34.092579,499.422729 
z"/>
<path fill="#52D53C" opacity="1.000000" stroke="none" 
	d="
M63.119518,429.960205 
	C45.624855,436.954987 28.130192,443.949738 10.255453,450.989624 
	C7.926815,443.304291 5.978251,435.573792 4.097860,427.422852 
	C13.144507,423.653168 22.118595,420.292084 31.102684,416.957977 
	C40.083057,413.625275 49.073437,410.319550 58.530315,407.412903 
	C60.373970,415.202606 61.746746,422.581421 63.119518,429.960205 
z"/>
<path fill="#FFFFFF" opacity="1.000000" stroke="none" 
	d="
M487.972321,425.861847 
	C474.260681,432.360474 460.025360,437.566833 445.045197,439.824860 
	C432.788940,441.672302 420.304901,442.008759 406.999573,443.016724 
	C393.942383,441.641449 381.689636,440.898376 369.712616,438.671814 
	C361.282471,437.104614 353.227295,433.520569 345.001282,430.413757 
	C345.276367,426.662567 345.554810,423.334686 345.909302,419.581787 
	C346.324951,417.417206 346.949341,415.678802 346.956879,413.937744 
	C346.998627,404.294586 346.890259,394.650818 346.907806,384.571930 
	C344.932648,373.093201 342.883026,362.049805 340.898376,350.623108 
	C337.253296,340.828857 333.543213,331.417877 329.798462,321.655884 
	C325.190979,313.833679 320.618195,306.362488 315.908142,298.581024 
	C310.529205,292.144653 305.287506,286.018494 299.913940,279.588409 
	C294.222992,274.173065 288.663910,269.061646 282.960846,263.637451 
	C276.164307,258.745331 269.511780,254.165985 262.576752,249.343094 
	C259.750732,247.709396 257.291534,246.127731 254.648346,244.963760 
	C245.410202,240.895554 236.108536,236.971527 226.830994,232.992752 
	C228.075363,217.090469 232.879059,202.121704 238.924530,187.506744 
	C241.000732,182.487503 243.492615,177.640213 245.814117,172.355484 
	C256.502899,151.831924 270.508026,134.198090 287.529144,119.145271 
	C303.488831,105.031143 321.451080,93.902275 341.343842,85.967110 
	C355.489746,80.324348 370.071167,75.762886 385.104797,74.328255 
	C399.639832,72.941208 414.420380,73.642082 429.072205,74.097595 
	C444.233246,74.568924 458.734436,78.642403 473.308807,83.890602 
	C488.387177,89.793549 502.783569,96.295746 515.467896,105.922768 
	C522.599365,111.335388 529.389771,117.197479 536.646729,122.987595 
	C548.844604,134.128998 558.707458,146.818954 567.884888,160.501968 
	C564.741882,163.318527 561.459595,165.826797 558.029297,168.648010 
	C550.975769,175.423279 544.070435,181.885605 537.023926,188.654572 
	C531.312561,195.420074 525.742371,201.878922 520.025879,208.649796 
	C515.333313,215.744919 510.786896,222.528015 506.045471,229.975433 
	C502.193115,237.748245 498.535828,244.856720 494.565857,252.144592 
	C491.223724,260.550140 488.194244,268.776306 485.085693,277.387817 
	C482.726593,287.183533 480.446564,296.593872 478.083923,306.412506 
	C476.723663,318.215210 475.445984,329.609589 474.099365,341.466614 
	C474.742340,353.620331 475.454285,365.311432 476.110718,377.412933 
	C476.370850,379.230072 476.699585,380.634033 477.000031,382.044006 
	C478.633514,389.710022 480.260010,397.377502 481.939026,405.444580 
	C483.983521,412.517029 485.977905,419.189453 487.972321,425.861847 
z"/>
<path fill="#0261FF" opacity="1.000000" stroke="none" 
	d="
M930.832031,405.006805 
	C927.141724,415.902985 923.451416,426.799133 919.013550,437.857178 
	C896.834961,442.516235 875.425659,447.120514 853.963562,451.464233 
	C843.655457,453.550507 833.247742,455.144440 822.938843,456.612427 
	C832.605042,445.378693 841.064270,433.679962 848.187195,421.160309 
	C866.658203,417.774139 884.903809,414.095642 903.155518,410.448029 
	C912.375244,408.605438 921.606201,406.818756 930.832031,405.006805 
z"/>
<path fill="#0270FF" opacity="1.000000" stroke="none" 
	d="
M930.907593,404.597412 
	C921.606201,406.818756 912.375244,408.605438 903.155518,410.448029 
	C884.903809,414.095642 866.658203,417.774139 848.331543,420.831665 
	C850.166626,415.997589 852.319336,411.861206 853.941467,407.526276 
	C856.851685,399.748993 859.443054,391.852356 862.167664,384.005554 
	C873.668823,381.879547 885.178528,379.798492 896.668884,377.615601 
	C909.779236,375.124878 922.872375,372.543427 936.402954,370.002563 
	C934.882996,381.398529 932.933044,392.793274 930.907593,404.597412 
z"/>
<path fill="#0159FF" opacity="1.000000" stroke="none" 
	d="
M822.885132,456.961304 
	C833.247742,455.144440 843.655457,453.550507 853.963562,451.464233 
	C875.425659,447.120514 896.834961,442.516235 918.689453,438.029480 
	C915.455994,445.478821 911.799011,452.917725 907.987793,460.678650 
	C896.482178,463.068909 885.085327,464.916412 873.788696,467.249359 
	C846.482361,472.888641 819.224060,478.760498 791.937805,484.497375 
	C791.200012,484.652496 790.363037,484.335999 789.385925,483.783600 
	C800.428040,474.538971 811.656616,465.750153 822.885132,456.961304 
z"/>
<path fill="#FFFFFF" opacity="1.000000" stroke="none" 
	d="
M822.938843,456.612396 
	C811.656616,465.750153 800.428040,474.538971 789.041199,483.643921 
	C771.294678,493.924377 752.749939,501.630707 732.760681,504.779816 
	C719.687927,506.839294 706.403992,508.558624 693.048096,506.050476 
	C683.017639,504.166870 672.915710,502.663269 662.440918,500.933777 
	C645.557251,495.809113 630.243530,488.276245 615.395691,478.936829 
	C606.489258,471.215271 597.887573,463.614532 589.430420,455.856262 
	C587.155945,453.769745 585.320984,451.204010 583.093262,448.588257 
	C585.553711,445.766968 588.205200,443.215698 590.986816,440.352539 
	C596.696289,434.249115 602.275696,428.457581 607.986206,422.352936 
	C614.023743,413.923645 619.930115,405.807434 625.977051,397.365662 
	C630.747070,388.952057 635.376587,380.864014 640.385925,372.251221 
	C643.788513,364.483765 646.811279,357.241119 649.993774,349.658447 
	C652.380127,342.545105 654.606750,335.771820 657.007202,328.641357 
	C659.065186,320.855499 660.949280,313.426758 662.908081,305.571014 
	C664.026611,295.110107 665.070557,285.076263 666.485352,274.814209 
	C666.515686,261.390106 666.175110,248.194199 665.908997,234.562851 
	C663.635925,220.844147 661.288330,207.560852 658.940735,194.277557 
	C680.247986,188.319336 701.874390,185.671936 724.434021,188.026001 
	C731.797180,189.458038 738.914246,190.242554 745.572021,192.426956 
	C757.058044,196.195496 768.258484,200.834305 779.865723,205.281113 
	C793.921021,213.465469 807.284729,222.021423 818.575928,233.905807 
	C827.536255,245.146454 836.193481,256.256348 845.007812,267.683167 
	C849.520508,278.219635 853.876160,288.439209 858.552734,298.846558 
	C860.646606,307.554779 862.419556,316.075195 864.533569,324.814941 
	C865.256836,333.714935 865.638916,342.395630 866.093872,351.539673 
	C864.784668,362.392548 863.402649,372.782013 862.094116,383.588531 
	C859.443054,391.852356 856.851685,399.748993 853.941467,407.526276 
	C852.319336,411.861206 850.166626,415.997589 848.108643,420.552094 
	C841.064270,433.679962 832.605042,445.378693 822.938843,456.612396 
z"/>
<path fill="#FFFFFF" opacity="1.000000" stroke="none" 
	d="
M63.439728,430.153076 
	C61.746746,422.581421 60.373970,415.202606 58.917835,407.412964 
	C59.212711,398.629791 59.590954,390.257507 59.901283,381.443207 
	C61.322071,375.448212 62.627834,369.837311 64.360802,364.361633 
	C65.612808,360.405609 67.432579,356.629272 69.060570,352.404205 
	C75.571266,338.666779 85.034561,327.639221 95.977005,317.343567 
	C113.276855,303.057434 132.708374,293.623291 154.525024,288.452026 
	C157.377777,300.909210 159.772125,312.953522 162.094131,325.387512 
	C162.345474,326.674713 162.662292,327.574768 162.993896,328.469360 
	C167.383575,340.312469 171.775345,352.154846 176.187759,364.355530 
	C181.456299,374.178619 186.703659,383.643524 191.975815,393.466827 
	C199.985855,404.587830 207.971100,415.350403 216.078461,426.423218 
	C222.216125,433.010223 228.231689,439.287079 234.530396,445.763245 
	C236.171997,447.106079 237.500793,448.287170 238.893753,449.386963 
	C247.255356,455.988892 255.631699,462.572144 263.874451,469.463196 
	C261.459564,472.495361 259.173340,475.225983 256.887115,477.956604 
	C245.610931,487.851318 234.076660,497.359894 220.134384,503.422272 
	C208.317307,508.560547 196.202621,512.456238 183.195129,513.021118 
	C178.442123,513.227478 173.698898,513.658875 168.493607,513.932983 
	C162.078857,512.920349 156.078171,512.170837 150.178146,510.939178 
	C145.353149,509.931946 140.648224,508.349518 135.501343,506.988342 
	C126.302757,502.363098 117.492867,497.771667 108.360229,493.030334 
	C101.932793,487.328369 95.828117,481.776276 89.420097,476.092896 
	C84.124496,469.189545 79.132233,462.417511 73.986252,455.327087 
	C70.475006,446.787781 67.117470,438.566864 63.439728,430.153076 
z"/>
<path fill="#940101" opacity="1.000000" stroke="none" 
	d="
M658.572388,194.263123 
	C661.288330,207.560852 663.635925,220.844147 665.544800,234.612930 
	C642.125854,242.731812 619.145752,250.365189 596.091064,257.561218 
	C595.289062,249.415771 594.561707,241.707687 593.920837,233.684860 
	C594.075806,232.940353 594.144348,232.510574 594.512207,231.945221 
	C606.257080,223.330231 617.702637,214.850815 629.148132,206.371399 
	C638.833435,202.330490 648.518738,198.289581 658.572388,194.263123 
z"/>
<path fill="#06C3FF" opacity="1.000000" stroke="none" 
	d="
M628.909668,206.027557 
	C617.702637,214.850815 606.257080,223.330231 594.091797,231.928894 
	C568.664307,237.291641 543.972168,242.610901 519.239685,247.735229 
	C511.173431,249.406494 503.001892,250.569672 494.878510,251.965210 
	C498.535828,244.856720 502.193115,237.748245 506.008789,230.321533 
	C519.579590,227.245743 533.009949,224.571991 546.400696,221.712677 
	C572.062805,216.233109 597.695923,210.617599 623.366333,205.177704 
	C625.024414,204.826324 626.897888,205.491425 628.909668,206.027557 
z"/>
<path fill="#7E0000" opacity="1.000000" stroke="none" 
	d="
M162.166473,324.997803 
	C159.772125,312.953522 157.377777,300.909210 154.909073,288.436584 
	C154.805161,283.978638 154.775620,279.949066 154.817032,275.459015 
	C165.537628,271.521667 176.198074,268.077454 186.833801,264.558594 
	C197.181442,261.135071 207.495651,257.610382 217.845322,254.193069 
	C219.550018,253.630203 221.361496,253.390793 223.572556,253.457153 
	C224.105515,257.271362 224.189545,260.630341 224.193085,264.446777 
	C224.797333,271.935486 225.482086,278.966736 226.116913,286.383606 
	C227.043732,289.563934 228.020462,292.358643 228.997757,295.562805 
	C229.372498,298.635895 229.746704,301.299591 229.709366,303.974670 
	C227.372772,304.419159 225.394562,304.692017 223.530899,305.310181 
	C205.310043,311.354340 187.116196,317.479919 168.890686,323.509888 
	C166.722534,324.227264 164.411346,324.512329 162.166473,324.997803 
z"/>
<path fill="#76EF31" opacity="1.000000" stroke="none" 
	d="
M224.273575,263.989288 
	C224.189545,260.630341 224.105515,257.271362 223.971802,253.456253 
	C224.660263,246.445129 225.398422,239.890182 226.483780,233.163986 
	C236.108536,236.971527 245.410202,240.895554 254.648346,244.963760 
	C257.291534,246.127731 259.750732,247.709396 262.179016,249.502808 
	C254.453537,253.058563 246.904739,256.372314 239.210754,259.305145 
	C234.343689,261.160370 229.260071,262.447388 224.273575,263.989288 
z"/>
<path fill="#C90001" opacity="1.000000" stroke="none" 
	d="
M649.834045,349.998474 
	C646.811279,357.241119 643.788513,364.483765 640.443604,371.881958 
	C634.696655,373.412842 629.160217,374.453369 623.865173,376.218140 
	C590.987305,387.176117 558.170044,398.315948 525.305481,409.314117 
	C523.386536,409.956268 521.230286,409.889069 519.205017,409.580780 
	C525.107178,403.996155 530.988770,398.982727 537.182678,393.838257 
	C541.443176,389.729675 545.391296,385.752167 549.797119,381.833862 
	C552.830261,381.430908 555.505554,381.271545 557.966064,380.460602 
	C588.606812,370.361542 619.216431,360.167847 649.834045,349.998474 
z"/>
<path fill="#C20000" opacity="1.000000" stroke="none" 
	d="
M345.004700,430.837067 
	C353.227295,433.520569 361.282471,437.104614 369.712616,438.671814 
	C381.689636,440.898376 393.942383,441.641449 406.536255,443.092651 
	C405.782257,444.122864 404.713440,445.499786 403.334839,445.971832 
	C381.513977,453.443176 359.658234,460.812836 337.791504,468.149323 
	C336.250793,468.666260 334.562042,468.741852 332.534729,469.033569 
	C334.722717,461.944061 337.318085,454.843628 340.096313,447.036499 
	C341.854370,441.165527 343.429535,436.001312 345.004700,430.837067 
z"/>
<path fill="#0387FF" opacity="1.000000" stroke="none" 
	d="
M536.870361,393.969299 
	C530.988770,398.982727 525.107178,403.996155 519.026489,409.260803 
	C510.475769,414.452759 502.150146,419.438385 493.748749,424.292847 
	C492.234772,425.167664 490.408905,425.502625 488.349670,425.974335 
	C485.977905,419.189453 483.983521,412.517029 482.297852,405.292358 
	C492.575439,402.493164 502.508545,400.068420 512.524475,398.055481 
	C520.587830,396.434998 528.751282,395.312653 536.870361,393.969299 
z"/>
<path fill="#1FB04B" opacity="1.000000" stroke="none" 
	d="
M345.001312,430.413757 
	C343.429535,436.001312 341.854370,441.165527 340.095032,446.664703 
	C330.921936,450.341339 321.884491,453.558960 312.954559,457.051575 
	C296.278809,463.573700 279.675201,470.280121 263.011322,476.832977 
	C261.349213,477.486603 259.478760,477.610291 257.296051,477.968262 
	C259.173340,475.225983 261.459564,472.495361 264.183716,469.311859 
	C269.751373,460.906250 274.881073,452.953491 280.384521,444.958679 
	C286.215302,442.925446 291.704468,441.017639 297.123291,438.927460 
	C313.374695,432.658813 329.598602,426.318878 345.833252,420.006775 
	C345.554810,423.334686 345.276367,426.662567 345.001312,430.413757 
z"/>
<path fill="#05A8FF" opacity="1.000000" stroke="none" 
	d="
M474.168304,341.004028 
	C475.445984,329.609589 476.723663,318.215210 478.489136,306.409821 
	C492.829224,303.097137 506.673553,300.156647 520.536194,297.305389 
	C532.624512,294.819122 544.733582,292.433441 556.775085,290.371338 
	C555.138367,295.657990 553.333252,300.517639 552.035889,305.509277 
	C550.177368,312.659119 548.689819,319.905334 546.822266,326.835205 
	C531.982178,329.571930 517.374817,332.639038 502.741241,335.576019 
	C493.236664,337.483582 483.693939,339.201263 474.168304,341.004028 
z"/>
<path fill="#049DFF" opacity="1.000000" stroke="none" 
	d="
M474.099365,341.466614 
	C483.693939,339.201263 493.236664,337.483582 502.741241,335.576019 
	C517.374817,332.639038 531.982178,329.571930 546.801636,327.285217 
	C546.668945,336.260345 546.216980,344.508087 546.058289,352.761414 
	C545.992798,356.169006 546.556519,359.588654 546.412842,363.001892 
	C534.840332,365.226929 523.687439,367.444977 512.538086,369.681000 
	C500.412384,372.112823 488.290039,374.561310 476.166229,377.002533 
	C475.454285,365.311432 474.742340,353.620331 474.099365,341.466614 
z"/>
<path fill="#05B7FF" opacity="1.000000" stroke="none" 
	d="
M556.833435,290.003265 
	C544.733582,292.433441 532.624512,294.819122 520.536194,297.305389 
	C506.673553,300.156647 492.829224,303.097137 478.571716,306.001526 
	C480.446564,296.593872 482.726593,287.183533 485.515564,277.386963 
	C487.687103,276.944489 489.402740,277.136658 491.004120,276.794250 
	C510.092957,272.712494 529.149231,268.477478 548.248535,264.446014 
	C556.164307,262.775116 564.162659,261.495148 571.973083,260.356964 
	C566.826355,270.452118 561.829895,280.227692 556.833435,290.003265 
z"/>
<path fill="#06BEFF" opacity="1.000000" stroke="none" 
	d="
M572.123413,260.037354 
	C564.162659,261.495148 556.164307,262.775116 548.248535,264.446014 
	C529.149231,268.477478 510.092957,272.712494 491.004120,276.794250 
	C489.402740,277.136658 487.687103,276.944489 485.594666,277.001587 
	C488.194244,268.776306 491.223724,260.550140 494.565857,252.144592 
	C503.001892,250.569672 511.173431,249.406494 519.239685,247.735229 
	C543.972168,242.610901 568.664307,237.291641 593.792480,232.064484 
	C594.144348,232.510574 594.075806,232.940353 593.621826,233.816727 
	C586.198608,242.854660 579.161011,251.446014 572.123413,260.037354 
z"/>
<path fill="#2BB848" opacity="1.000000" stroke="none" 
	d="
M345.909302,419.581818 
	C329.598602,426.318878 313.374695,432.658813 297.123291,438.927460 
	C291.704468,441.017639 286.215302,442.925446 280.409210,444.580139 
	C281.836731,439.361206 283.613312,434.478790 285.600433,429.270691 
	C287.283539,421.295624 288.756165,413.646210 290.612335,405.996918 
	C298.993011,402.999878 306.992767,400.009674 314.986603,397.003937 
	C325.604553,393.011383 336.217987,389.006683 346.833344,385.007233 
	C346.890259,394.650818 346.998627,404.294586 346.956879,413.937744 
	C346.949341,415.678802 346.324951,417.417206 345.909302,419.581818 
z"/>
<path fill="#39C343" opacity="1.000000" stroke="none" 
	d="
M346.907806,384.571930 
	C336.217987,389.006683 325.604553,393.011383 314.986603,397.003937 
	C306.992767,400.009674 298.993011,402.999878 290.568237,405.582367 
	C290.093842,403.779694 290.047058,402.391693 290.076904,400.630737 
	C290.050262,399.504517 289.947021,398.751190 289.908966,397.540955 
	C289.668640,393.354797 289.446411,389.616364 289.037140,385.898590 
	C288.489655,380.925201 287.797150,375.967773 287.544189,370.994507 
	C296.577179,367.673431 305.221436,364.330994 313.891785,361.057709 
	C322.859131,357.672302 331.851807,354.354034 340.833405,351.006378 
	C342.883026,362.049805 344.932648,373.093201 346.907806,384.571930 
z"/>
<path fill="#0490FE" opacity="1.000000" stroke="none" 
	d="
M476.110718,377.412933 
	C488.290039,374.561310 500.412384,372.112823 512.538086,369.681000 
	C523.687439,367.444977 534.840332,365.226929 546.481628,363.427948 
	C547.980347,368.959595 548.989197,374.064270 549.956055,379.504150 
	C549.722473,380.484436 549.530945,381.129517 549.339417,381.774628 
	C545.391296,385.752167 541.443176,389.729675 537.182678,393.838226 
	C528.751282,395.312653 520.587830,396.434998 512.524475,398.055481 
	C502.508545,400.068420 492.575439,402.493164 482.247742,404.892273 
	C480.260010,397.377502 478.633514,389.710022 477.000031,382.044006 
	C476.699585,380.634033 476.370850,379.230072 476.110718,377.412933 
z"/>
<path fill="#47CD3F" opacity="1.000000" stroke="none" 
	d="
M340.898376,350.623108 
	C331.851807,354.354034 322.859131,357.672302 313.891785,361.057709 
	C305.221436,364.330994 296.577179,367.673431 287.368988,370.650391 
	C283.266632,361.210907 279.716766,352.106476 276.527222,342.952209 
	C294.536041,335.937225 312.184601,328.972046 329.833130,322.006866 
	C333.543213,331.417877 337.253296,340.828857 340.898376,350.623108 
z"/>
<path fill="#52D53C" opacity="1.000000" stroke="none" 
	d="
M329.798462,321.655884 
	C312.184601,328.972046 294.536041,335.937225 276.369995,342.632019 
	C271.195312,335.253204 266.538116,328.144806 262.222839,320.895874 
	C274.209076,316.094452 285.871063,311.476959 297.490692,306.755188 
	C303.713257,304.226562 309.862854,301.518402 316.045410,298.891235 
	C320.618195,306.362488 325.190979,313.833679 329.798462,321.655884 
z"/>
<path fill="#5ADB3A" opacity="1.000000" stroke="none" 
	d="
M315.908142,298.580994 
	C309.862854,301.518402 303.713257,304.226562 297.490692,306.755188 
	C285.871063,311.476959 274.209076,316.094452 261.919617,320.765137 
	C255.503601,315.222107 249.732697,309.669281 244.119949,303.791412 
	C254.291245,299.326721 264.328430,295.243958 274.310303,291.030182 
	C282.921478,287.395020 291.469727,283.610718 300.045807,279.892365 
	C305.287506,286.018494 310.529205,292.144653 315.908142,298.580994 
z"/>
<path fill="#64E236" opacity="1.000000" stroke="none" 
	d="
M299.913940,279.588409 
	C291.469727,283.610718 282.921478,287.395020 274.310303,291.030182 
	C264.328430,295.243958 254.291245,299.326721 243.804626,303.645264 
	C238.553162,300.933899 233.775192,298.043640 228.997208,295.153351 
	C228.020462,292.358643 227.043732,289.563934 226.507324,286.383362 
	C228.074188,285.785370 229.273819,285.754547 230.316406,285.334198 
	C247.924118,278.234924 265.512299,271.087189 283.104828,263.950195 
	C288.663910,269.061646 294.222992,274.173065 299.913940,279.588409 
z"/>
<path fill="#6DE834" opacity="1.000000" stroke="none" 
	d="
M282.960846,263.637451 
	C265.512299,271.087189 247.924118,278.234924 230.316406,285.334198 
	C229.273819,285.754547 228.074188,285.785370 226.557220,285.997711 
	C225.482086,278.966736 224.797333,271.935486 224.193085,264.446777 
	C229.260071,262.447388 234.343689,261.160370 239.210754,259.305145 
	C246.904739,256.372314 254.453537,253.058563 262.461487,249.746338 
	C269.511780,254.165985 276.164307,258.745331 282.960846,263.637451 
z"/>
<path fill="#A20000" opacity="1.000000" stroke="none" 
	d="
M596.165588,257.998566 
	C619.145752,250.365189 642.125854,242.731812 665.470215,235.048355 
	C666.175110,248.194199 666.515686,261.390106 666.086792,274.807922 
	C654.457520,278.556244 643.601807,282.095215 632.736938,285.605865 
	C618.884033,290.082031 605.023804,294.535370 591.092590,298.586639 
	C592.734192,284.782684 594.449890,271.390625 596.165588,257.998566 
z"/>
<path fill="#B00000" opacity="1.000000" stroke="none" 
	d="
M591.166626,298.998535 
	C605.023804,294.535370 618.884033,290.082031 632.736938,285.605865 
	C643.601807,282.095215 654.457520,278.556244 665.715820,275.036133 
	C665.070557,285.076263 664.026611,295.110107 662.502563,305.571716 
	C660.868286,306.094818 659.637817,305.962189 658.571716,306.319855 
	C642.846252,311.595703 627.173523,317.030243 611.422913,322.229248 
	C601.058350,325.650360 590.589050,328.754425 580.197876,331.635406 
	C583.874878,320.513092 587.520752,309.755798 591.166626,298.998535 
z"/>
<path fill="#C20000" opacity="1.000000" stroke="none" 
	d="
M549.797119,381.833862 
	C549.530945,381.129517 549.722473,380.484436 550.277161,379.358185 
	C556.054260,371.571472 561.468201,364.265961 567.305603,356.972046 
	C569.991821,356.554626 572.338135,356.377014 574.504761,355.658173 
	C599.865784,347.243683 625.194214,338.731079 650.551697,330.305878 
	C652.567810,329.636017 654.735901,329.423553 656.833374,328.998505 
	C654.606750,335.771820 652.380127,342.545105 649.993774,349.658447 
	C619.216431,360.167847 588.606812,370.361542 557.966064,380.460602 
	C555.505554,381.271545 552.830261,381.430908 549.797119,381.833862 
z"/>
<path fill="#B90000" opacity="1.000000" stroke="none" 
	d="
M657.007202,328.641357 
	C654.735901,329.423553 652.567810,329.636017 650.551697,330.305878 
	C625.194214,338.731079 599.865784,347.243683 574.504761,355.658173 
	C572.338135,356.377014 569.991821,356.554626 567.447998,356.644836 
	C571.500183,348.204193 575.833435,340.102356 580.166748,332.000488 
	C590.589050,328.754425 601.058350,325.650360 611.422913,322.229248 
	C627.173523,317.030243 642.846252,311.595703 658.571716,306.319855 
	C659.637817,305.962189 660.868286,306.094818 662.427856,305.998718 
	C660.949280,313.426758 659.065186,320.855499 657.007202,328.641357 
z"/>
<path fill="#A20000" opacity="1.000000" stroke="none" 
	d="
M289.843750,397.997894 
	C289.947021,398.751190 290.050262,399.504517 289.672791,400.630188 
	C288.211029,401.136841 287.178436,401.117828 286.256500,401.427856 
	C263.757568,408.993164 241.266449,416.581940 218.793701,424.224579 
	C217.754089,424.578156 216.897934,425.471222 215.956345,426.113007 
	C207.971100,415.350403 199.985855,404.587830 192.197113,393.175659 
	C215.540451,384.684448 238.687271,376.842834 261.976868,369.317749 
	C270.046082,378.222107 277.942261,386.838318 285.935516,395.363464 
	C286.983154,396.480804 288.528778,397.131226 289.843750,397.997894 
z"/>
<path fill="#8A0000" opacity="1.000000" stroke="none" 
	d="
M162.094116,325.387512 
	C164.411346,324.512329 166.722534,324.227264 168.890686,323.509888 
	C187.116196,317.479919 205.310043,311.354340 223.530899,305.310181 
	C225.394562,304.692017 227.372772,304.419159 230.051666,304.153076 
	C231.522583,306.781677 232.090164,309.298950 232.982910,311.695068 
	C236.615936,321.446167 240.348618,331.160126 243.824524,341.179626 
	C231.349701,345.618805 219.106308,349.800293 206.836548,353.902893 
	C196.629318,357.315857 186.391083,360.636078 176.166580,363.997375 
	C171.775345,352.154846 167.383575,340.312469 162.993896,328.469360 
	C162.662292,327.574768 162.345474,326.674713 162.094116,325.387512 
z"/>
<path fill="#960000" opacity="1.000000" stroke="none" 
	d="
M176.187759,364.355530 
	C186.391083,360.636078 196.629318,357.315857 206.836548,353.902893 
	C219.106308,349.800293 231.349701,345.618805 244.152496,341.334137 
	C250.411697,350.464935 256.122894,359.733063 261.834076,369.001221 
	C238.687271,376.842834 215.540451,384.684448 192.172333,392.817261 
	C186.703659,383.643524 181.456299,374.178619 176.187759,364.355530 
z"/>
<path fill="#B00000" opacity="1.000000" stroke="none" 
	d="
M216.078461,426.423218 
	C216.897934,425.471222 217.754089,424.578156 218.793701,424.224579 
	C241.266449,416.581940 263.757568,408.993164 286.256500,401.427856 
	C287.178436,401.117828 288.211029,401.136841 289.596161,401.003113 
	C290.047058,402.391693 290.093842,403.779694 290.184692,405.582275 
	C288.756165,413.646210 287.283539,421.295624 285.386230,428.937042 
	C281.993805,429.445007 278.887665,429.564453 276.081726,430.543823 
	C262.093536,435.426361 248.184280,440.534912 234.247238,445.563904 
	C228.231689,439.287079 222.216125,433.010223 216.078461,426.423218 
z"/>
<path fill="#B90000" opacity="1.000000" stroke="none" 
	d="
M234.530396,445.763245 
	C248.184280,440.534912 262.093536,435.426361 276.081726,430.543823 
	C278.887665,429.564453 281.993805,429.445007 285.175720,429.262726 
	C283.613312,434.478790 281.836731,439.361206 280.035431,444.622192 
	C274.881073,452.953491 269.751373,460.906250 264.312408,469.010315 
	C255.631699,462.572144 247.255356,455.988892 238.893753,449.386963 
	C237.500793,448.287170 236.171997,447.106079 234.530396,445.763245 
z"/>
<path fill="#FFFFFF" opacity="1.000000" stroke="none" 
	d="
M580.197876,331.635437 
	C575.833435,340.102356 571.500183,348.204193 567.024536,356.633240 
	C561.468201,364.265961 556.054260,371.571472 550.319214,379.022980 
	C548.989197,374.064270 547.980347,368.959595 546.902771,363.428894 
	C546.556519,359.588654 545.992798,356.169006 546.058289,352.761414 
	C546.216980,344.508087 546.668945,336.260345 547.023254,327.560394 
	C548.689819,319.905334 550.177368,312.659119 552.035889,305.509277 
	C553.333252,300.517639 555.138367,295.657990 556.775085,290.371338 
	C561.829895,280.227692 566.826355,270.452118 571.973083,260.356934 
	C579.161011,251.446014 586.198608,242.854660 593.535278,234.131454 
	C594.561707,241.707687 595.289062,249.415771 596.091064,257.561218 
	C594.449890,271.390625 592.734192,284.782684 591.092529,298.586609 
	C587.520752,309.755798 583.874878,320.513092 580.197876,331.635437 
z"/>
<path fill="#FFFFFF" opacity="1.000000" stroke="none" 
	d="
M261.976868,369.317719 
	C256.122894,359.733063 250.411697,350.464935 244.372528,341.042297 
	C240.348618,331.160126 236.615936,321.446167 232.982910,311.695068 
	C232.090164,309.298950 231.522583,306.781677 230.463196,304.141663 
	C229.746704,301.299591 229.372498,298.635895 228.997757,295.562805 
	C233.775192,298.043640 238.553162,300.933899 243.646484,303.970337 
	C249.732697,309.669281 255.503601,315.222107 261.577728,320.905640 
	C266.538116,328.144806 271.195312,335.253204 276.009705,342.681824 
	C279.716766,352.106476 283.266632,361.210907 286.991699,370.659424 
	C287.797150,375.967773 288.489655,380.925201 289.037140,385.898590 
	C289.446411,389.616364 289.668640,393.354797 289.908966,397.540955 
	C288.528778,397.131226 286.983154,396.480804 285.935516,395.363464 
	C277.942261,386.838318 270.046082,378.222107 261.976868,369.317719 
z"/>
</svg>