<svg version="1.1" id="Layer_1" xmlns="http://www.w3.org/2000/svg" xmlns:xlink="http://www.w3.org/1999/xlink" x="0px" y="0px"
	 width="100%" viewBox="0 0 1326 528" enable-background="new 0 0 1326 528" xml:space="preserve">
<path fill="none" stroke="none" 
	d="
M811.000000,529.000000 
	C540.666687,529.000000 270.833374,529.000000 1.000036,529.000000 
	C1.000024,353.000031 1.000024,177.000046 1.000012,1.000060 
	C442.999969,1.000040 884.999939,1.000040 1327.000000,1.000020 
	C1327.000000,176.999939 1327.000000,352.999878 1327.000000,528.999878 
	C1155.166626,529.000000 983.333313,529.000000 811.000000,529.000000 
M187.506042,296.034576 
	C189.005875,302.355469 190.505707,308.676392 192.003571,315.751495 
	C194.946152,321.854004 197.888733,327.956512 200.981766,334.742462 
	C205.966064,340.840851 210.950363,346.939240 216.282837,353.610016 
	C221.422791,357.454803 226.562729,361.299591 232.142914,365.687561 
	C239.711761,368.940735 247.280624,372.193878 255.472015,375.818695 
	C270.824829,380.199646 286.353333,380.562866 301.865570,377.132233 
	C325.838776,371.830383 344.573517,358.480133 359.699799,339.174164 
	C361.082428,339.606689 362.465088,340.039246 364.430756,340.845306 
	C369.291077,342.180176 374.151367,343.515015 379.766144,345.121399 
	C384.513763,346.025238 389.261414,346.929108 394.919678,347.955566 
	C421.704651,350.286224 447.349030,346.143402 472.082184,335.079590 
	C474.083496,337.328033 476.084808,339.576508 478.339600,342.450653 
	C483.247101,346.920197 488.154572,351.389771 493.443451,356.416504 
	C498.940369,359.988739 504.437317,363.560974 510.364563,367.668304 
	C518.174255,370.961548 525.984009,374.254791 534.416809,377.891022 
	C556.837097,384.865723 579.501770,385.561829 602.214417,379.806152 
	C622.461914,374.675171 640.734680,365.577332 656.610779,350.738556 
	C662.122192,344.507202 667.633606,338.275848 673.720398,331.714203 
	C677.081238,326.139801 680.442139,320.565399 684.234985,314.422546 
	C686.801270,307.947052 689.367554,301.471527 692.335571,294.362915 
	C693.669495,288.268951 695.003418,282.174957 696.702637,275.395966 
	C697.061218,269.593353 697.419861,263.790771 697.945435,257.080200 
	C697.467224,251.045395 696.989014,245.010574 696.572937,238.206512 
	C694.906677,231.434189 693.240356,224.661865 691.399963,217.115173 
	C687.981140,209.656631 684.562317,202.198090 681.040344,194.058136 
	C676.649048,187.937683 672.257812,181.817230 667.567322,175.041382 
	C660.539734,168.615051 653.512085,162.188736 646.077393,155.195084 
	C636.713013,150.149170 627.348572,145.103256 617.415588,139.570282 
	C614.466431,138.704697 611.430054,138.059845 608.583679,136.934387 
	C597.637756,132.606461 586.177917,131.441040 574.562988,130.976517 
	C559.615906,130.378708 545.188354,133.212524 530.474976,136.813416 
	C528.372437,133.657013 526.588745,130.220001 524.105469,127.398727 
	C517.618958,120.029320 510.826355,112.929291 503.984802,105.074699 
	C502.298950,103.512451 500.702789,101.838326 498.914032,100.404457 
	C462.549011,71.253860 421.300507,62.253937 376.290833,72.661896 
	C343.584229,80.224915 317.114990,98.442245 297.128967,125.529236 
	C288.732391,136.909042 281.381561,148.989471 277.423462,163.494278 
	C275.256561,172.916611 273.089661,182.338943 270.051147,191.742035 
	C244.260925,194.877579 223.259323,206.533569 206.652100,227.409317 
	C204.049683,231.522293 201.447266,235.635254 198.288498,240.189362 
	C195.988083,245.758743 193.687683,251.328140 191.051712,257.508209 
	C189.916000,263.317963 188.780289,269.127716 187.283997,275.677155 
	C187.365433,282.173370 187.446854,288.669556 187.506042,296.034576 
M1110.773193,315.824951 
	C1104.010132,314.094940 1097.181519,312.574249 1090.528931,310.491516 
	C1088.811646,309.953918 1086.843872,307.815735 1086.494141,306.105530 
	C1086.235840,304.842102 1088.078369,302.481781 1089.567505,301.637665 
	C1098.590454,296.523132 1111.627930,299.958984 1117.233154,308.909515 
	C1123.854736,307.734100 1130.592651,306.537994 1137.582153,305.297272 
	C1134.385498,295.863617 1128.798218,289.847015 1120.048340,287.185272 
	C1110.157349,284.176392 1099.964355,283.970978 1089.880127,285.654968 
	C1085.071045,286.458008 1080.118408,288.108459 1075.934570,290.570770 
	C1068.663696,294.849823 1065.184692,301.692657 1065.809082,310.331299 
	C1066.411987,318.670013 1071.018921,324.161224 1078.344727,327.531067 
	C1081.350586,328.913727 1084.515503,330.053864 1087.716187,330.889740 
	C1095.755371,332.989288 1103.864624,334.818695 1111.927979,336.828094 
	C1114.877930,337.563232 1117.894409,338.427429 1118.090942,342.277039 
	C1118.298462,346.342316 1115.579834,348.198181 1112.306885,349.469849 
	C1100.571777,354.029327 1090.237061,350.163330 1084.272095,338.843018 
	C1077.486328,339.768250 1070.603394,340.706757 1063.066162,341.734436 
	C1063.066162,323.152252 1063.066162,304.965881 1063.066162,286.910767 
	C1055.071167,286.910767 1047.697998,286.910767 1040.158447,286.910767 
	C1040.158447,297.497925 1040.301270,307.657196 1040.108276,317.810059 
	C1039.978882,324.618225 1039.864502,331.491669 1038.849976,338.200806 
	C1037.708740,345.747162 1029.102783,350.711456 1019.854309,349.997925 
	C1012.268616,349.412628 1008.176025,344.912872 1007.985657,336.150299 
	C1007.667419,321.498627 1007.654236,306.840302 1007.517578,292.184692 
	C1007.501099,290.415833 1007.515259,288.646698 1007.515259,286.875610 
	C999.487610,286.875610 992.109070,286.875610 984.774109,286.875610 
	C984.774109,305.081268 984.265686,322.909302 984.925903,340.693939 
	C985.514099,356.538940 994.953308,365.366852 1010.869934,365.737061 
	C1016.226074,365.861633 1021.907715,364.937469 1026.925659,363.092163 
	C1032.154907,361.169159 1036.762695,357.555969 1041.938721,354.507111 
	C1041.938721,357.554199 1041.938721,360.625824 1041.938721,363.728638 
	C1049.226562,363.728638 1056.107544,363.728638 1063.355835,363.728638 
	C1063.355835,357.832489 1063.355835,352.279297 1063.355835,346.726105 
	C1069.135986,356.492950 1077.382446,362.933105 1088.284668,364.266357 
	C1097.574219,365.402374 1107.169800,365.227905 1116.513306,364.366882 
	C1124.481445,363.632599 1131.264648,359.409546 1136.158813,352.729797 
	C1144.237671,341.703430 1140.923950,327.374023 1128.557129,321.664246 
	C1123.172485,319.178162 1117.263062,317.829132 1110.773193,315.824951 
M738.842285,336.500061 
	C738.842285,322.610016 738.842285,308.719940 738.842285,293.590363 
	C740.284485,295.546509 740.967041,296.403046 741.576233,297.308990 
	C755.501587,318.017365 769.381226,338.756775 783.401855,359.400482 
	C784.671936,361.270660 786.754028,363.730560 788.605896,363.862946 
	C795.853882,364.381165 803.160828,364.074738 810.644653,364.074738 
	C810.644653,327.432190 810.644653,291.234314 810.644653,255.102692 
	C803.113525,255.102692 795.879761,255.102692 787.961609,255.102692 
	C787.961609,278.847534 787.961609,302.257904 787.961609,326.867645 
	C772.214844,303.297485 757.260254,280.879639 742.238464,258.506958 
	C741.285522,257.087677 739.856506,255.013214 738.569946,254.953781 
	C731.181885,254.612473 723.769958,254.787674 716.487488,254.787674 
	C716.487488,291.648315 716.487488,327.703979 716.487488,363.737732 
	C724.057922,363.737732 731.288391,363.737732 738.842285,363.737732 
	C738.842285,354.766724 738.842285,346.133423 738.842285,336.500061 
M832.970764,245.702011 
	C832.511230,257.190674 838.996338,265.387421 851.533508,268.806122 
	C863.610291,272.099365 876.017090,272.352722 888.213013,270.522217 
	C908.782715,267.434875 916.554138,259.287140 917.279602,238.506256 
	C918.150635,213.558273 917.570068,188.559525 917.585022,163.582733 
	C917.585327,163.162430 917.167908,162.741867 917.011963,162.447174 
	C909.754761,162.447174 902.655457,162.447174 895.009583,162.447174 
	C895.009583,165.735321 895.009583,168.753693 895.009583,172.678024 
	C884.503784,161.463501 872.204773,158.750458 858.731750,161.520386 
	C838.901062,165.597382 828.826050,180.691254 829.894470,203.685776 
	C831.047424,228.499359 850.581421,244.180023 874.810181,238.841324 
	C881.426270,237.383484 887.394470,232.985413 893.921692,229.809357 
	C893.726562,234.175217 893.731445,239.271790 893.213684,244.314728 
	C892.585938,250.429062 889.877563,253.650055 883.487305,254.559738 
	C876.073730,255.615158 868.246765,257.646881 861.663269,251.664871 
	C861.317993,251.351120 861.295288,250.668747 860.941162,250.380630 
	C859.665283,249.342392 858.400574,247.720795 856.972595,247.533798 
	C849.223999,246.518951 841.427795,245.867355 832.970764,245.702011 
M983.784302,229.558990 
	C984.285645,229.555389 984.787048,229.551804 985.288391,229.548203 
	C984.982910,235.657471 985.280945,241.889297 984.077087,247.816071 
	C983.590881,250.209381 980.065002,253.219467 977.496826,253.707123 
	C971.550476,254.836197 965.305481,255.113037 959.263184,254.656189 
	C956.902832,254.477737 954.752686,251.415085 952.524841,249.643402 
	C951.692627,248.981659 950.974243,247.745132 950.097778,247.637756 
	C941.773071,246.617844 933.425476,245.784653 925.080811,244.897354 
	C924.170959,256.602600 930.573242,265.052521 942.814697,268.554779 
	C955.018188,272.046234 967.584656,272.356506 979.957581,270.454834 
	C1001.199646,267.189941 1008.703918,258.673859 1009.196777,237.056137 
	C1009.747192,212.920212 1009.443115,188.764709 1009.480652,164.617676 
	C1009.481812,163.851196 1009.149963,163.084198 1009.002930,162.445862 
	C1001.634033,162.445862 994.533569,162.445862 986.887634,162.445862 
	C986.887634,165.729568 986.887634,168.740753 986.887634,172.468201 
	C974.713867,160.152313 960.834961,157.918396 945.798889,162.754501 
	C928.851990,168.205215 920.497131,183.104630 921.780762,204.128815 
	C922.697327,219.140930 929.156311,230.984650 943.288269,236.815643 
	C957.568542,242.707779 971.340759,241.036316 983.784302,229.558990 
M825.348206,239.962448 
	C827.760803,239.962448 830.173401,239.962448 833.127258,239.962448 
	C832.361816,238.074432 831.897766,236.859680 831.381836,235.667374 
	C818.182800,205.163879 804.556458,174.834366 792.037109,144.054596 
	C788.377197,135.056305 783.913818,131.012680 774.367004,132.836395 
	C771.956543,133.296860 769.351196,133.158844 766.892578,132.846161 
	C763.184448,132.374573 761.382690,133.744751 759.916687,137.270081 
	C747.090881,168.111969 734.040161,198.860352 721.062927,229.639313 
	C719.675537,232.929825 718.331177,236.238449 716.841492,239.841949 
	C725.504517,239.841949 733.483337,239.841949 741.723877,239.841949 
	C744.489014,232.903244 747.398499,226.029800 749.934937,219.021362 
	C750.911438,216.323120 752.318542,215.610062 755.043213,215.646622 
	C766.200745,215.796371 777.361389,215.709091 788.520935,215.709076 
	C797.620972,215.709061 797.549194,215.738815 801.093628,224.292328 
	C803.242126,229.477097 804.369263,236.417358 808.318848,239.139404 
	C812.079163,241.730942 818.909851,239.867325 825.348206,239.962448 
M1134.099976,222.585007 
	C1134.638550,221.324341 1135.177002,220.063690 1135.834717,218.524292 
	C1127.001953,217.353302 1118.810181,216.267273 1110.783813,215.203201 
	C1105.872681,224.928253 1098.565430,228.137482 1088.239502,225.446304 
	C1079.294556,223.114990 1073.932739,216.185776 1074.296631,206.932678 
	C1095.172363,206.932678 1116.072144,206.932678 1136.914551,206.932678 
	C1138.981934,187.118317 1130.216553,171.255219 1113.584839,164.386856 
	C1104.101807,160.470734 1094.131714,160.038986 1084.104736,161.037430 
	C1065.467773,162.893265 1051.650269,175.493790 1048.357178,193.327835 
	C1044.009277,216.875198 1056.252808,235.794525 1079.722168,240.112946 
	C1088.238647,241.679977 1097.328003,241.570435 1105.978882,240.618149 
	C1117.674805,239.330688 1127.399170,233.659637 1134.099976,222.585007 
M870.398438,347.024780 
	C863.241882,351.972382 855.952454,351.436859 848.899841,347.061707 
	C843.255676,343.560303 840.983337,338.138000 841.002991,331.150513 
	C861.015991,331.150513 880.432007,331.150513 899.800232,331.150513 
	C902.480774,306.775726 890.044495,289.277924 866.657715,285.475464 
	C840.215210,281.176178 818.263855,294.878448 816.391052,321.884918 
	C815.032471,341.475464 823.485046,359.900055 846.174622,364.408813 
	C852.621399,365.689880 859.457458,366.101715 866.004761,365.565918 
	C880.872009,364.349304 892.656677,357.913116 899.006348,342.796356 
	C891.037537,341.625763 883.371277,340.499603 875.843140,339.393768 
	C874.119385,341.939636 872.553894,344.251801 870.398438,347.024780 
M977.976257,353.496582 
	C970.121399,343.445038 962.266541,333.393494 954.348145,323.260620 
	C964.102478,310.980774 973.521667,299.122894 983.568115,286.475311 
	C975.027100,286.475311 967.713928,286.252838 960.429749,286.614899 
	C958.325439,286.719513 955.704041,288.000092 954.353882,289.609283 
	C949.576843,295.303040 945.247559,301.372528 940.520569,307.599915 
	C935.934937,301.250092 931.711365,295.279236 927.326294,289.429413 
	C926.417908,288.217468 924.933838,286.652100 923.674744,286.614838 
	C915.241394,286.365265 906.797119,286.485138 897.265930,286.485138 
	C907.629883,299.606476 917.342407,311.903137 927.018982,324.154236 
	C916.662476,337.486450 906.633545,350.396973 896.004395,364.080170 
	C904.485229,364.080170 911.789612,364.305237 919.064087,363.938324 
	C921.152100,363.832977 923.778564,362.520813 925.085510,360.898041 
	C930.377258,354.327728 935.250916,347.420685 940.544006,340.280029 
	C945.752625,347.412537 950.612671,354.152466 955.588074,360.806061 
	C956.528809,362.064087 957.900085,363.872253 959.119507,363.909882 
	C967.808899,364.178314 976.510376,364.053040 986.193359,364.053040 
	C983.071167,360.061462 980.731628,357.070404 977.976257,353.496582 
M1016.987854,222.498474 
	C1016.987854,228.246231 1016.987854,233.994003 1016.987854,239.684891 
	C1025.336914,239.684891 1032.919922,239.684891 1040.551514,239.684891 
	C1040.551514,213.739807 1040.551514,188.078293 1040.551514,162.428772 
	C1032.565918,162.428772 1024.981323,162.428772 1016.987854,162.428772 
	C1016.987854,182.299927 1016.987854,201.899567 1016.987854,222.498474 
M1040.949097,147.309311 
	C1040.949097,142.563843 1040.949097,137.818359 1040.949097,133.155090 
	C1032.588989,133.155090 1025.002808,133.155090 1017.286133,133.155090 
	C1017.286133,139.453934 1017.286133,145.495148 1017.286133,151.923492 
	C1024.525635,151.923492 1031.477661,152.055054 1038.411743,151.761444 
	C1039.305176,151.723618 1040.105347,149.481812 1040.949097,147.309311 
z"/>
<path fill="#5F0F08" opacity="1.000000" stroke="none" 
	d="
M277.911896,162.976440 
	C281.381561,148.989471 288.732391,136.909042 297.128967,125.529236 
	C317.114990,98.442245 343.584229,80.224915 376.290833,72.661896 
	C421.300507,62.253937 462.549011,71.253860 498.914032,100.404457 
	C500.702789,101.838326 502.298950,103.512451 503.830811,105.705170 
	C502.140045,106.931587 500.623779,107.588478 499.063171,108.113625 
	C488.564636,111.646324 478.029602,115.074272 467.583374,118.754623 
	C466.153229,119.258484 465.150146,120.974442 463.600800,122.054787 
	C462.350037,121.559929 461.418518,121.192421 460.549835,120.711441 
	C429.443970,103.488815 397.707367,102.515167 365.514252,117.317215 
	C350.413300,124.260475 338.732727,135.566940 327.643616,148.010559 
	C320.232117,149.966766 313.199493,151.794952 306.257233,153.918686 
	C296.772736,156.820114 287.357056,159.946487 277.911896,162.976440 
z"/>
<path fill="#FBFBFB" opacity="1.000000" stroke="none" 
	d="
M1111.182617,315.894287 
	C1117.263062,317.829132 1123.172485,319.178162 1128.557129,321.664246 
	C1140.923950,327.374023 1144.237671,341.703430 1136.158813,352.729797 
	C1131.264648,359.409546 1124.481445,363.632599 1116.513306,364.366882 
	C1107.169800,365.227905 1097.574219,365.402374 1088.284668,364.266357 
	C1077.382446,362.933105 1069.135986,356.492950 1063.355835,346.726105 
	C1063.355835,352.279297 1063.355835,357.832489 1063.355835,363.728638 
	C1056.107544,363.728638 1049.226562,363.728638 1041.938721,363.728638 
	C1041.938721,360.625824 1041.938721,357.554199 1041.938721,354.507111 
	C1036.762695,357.555969 1032.154907,361.169159 1026.925659,363.092163 
	C1021.907715,364.937469 1016.226074,365.861633 1010.869934,365.737061 
	C994.953308,365.366852 985.514099,356.538940 984.925903,340.693939 
	C984.265686,322.909302 984.774109,305.081268 984.774109,286.875610 
	C992.109070,286.875610 999.487610,286.875610 1007.515259,286.875610 
	C1007.515259,288.646698 1007.501099,290.415833 1007.517578,292.184692 
	C1007.654236,306.840302 1007.667419,321.498627 1007.985657,336.150299 
	C1008.176025,344.912872 1012.268616,349.412628 1019.854309,349.997925 
	C1029.102783,350.711456 1037.708740,345.747162 1038.849976,338.200806 
	C1039.864502,331.491669 1039.978882,324.618225 1040.108276,317.810059 
	C1040.301270,307.657196 1040.158447,297.497925 1040.158447,286.910767 
	C1047.697998,286.910767 1055.071167,286.910767 1063.066162,286.910767 
	C1063.066162,304.965881 1063.066162,323.152252 1063.066162,341.734436 
	C1070.603394,340.706757 1077.486328,339.768250 1084.272095,338.843018 
	C1090.237061,350.163330 1100.571777,354.029327 1112.306885,349.469849 
	C1115.579834,348.198181 1118.298462,346.342316 1118.090942,342.277039 
	C1117.894409,338.427429 1114.877930,337.563232 1111.927979,336.828094 
	C1103.864624,334.818695 1095.755371,332.989288 1087.716187,330.889740 
	C1084.515503,330.053864 1081.350586,328.913727 1078.344727,327.531067 
	C1071.018921,324.161224 1066.411987,318.670013 1065.809082,310.331299 
	C1065.184692,301.692657 1068.663696,294.849823 1075.934570,290.570770 
	C1080.118408,288.108459 1085.071045,286.458008 1089.880127,285.654968 
	C1099.964355,283.970978 1110.157349,284.176392 1120.048340,287.185272 
	C1128.798218,289.847015 1134.385498,295.863617 1137.582153,305.297272 
	C1130.592651,306.537994 1123.854736,307.734100 1117.233154,308.909515 
	C1111.627930,299.958984 1098.590454,296.523132 1089.567505,301.637665 
	C1088.078369,302.481781 1086.235840,304.842102 1086.494141,306.105530 
	C1086.843872,307.815735 1088.811646,309.953918 1090.528931,310.491516 
	C1097.181519,312.574249 1104.010132,314.094940 1111.182617,315.894287 
z"/>
<path fill="#FBFBFB" opacity="1.000000" stroke="none" 
	d="
M738.842285,337.000092 
	C738.842285,346.133423 738.842285,354.766724 738.842285,363.737732 
	C731.288391,363.737732 724.057922,363.737732 716.487488,363.737732 
	C716.487488,327.703979 716.487488,291.648315 716.487488,254.787674 
	C723.769958,254.787674 731.181885,254.612473 738.569946,254.953781 
	C739.856506,255.013214 741.285522,257.087677 742.238464,258.506958 
	C757.260254,280.879639 772.214844,303.297485 787.961609,326.867645 
	C787.961609,302.257904 787.961609,278.847534 787.961609,255.102692 
	C795.879761,255.102692 803.113525,255.102692 810.644653,255.102692 
	C810.644653,291.234314 810.644653,327.432190 810.644653,364.074738 
	C803.160828,364.074738 795.853882,364.381165 788.605896,363.862946 
	C786.754028,363.730560 784.671936,361.270660 783.401855,359.400482 
	C769.381226,338.756775 755.501587,318.017365 741.576233,297.308990 
	C740.967041,296.403046 740.284485,295.546509 738.842285,293.590363 
	C738.842285,308.719940 738.842285,322.610016 738.842285,337.000092 
z"/>
<path fill="#FBFBFB" opacity="1.000000" stroke="none" 
	d="
M833.309387,245.396332 
	C841.427795,245.867355 849.223999,246.518951 856.972595,247.533798 
	C858.400574,247.720795 859.665283,249.342392 860.941162,250.380630 
	C861.295288,250.668747 861.317993,251.351120 861.663269,251.664871 
	C868.246765,257.646881 876.073730,255.615158 883.487305,254.559738 
	C889.877563,253.650055 892.585938,250.429062 893.213684,244.314728 
	C893.731445,239.271790 893.726562,234.175217 893.921692,229.809357 
	C887.394470,232.985413 881.426270,237.383484 874.810181,238.841324 
	C850.581421,244.180023 831.047424,228.499359 829.894470,203.685776 
	C828.826050,180.691254 838.901062,165.597382 858.731750,161.520386 
	C872.204773,158.750458 884.503784,161.463501 895.009583,172.678024 
	C895.009583,168.753693 895.009583,165.735321 895.009583,162.447174 
	C902.655457,162.447174 909.754761,162.447174 917.011963,162.447174 
	C917.167908,162.741867 917.585327,163.162430 917.585022,163.582733 
	C917.570068,188.559525 918.150635,213.558273 917.279602,238.506256 
	C916.554138,259.287140 908.782715,267.434875 888.213013,270.522217 
	C876.017090,272.352722 863.610291,272.099365 851.533508,268.806122 
	C838.996338,265.387421 832.511230,257.190674 833.309387,245.396332 
M890.984497,185.742828 
	C885.360657,177.796646 877.599243,174.634506 868.381470,177.117584 
	C860.049927,179.361908 855.580750,185.368515 854.794495,193.746185 
	C854.349426,198.488205 854.436646,203.423065 855.236877,208.108353 
	C856.757080,217.008469 863.539551,222.696289 872.082092,223.100906 
	C881.890442,223.565506 890.129639,218.435974 892.656006,209.817810 
	C894.965942,201.937912 894.897949,194.045227 890.984497,185.742828 
z"/>
<path fill="#FCFCFC" opacity="1.000000" stroke="none" 
	d="
M983.477417,229.831894 
	C971.340759,241.036316 957.568542,242.707779 943.288269,236.815643 
	C929.156311,230.984650 922.697327,219.140930 921.780762,204.128815 
	C920.497131,183.104630 928.851990,168.205215 945.798889,162.754501 
	C960.834961,157.918396 974.713867,160.152313 986.887634,172.468201 
	C986.887634,168.740753 986.887634,165.729568 986.887634,162.445862 
	C994.533569,162.445862 1001.634033,162.445862 1009.002930,162.445862 
	C1009.149963,163.084198 1009.481812,163.851196 1009.480652,164.617676 
	C1009.443115,188.764709 1009.747192,212.920212 1009.196777,237.056137 
	C1008.703918,258.673859 1001.199646,267.189941 979.957581,270.454834 
	C967.584656,272.356506 955.018188,272.046234 942.814697,268.554779 
	C930.573242,265.052521 924.170959,256.602600 925.080811,244.897354 
	C933.425476,245.784653 941.773071,246.617844 950.097778,247.637756 
	C950.974243,247.745132 951.692627,248.981659 952.524841,249.643402 
	C954.752686,251.415085 956.902832,254.477737 959.263184,254.656189 
	C965.305481,255.113037 971.550476,254.836197 977.496826,253.707123 
	C980.065002,253.219467 983.590881,250.209381 984.077087,247.816071 
	C985.280945,241.889297 984.982910,235.657471 985.288391,229.548218 
	C984.787048,229.551804 984.285645,229.555389 983.477417,229.831894 
M953.506897,219.075363 
	C966.355835,228.003036 982.653320,221.753647 985.159241,206.369934 
	C986.083618,200.695221 985.371643,194.419632 983.958557,188.780869 
	C982.087280,181.313858 976.126831,177.570724 968.587158,176.599030 
	C961.117981,175.636429 954.756470,177.773590 950.133057,183.931351 
	C943.922852,192.202454 944.654785,212.709473 953.506897,219.075363 
z"/>
<path fill="#FCFCFC" opacity="1.000000" stroke="none" 
	d="
M824.869385,239.962433 
	C818.909851,239.867325 812.079163,241.730942 808.318848,239.139404 
	C804.369263,236.417358 803.242126,229.477097 801.093628,224.292328 
	C797.549194,215.738815 797.620972,215.709061 788.520935,215.709076 
	C777.361389,215.709091 766.200745,215.796371 755.043213,215.646622 
	C752.318542,215.610062 750.911438,216.323120 749.934937,219.021362 
	C747.398499,226.029800 744.489014,232.903244 741.723877,239.841949 
	C733.483337,239.841949 725.504517,239.841949 716.841492,239.841949 
	C718.331177,236.238449 719.675537,232.929825 721.062927,229.639313 
	C734.040161,198.860352 747.090881,168.111969 759.916687,137.270081 
	C761.382690,133.744751 763.184448,132.374573 766.892578,132.846161 
	C769.351196,133.158844 771.956543,133.296860 774.367004,132.836395 
	C783.913818,131.012680 788.377197,135.056305 792.037109,144.054596 
	C804.556458,174.834366 818.182800,205.163879 831.381836,235.667374 
	C831.897766,236.859680 832.361816,238.074432 833.127258,239.962448 
	C830.173401,239.962448 827.760803,239.962448 824.869385,239.962433 
M760.961670,191.413284 
	C760.287415,193.334686 759.613098,195.256088 758.911499,197.255203 
	C769.400818,197.255203 779.292664,197.255203 789.844666,197.255203 
	C784.610901,184.251831 779.566467,171.718735 774.097351,158.130676 
	C769.455750,169.802109 765.308960,180.229248 760.961670,191.413284 
z"/>
<path fill="#FCFCFC" opacity="1.000000" stroke="none" 
	d="
M1133.919678,222.898743 
	C1127.399170,233.659637 1117.674805,239.330688 1105.978882,240.618149 
	C1097.328003,241.570435 1088.238647,241.679977 1079.722168,240.112946 
	C1056.252808,235.794525 1044.009277,216.875198 1048.357178,193.327835 
	C1051.650269,175.493790 1065.467773,162.893265 1084.104736,161.037430 
	C1094.131714,160.038986 1104.101807,160.470734 1113.584839,164.386856 
	C1130.216553,171.255219 1138.981934,187.118317 1136.914551,206.932678 
	C1116.072144,206.932678 1095.172363,206.932678 1074.296631,206.932678 
	C1073.932739,216.185776 1079.294556,223.114990 1088.239502,225.446304 
	C1098.565430,228.137482 1105.872681,224.928253 1110.783813,215.203201 
	C1118.810181,216.267273 1127.001953,217.353302 1135.834717,218.524292 
	C1135.177002,220.063690 1134.638550,221.324341 1133.919678,222.898743 
M1103.412720,178.929016 
	C1088.787109,172.141754 1074.041382,179.899384 1074.613647,194.218628 
	C1086.967773,194.218628 1099.325195,194.218628 1111.901978,194.218628 
	C1111.811523,187.639343 1109.378662,182.713745 1103.412720,178.929016 
z"/>
<path fill="#FCFCFC" opacity="1.000000" stroke="none" 
	d="
M870.693420,346.794373 
	C872.553894,344.251801 874.119385,341.939636 875.843140,339.393768 
	C883.371277,340.499603 891.037537,341.625763 899.006348,342.796356 
	C892.656677,357.913116 880.872009,364.349304 866.004761,365.565918 
	C859.457458,366.101715 852.621399,365.689880 846.174622,364.408813 
	C823.485046,359.900055 815.032471,341.475464 816.391052,321.884918 
	C818.263855,294.878448 840.215210,281.176178 866.657715,285.475464 
	C890.044495,289.277924 902.480774,306.775726 899.800232,331.150513 
	C880.432007,331.150513 861.015991,331.150513 841.002991,331.150513 
	C840.983337,338.138000 843.255676,343.560303 848.899841,347.061707 
	C855.952454,351.436859 863.241882,351.972382 870.693420,346.794373 
M855.509277,318.726044 
	C862.395569,318.726044 869.281860,318.726044 876.142944,318.726044 
	C876.231934,306.978729 868.796936,300.095703 857.428833,300.711090 
	C847.529663,301.246948 840.641418,308.932251 841.728516,318.726013 
	C845.953003,318.726013 850.234314,318.726013 855.509277,318.726044 
z"/>
<path fill="#FAFAFA" opacity="1.000000" stroke="none" 
	d="
M978.184204,353.787964 
	C980.731628,357.070404 983.071167,360.061462 986.193359,364.053040 
	C976.510376,364.053040 967.808899,364.178314 959.119507,363.909882 
	C957.900085,363.872253 956.528809,362.064087 955.588074,360.806061 
	C950.612671,354.152466 945.752625,347.412537 940.544006,340.280029 
	C935.250916,347.420685 930.377258,354.327728 925.085510,360.898041 
	C923.778564,362.520813 921.152100,363.832977 919.064087,363.938324 
	C911.789612,364.305237 904.485229,364.080170 896.004395,364.080170 
	C906.633545,350.396973 916.662476,337.486450 927.018982,324.154236 
	C917.342407,311.903137 907.629883,299.606476 897.265930,286.485138 
	C906.797119,286.485138 915.241394,286.365265 923.674744,286.614838 
	C924.933838,286.652100 926.417908,288.217468 927.326294,289.429413 
	C931.711365,295.279236 935.934937,301.250092 940.520569,307.599915 
	C945.247559,301.372528 949.576843,295.303040 954.353882,289.609283 
	C955.704041,288.000092 958.325439,286.719513 960.429749,286.614899 
	C967.713928,286.252838 975.027100,286.475311 983.568115,286.475311 
	C973.521667,299.122894 964.102478,310.980774 954.348145,323.260620 
	C962.266541,333.393494 970.121399,343.445038 978.184204,353.787964 
z"/>
<path fill="#5DCAF9" opacity="1.000000" stroke="none" 
	d="
M617.984192,140.057343 
	C627.348572,145.103256 636.713013,150.149170 645.918518,155.652924 
	C643.792419,156.923264 641.894165,158.053070 639.847046,158.497589 
	C624.791626,161.766891 609.691711,164.832687 594.648071,168.153854 
	C592.631531,168.599060 590.851501,170.116211 588.536377,171.154327 
	C586.483582,170.923401 584.863831,170.597336 583.227905,170.439163 
	C570.519592,169.210632 557.930237,169.306137 545.409485,173.945984 
	C539.370361,176.286377 533.696045,178.648056 527.635010,180.948792 
	C525.483765,180.763245 523.640686,180.245102 521.967773,180.579193 
	C512.579163,182.454102 503.258484,184.672760 493.862488,186.506943 
	C483.840149,188.463394 473.759766,190.122696 463.796997,191.568466 
	C469.248230,184.323853 474.607178,177.422485 480.462036,170.626907 
	C483.424683,170.611984 485.951874,170.793854 488.347046,170.315201 
	C496.305328,168.724823 504.202606,166.832336 512.147522,165.171417 
	C546.046814,158.084549 579.963318,151.078705 613.833191,143.854340 
	C615.414856,143.516998 616.609375,141.364502 617.984192,140.057343 
z"/>
<path fill="#63D5F9" opacity="1.000000" stroke="none" 
	d="
M617.699890,139.813812 
	C616.609375,141.364502 615.414856,143.516998 613.833191,143.854340 
	C579.963318,151.078705 546.046814,158.084549 512.147522,165.171417 
	C504.202606,166.832336 496.305328,168.724823 488.347046,170.315201 
	C485.951874,170.793854 483.424683,170.611984 480.631104,170.309174 
	C485.625641,165.117432 490.947052,160.349197 496.546143,155.454987 
	C508.195343,149.329529 519.566833,143.330063 530.938354,137.330612 
	C545.188354,133.212524 559.615906,130.378708 574.562988,130.976517 
	C586.177917,131.441040 597.637756,132.606461 608.583679,136.934387 
	C611.430054,138.059845 614.466431,138.704697 617.699890,139.813812 
z"/>
<path fill="#BF281B" opacity="1.000000" stroke="none" 
	d="
M363.847717,340.471771 
	C362.465088,340.039246 361.082428,339.606689 359.487854,338.716858 
	C360.478485,336.165466 361.681061,334.071350 363.125122,331.727234 
	C364.998779,328.334381 366.631012,325.191528 368.646271,322.031433 
	C375.459961,319.959106 381.966217,318.109283 388.295258,315.778351 
	C392.666473,314.168488 396.792816,311.893646 401.494446,309.888184 
	C419.693542,310.670441 436.815430,308.242126 453.198792,300.245239 
	C465.284973,295.566193 474.521698,287.300873 484.096313,278.936523 
	C486.603729,278.500336 488.746948,278.221161 490.763611,277.557495 
	C504.734650,272.959839 518.652832,268.198456 532.671326,263.752533 
	C534.161743,263.279846 536.190125,264.503571 537.929016,265.301819 
	C533.977295,272.542877 530.065430,279.422424 526.067749,285.954468 
	C523.270020,285.798889 520.373779,285.436493 517.874084,286.267151 
	C488.247894,296.112671 458.689514,306.162018 429.095276,316.104095 
	C409.118958,322.815033 389.091034,329.373657 369.156921,336.206757 
	C367.137207,336.899109 365.605743,339.015991 363.847717,340.471771 
z"/>
<path fill="#1E4AF4" opacity="1.000000" stroke="none" 
	d="
M533.793701,377.548004 
	C525.984009,374.254791 518.174255,370.961548 510.339447,367.066772 
	C510.986542,366.015717 511.603973,365.315277 512.339294,365.154663 
	C521.873291,363.072479 531.424622,361.069641 540.970459,359.041748 
	C574.464539,351.926453 607.941284,344.728180 641.461914,337.740387 
	C651.962402,335.551392 662.580688,333.927246 673.145020,332.044495 
	C667.633606,338.275848 662.122192,344.507202 655.857544,350.867310 
	C649.228333,351.892578 643.301514,352.541229 637.486450,353.734406 
	C623.042114,356.698059 608.652039,359.925903 594.233948,363.018494 
	C575.772888,366.978241 557.296448,370.866913 538.856079,374.920258 
	C537.062744,375.314453 535.476196,376.649628 533.793701,377.548004 
z"/>
<path fill="#2254F4" opacity="1.000000" stroke="none" 
	d="
M673.432739,331.879333 
	C662.580688,333.927246 651.962402,335.551392 641.461914,337.740387 
	C607.941284,344.728180 574.464539,351.926453 540.970459,359.041748 
	C531.424622,361.069641 521.873291,363.072479 512.339294,365.154663 
	C511.603973,365.315277 510.986542,366.015717 510.124298,366.799225 
	C504.437317,363.560974 498.940369,359.988739 493.438782,355.837219 
	C501.845642,353.167542 510.258026,351.080688 518.668396,348.985870 
	C528.227478,346.604950 537.784729,344.216858 547.732666,341.786499 
	C558.917114,345.341522 570.239319,346.015717 581.194336,344.587433 
	C599.376953,342.216705 615.859924,334.934479 630.027100,323.191345 
	C631.226379,323.939148 632.438110,324.816467 633.435486,324.617798 
	C641.183716,323.074524 648.859985,321.163757 656.618347,319.679047 
	C665.648254,317.950958 674.738831,316.539764 683.803040,314.991028 
	C680.442139,320.565399 677.081238,326.139801 673.432739,331.879333 
z"/>
<path fill="#4FA658" opacity="1.000000" stroke="none" 
	d="
M368.263245,322.048676 
	C366.631012,325.191528 364.998779,328.334381 362.733704,331.735962 
	C359.877991,332.596741 357.573029,332.991119 355.444580,333.832245 
	C326.494965,345.272522 297.542969,356.707886 268.665283,368.327759 
	C263.879944,370.253326 259.445862,373.051910 254.849472,375.447052 
	C247.280624,372.193878 239.711761,368.940735 232.317871,365.335388 
	C244.182236,360.540680 255.900024,356.169739 267.524414,351.563049 
	C268.941956,351.001251 269.857727,349.173370 271.473999,347.913086 
	C274.261200,347.990845 276.579498,348.122162 278.899658,348.179443 
	C300.134857,348.704010 317.083527,340.189117 330.487732,323.661377 
	C331.077118,323.239624 331.461151,322.938873 332.061768,322.935791 
	C334.001251,323.056854 335.839417,323.204376 337.424408,322.640411 
	C341.493561,321.192474 345.401367,319.293640 349.462677,317.820465 
	C356.925598,315.113403 364.452515,312.582642 371.962799,310.364624 
	C370.736328,314.516846 369.499786,318.282745 368.263245,322.048676 
z"/>
<path fill="#FAFAFA" opacity="1.000000" stroke="none" 
	d="
M1016.987854,221.998840 
	C1016.987854,201.899567 1016.987854,182.299927 1016.987854,162.428772 
	C1024.981323,162.428772 1032.565918,162.428772 1040.551514,162.428772 
	C1040.551514,188.078293 1040.551514,213.739807 1040.551514,239.684891 
	C1032.919922,239.684891 1025.336914,239.684891 1016.987854,239.684891 
	C1016.987854,233.994003 1016.987854,228.246231 1016.987854,221.998840 
z"/>
<path fill="#499E5A" opacity="1.000000" stroke="none" 
	d="
M255.160736,375.632874 
	C259.445862,373.051910 263.879944,370.253326 268.665283,368.327759 
	C297.542969,356.707886 326.494965,345.272522 355.444580,333.832245 
	C357.573029,332.991119 359.877991,332.596741 362.492279,331.985962 
	C361.681061,334.071350 360.478485,336.165466 359.158936,338.562195 
	C344.573517,358.480133 325.838776,371.830383 301.865570,377.132233 
	C286.353333,380.562866 270.824829,380.199646 255.160736,375.632874 
z"/>
<path fill="#6A130B" opacity="1.000000" stroke="none" 
	d="
M530.706665,137.072021 
	C519.566833,143.330063 508.195343,149.329529 496.402191,155.157562 
	C490.654205,148.451935 485.704254,141.556290 479.884186,135.496292 
	C475.109589,130.524841 469.300110,126.547333 463.949341,122.129234 
	C465.150146,120.974442 466.153229,119.258484 467.583374,118.754623 
	C478.029602,115.074272 488.564636,111.646324 499.063171,108.113625 
	C500.623779,107.588478 502.140045,106.931587 503.916321,106.028732 
	C510.826355,112.929291 517.618958,120.029320 524.105469,127.398727 
	C526.588745,130.220001 528.372437,133.657013 530.706665,137.072021 
z"/>
<path fill="#183FF2" opacity="1.000000" stroke="none" 
	d="
M534.105225,377.719513 
	C535.476196,376.649628 537.062744,375.314453 538.856079,374.920258 
	C557.296448,370.866913 575.772888,366.978241 594.233948,363.018494 
	C608.652039,359.925903 623.042114,356.698059 637.486450,353.734406 
	C643.301514,352.541229 649.228333,351.892578 655.549194,350.996368 
	C640.734680,365.577332 622.461914,374.675171 602.214417,379.806152 
	C579.501770,385.561829 556.837097,384.865723 534.105225,377.719513 
z"/>
<path fill="#C92A1D" opacity="1.000000" stroke="none" 
	d="
M364.139221,340.658539 
	C365.605743,339.015991 367.137207,336.899109 369.156921,336.206757 
	C389.091034,329.373657 409.118958,322.815033 429.095276,316.104095 
	C458.689514,306.162018 488.247894,296.112671 517.874084,286.267151 
	C520.373779,285.436493 523.270020,285.798889 525.984497,286.273804 
	C522.644653,291.233032 519.302246,295.525421 515.768433,299.532837 
	C513.753052,299.202576 511.760284,298.646881 510.130066,299.186462 
	C467.892334,313.168701 425.685211,327.243835 383.511505,341.417938 
	C381.818329,341.987000 380.503052,343.680359 379.011688,344.849884 
	C374.151367,343.515015 369.291077,342.180176 364.139221,340.658539 
z"/>
<path fill="#641009" opacity="1.000000" stroke="none" 
	d="
M277.667664,163.235352 
	C287.357056,159.946487 296.772736,156.820114 306.257233,153.918686 
	C313.199493,151.794952 320.232117,149.966766 327.489990,148.315735 
	C324.461945,154.103806 320.415619,159.279495 318.054871,165.134796 
	C314.682678,173.498764 312.544464,182.360229 309.504028,190.945465 
	C306.558716,190.928650 303.820831,190.412598 301.447540,191.119934 
	C291.120361,194.197769 280.899384,197.631744 270.572662,200.487518 
	C270.644623,197.279556 270.783722,194.520432 270.922791,191.761292 
	C273.089661,182.338943 275.256561,172.916611 277.667664,163.235352 
z"/>
<path fill="#D72E20" opacity="1.000000" stroke="none" 
	d="
M471.660370,334.434540 
	C447.349030,346.143402 421.704651,350.286224 394.477478,347.532166 
	C395.638885,345.926392 397.073364,344.247498 398.871094,343.635223 
	C431.790222,332.424164 464.739624,321.301178 497.727325,310.293488 
	C500.951996,309.217438 504.469299,309.018250 507.641724,308.685486 
	C505.987671,310.270233 504.542664,311.581482 502.788513,313.065918 
	C501.017059,314.463287 499.651184,315.831116 498.076508,316.887848 
	C489.299072,322.778412 480.471069,328.593567 471.660370,334.434540 
z"/>
<path fill="#56BBF7" opacity="1.000000" stroke="none" 
	d="
M588.961975,171.136993 
	C590.851501,170.116211 592.631531,168.599060 594.648071,168.153854 
	C609.691711,164.832687 624.791626,161.766891 639.847046,158.497589 
	C641.894165,158.053070 643.792419,156.923264 646.122070,155.936584 
	C653.512085,162.188736 660.539734,168.615051 667.262939,175.438629 
	C657.263123,177.961395 647.528625,179.926926 637.888977,182.280991 
	C633.177490,183.431595 628.642700,185.305511 623.706116,186.753815 
	C613.049622,178.955338 601.285706,174.425308 588.961975,171.136993 
z"/>
<path fill="#4FACF7" opacity="1.000000" stroke="none" 
	d="
M624.027893,186.852051 
	C628.642700,185.305511 633.177490,183.431595 637.888977,182.280991 
	C647.528625,179.926926 657.263123,177.961395 667.412537,175.766327 
	C672.257812,181.817230 676.649048,187.937683 680.867859,194.704895 
	C678.254883,196.238205 675.873840,197.378922 673.363464,197.966873 
	C662.984680,200.397583 652.566772,202.660934 641.901428,204.768921 
	C635.769043,198.652069 629.898499,192.752060 624.027893,186.852051 
z"/>
<path fill="#D02C1E" opacity="1.000000" stroke="none" 
	d="
M507.850769,308.412048 
	C504.469299,309.018250 500.951996,309.217438 497.727325,310.293488 
	C464.739624,321.301178 431.790222,332.424164 398.871094,343.635223 
	C397.073364,344.247498 395.638885,345.926392 394.022156,347.470886 
	C389.261414,346.929108 384.513763,346.025238 379.388916,344.985657 
	C380.503052,343.680359 381.818329,341.987000 383.511505,341.417938 
	C425.685211,327.243835 467.892334,313.168701 510.130066,299.186462 
	C511.760284,298.646881 513.753052,299.202576 515.631714,299.846191 
	C513.074585,303.100311 510.462677,305.756165 507.850769,308.412048 
z"/>
<path fill="#479EF6" opacity="1.000000" stroke="none" 
	d="
M642.163208,204.985779 
	C652.566772,202.660934 662.984680,200.397583 673.363464,197.966873 
	C675.873840,197.378922 678.254883,196.238205 680.919434,195.045609 
	C684.562317,202.198090 687.981140,209.656631 691.044067,217.532089 
	C685.370850,219.050583 680.032715,220.062012 674.741150,221.276031 
	C667.759766,222.877731 660.814819,224.638367 653.602844,226.068344 
	C649.622009,218.865952 645.892639,211.925873 642.163208,204.985779 
z"/>
<path fill="#285EF5" opacity="1.000000" stroke="none" 
	d="
M684.019043,314.706787 
	C674.738831,316.539764 665.648254,317.950958 656.618347,319.679047 
	C648.859985,321.163757 641.183716,323.074524 633.435486,324.617798 
	C632.438110,324.816467 631.226379,323.939148 630.163086,322.893250 
	C635.680298,315.775604 641.148438,309.324982 647.072266,302.906433 
	C652.095215,302.214935 656.678406,301.579041 661.226379,300.750122 
	C671.471436,298.882812 681.699158,296.919983 691.933838,294.996033 
	C689.367554,301.471527 686.801270,307.947052 684.019043,314.706787 
z"/>
<path fill="#97EC56" opacity="1.000000" stroke="none" 
	d="
M191.387268,256.897522 
	C193.687683,251.328140 195.988083,245.758743 198.813278,240.258789 
	C201.386505,240.114609 203.607773,240.341751 205.455917,239.617233 
	C219.496338,234.112823 233.418503,228.305878 247.472458,222.837234 
	C254.843231,219.969162 262.405182,217.592392 269.975403,215.404297 
	C270.309692,218.783203 270.549408,221.751526 270.410522,224.790985 
	C257.300415,227.911331 246.000717,233.748611 235.866272,241.993332 
	C230.845108,243.091553 225.972198,244.272400 221.267120,245.929733 
	C211.260910,249.454376 201.341980,253.226715 191.387268,256.897522 
z"/>
<path fill="#285EF5" opacity="1.000000" stroke="none" 
	d="
M547.342773,341.831879 
	C537.784729,344.216858 528.227478,346.604950 518.668396,348.985870 
	C510.258026,351.080688 501.845642,353.167542 493.248108,355.558624 
	C488.154572,351.389771 483.247101,346.920197 478.458252,341.884949 
	C479.808441,340.863068 481.006134,340.250397 482.276886,339.975250 
	C493.262726,337.596619 504.284576,335.378326 515.238892,332.864990 
	C517.642029,332.313629 519.819031,330.776642 522.441345,329.797119 
	C530.969299,333.877716 539.156006,337.854797 547.342773,341.831879 
z"/>
<path fill="#408FF6" opacity="1.000000" stroke="none" 
	d="
M653.854248,226.330658 
	C660.814819,224.638367 667.759766,222.877731 674.741150,221.276031 
	C680.032715,220.062012 685.370850,219.050583 691.131165,217.919281 
	C693.240356,224.661865 694.906677,231.434189 696.134521,238.596634 
	C693.728455,239.181015 691.726440,239.205963 689.799011,239.597824 
	C679.439880,241.703873 669.099243,243.901169 658.561035,245.735397 
	C656.864685,239.046097 655.359436,232.688385 653.854248,226.330658 
z"/>
<path fill="#2E6AF4" opacity="1.000000" stroke="none" 
	d="
M692.134766,294.679474 
	C681.699158,296.919983 671.471436,298.882812 661.226379,300.750122 
	C656.678406,301.579041 652.095215,302.214935 647.173096,302.555786 
	C649.808350,295.646912 652.798462,289.120728 656.014160,282.885010 
	C660.089600,282.640808 663.964783,282.244415 667.784302,281.544189 
	C677.315491,279.796692 686.821350,277.911133 696.337402,276.080994 
	C695.003418,282.174957 693.669495,288.268951 692.134766,294.679474 
z"/>
<path fill="#A2F456" opacity="1.000000" stroke="none" 
	d="
M270.487000,191.751663 
	C270.783722,194.520432 270.644623,197.279556 270.411194,200.759918 
	C270.192535,202.319580 270.068176,203.158005 269.560883,204.008118 
	C255.717163,209.214767 242.287964,214.493744 228.782715,219.570358 
	C221.668686,222.244537 214.421814,224.565277 207.234909,227.045593 
	C223.259323,206.533569 244.260925,194.877579 270.487000,191.751663 
z"/>
<path fill="#3A82F6" opacity="1.000000" stroke="none" 
	d="
M658.752258,246.066956 
	C669.099243,243.901169 679.439880,241.703873 689.799011,239.597824 
	C691.726440,239.205963 693.728455,239.181015 696.103394,238.981262 
	C696.989014,245.010574 697.467224,251.045395 697.451965,257.536377 
	C695.654358,258.155701 694.336670,258.247894 693.048157,258.492981 
	C681.736084,260.644684 670.429138,262.823669 659.067627,264.529419 
	C658.927063,258.065155 658.839661,252.066055 658.752258,246.066956 
z"/>
<path fill="#9EF257" opacity="1.000000" stroke="none" 
	d="
M206.943512,227.227448 
	C214.421814,224.565277 221.668686,222.244537 228.782715,219.570358 
	C242.287964,214.493744 255.717163,209.214767 269.623047,204.463043 
	C270.005676,208.268753 269.943237,211.631241 269.880798,214.993744 
	C262.405182,217.592392 254.843231,219.969162 247.472458,222.837234 
	C233.418503,228.305878 219.496338,234.112823 205.455917,239.617233 
	C203.607773,240.341751 201.386505,240.114609 199.091461,240.038223 
	C201.447266,235.635254 204.049683,231.522293 206.943512,227.227448 
z"/>
<path fill="#60BA55" opacity="1.000000" stroke="none" 
	d="
M215.934662,353.037659 
	C210.950363,346.939240 205.966064,340.840851 201.319031,334.381348 
	C210.285873,330.866272 218.936020,327.765808 227.511246,324.470398 
	C228.313171,324.162201 228.641632,322.621918 229.466339,321.855896 
	C235.156006,327.439270 240.569244,332.820374 245.925537,338.537720 
	C242.994827,340.606018 240.255844,342.635742 237.220169,344.010223 
	C230.201370,347.188080 223.038879,350.048523 215.934662,353.037659 
z"/>
<path fill="#57B056" opacity="1.000000" stroke="none" 
	d="
M216.108734,353.323853 
	C223.038879,350.048523 230.201370,347.188080 237.220169,344.010223 
	C240.255844,342.635742 242.994827,340.606018 246.270737,338.565826 
	C254.321518,342.645599 262.042114,346.852509 271.006012,347.932251 
	C269.857727,349.173370 268.941956,351.001251 267.524414,351.563049 
	C255.900024,356.169739 244.182236,360.540680 232.097748,365.063782 
	C226.562729,361.299591 221.422791,357.454803 216.108734,353.323853 
z"/>
<path fill="#3476F4" opacity="1.000000" stroke="none" 
	d="
M659.120728,264.994598 
	C670.429138,262.823669 681.736084,260.644684 693.048157,258.492981 
	C694.336670,258.247894 695.654358,258.155701 697.368469,257.990356 
	C697.419861,263.790771 697.061218,269.593353 696.520020,275.738464 
	C686.821350,277.911133 677.315491,279.796692 667.784302,281.544189 
	C663.964783,282.244415 660.089600,282.640808 656.030457,282.498474 
	C656.921021,276.212524 658.020874,270.603546 659.120728,264.994598 
z"/>
<path fill="#8EE555" opacity="1.000000" stroke="none" 
	d="
M191.219482,257.202881 
	C201.341980,253.226715 211.260910,249.454376 221.267120,245.929733 
	C225.972198,244.272400 230.845108,243.091553 235.734497,242.289459 
	C231.028168,249.976562 226.229324,257.069000 221.005768,264.122070 
	C213.033325,266.731384 205.506699,269.442596 197.928223,272.000183 
	C194.554184,273.138824 191.075668,273.967896 187.644577,274.937469 
	C188.780289,269.127716 189.916000,263.317963 191.219482,257.202881 
z"/>
<path fill="#6FC855" opacity="1.000000" stroke="none" 
	d="
M229.189911,321.653656 
	C228.641632,322.621918 228.313171,324.162201 227.511246,324.470398 
	C218.936020,327.765808 210.285873,330.866272 201.243805,334.039612 
	C197.888733,327.956512 194.946152,321.854004 192.376434,315.323914 
	C195.871277,313.755646 198.981308,312.580872 202.117783,311.481537 
	C208.352524,309.296204 214.601791,307.152405 221.038177,305.299805 
	C223.884155,310.956604 226.537018,316.305145 229.189911,321.653656 
z"/>
<path fill="#2E6AF4" opacity="1.000000" stroke="none" 
	d="
M522.100159,329.693542 
	C519.819031,330.776642 517.642029,332.313629 515.238892,332.864990 
	C504.284576,335.378326 493.262726,337.596619 482.276886,339.975250 
	C481.006134,340.250397 479.808441,340.863068 478.331482,341.572083 
	C476.084808,339.576508 474.083496,337.328033 471.871277,334.757080 
	C480.471069,328.593567 489.299072,322.778412 498.076508,316.887848 
	C499.651184,315.831116 501.017059,314.463287 503.116852,313.144470 
	C509.869629,318.597748 515.984863,324.145630 522.100159,329.693542 
z"/>
<path fill="#83DB55" opacity="1.000000" stroke="none" 
	d="
M187.464294,275.307312 
	C191.075668,273.967896 194.554184,273.138824 197.928223,272.000183 
	C205.506699,269.442596 213.033325,266.731384 220.923798,264.513062 
	C220.076721,271.957916 218.886902,278.972412 217.302994,285.987671 
	C214.230942,286.677551 211.510849,287.235748 208.883118,288.081024 
	C201.743927,290.377625 194.643845,292.795776 187.528275,295.165771 
	C187.446854,288.669556 187.365433,282.173370 187.464294,275.307312 
z"/>
<path fill="#7AD354" opacity="1.000000" stroke="none" 
	d="
M187.517151,295.600159 
	C194.643845,292.795776 201.743927,290.377625 208.883118,288.081024 
	C211.510849,287.235748 214.230942,286.677551 217.408386,286.418823 
	C218.886917,292.896637 219.865997,298.944031 220.845062,304.991455 
	C214.601791,307.152405 208.352524,309.296204 202.117783,311.481537 
	C198.981308,312.580872 195.871277,313.755646 192.377411,314.946808 
	C190.505707,308.676392 189.005875,302.355469 187.517151,295.600159 
z"/>
<path fill="#FAFAFA" opacity="1.000000" stroke="none" 
	d="
M1040.948975,147.785126 
	C1040.105347,149.481812 1039.305176,151.723618 1038.411743,151.761444 
	C1031.477661,152.055054 1024.525635,151.923492 1017.286133,151.923492 
	C1017.286133,145.495148 1017.286133,139.453934 1017.286133,133.155090 
	C1025.002808,133.155090 1032.588989,133.155090 1040.949097,133.155090 
	C1040.949097,137.818359 1040.949097,142.563843 1040.948975,147.785126 
z"/>
<path fill="#111819" opacity="1.000000" stroke="none" 
	d="
M309.879211,191.009232 
	C312.544464,182.360229 314.682678,173.498764 318.054871,165.134796 
	C320.415619,159.279495 324.461945,154.103806 327.909119,148.319427 
	C338.732727,135.566940 350.413300,124.260475 365.514252,117.317215 
	C397.707367,102.515167 429.443970,103.488815 460.549835,120.711441 
	C461.418518,121.192421 462.350037,121.559929 463.600800,122.054794 
	C469.300110,126.547333 475.109589,130.524841 479.884186,135.496292 
	C485.704254,141.556290 490.654205,148.451935 496.124512,155.283569 
	C490.947052,160.349197 485.625641,165.117432 480.135193,170.203400 
	C474.607178,177.422485 469.248230,184.323853 463.529663,191.765106 
	C460.024170,199.030396 456.878296,205.755768 453.471161,212.755829 
	C450.955475,222.343704 448.701050,231.656891 446.290100,241.395218 
	C445.957703,249.199615 445.781830,256.578888 445.495087,264.364380 
	C446.300171,270.844116 447.216156,276.917633 448.094482,283.390533 
	C449.666718,289.275665 451.276611,294.761383 452.886505,300.247131 
	C436.815430,308.242126 419.693542,310.670441 401.168823,309.671234 
	C391.579803,307.564972 382.782318,305.647858 373.985229,303.324493 
	C374.426544,297.285187 374.867401,291.652069 375.461975,285.619202 
	C374.648071,277.806946 373.680511,270.394501 372.716370,262.611786 
	C370.212158,255.806259 367.704498,249.370987 365.116882,242.585541 
	C361.077606,236.388062 357.118256,230.540756 353.030731,224.391357 
	C348.856689,220.253098 344.810822,216.416916 340.580139,212.276871 
	C331.285614,204.394440 321.031830,198.914154 309.791321,194.849518 
	C309.832581,193.284851 309.855896,192.147034 309.879211,191.009232 
z"/>
<path fill="#141B1C" opacity="1.000000" stroke="none" 
	d="
M891.123657,186.093231 
	C894.897949,194.045227 894.965942,201.937912 892.656006,209.817810 
	C890.129639,218.435974 881.890442,223.565506 872.082092,223.100906 
	C863.539551,222.696289 856.757080,217.008469 855.236877,208.108353 
	C854.436646,203.423065 854.349426,198.488205 854.794495,193.746185 
	C855.580750,185.368515 860.049927,179.361908 868.381470,177.117584 
	C877.599243,174.634506 885.360657,177.796646 891.123657,186.093231 
z"/>
<path fill="#141B1C" opacity="1.000000" stroke="none" 
	d="
M953.226562,218.841492 
	C944.654785,212.709473 943.922852,192.202454 950.133057,183.931351 
	C954.756470,177.773590 961.117981,175.636429 968.587158,176.599030 
	C976.126831,177.570724 982.087280,181.313858 983.958557,188.780869 
	C985.371643,194.419632 986.083618,200.695221 985.159241,206.369934 
	C982.653320,221.753647 966.355835,228.003036 953.226562,218.841492 
z"/>
<path fill="#1C2324" opacity="1.000000" stroke="none" 
	d="
M761.061890,191.034836 
	C765.308960,180.229248 769.455750,169.802109 774.097351,158.130676 
	C779.566467,171.718735 784.610901,184.251831 789.844666,197.255203 
	C779.292664,197.255203 769.400818,197.255203 758.911499,197.255203 
	C759.613098,195.256088 760.287415,193.334686 761.061890,191.034836 
z"/>
<path fill="#1C2324" opacity="1.000000" stroke="none" 
	d="
M1103.738770,179.109283 
	C1109.378662,182.713745 1111.811523,187.639343 1111.901978,194.218628 
	C1099.325195,194.218628 1086.967773,194.218628 1074.613647,194.218628 
	C1074.041382,179.899384 1088.787109,172.141754 1103.738770,179.109283 
z"/>
<path fill="#1C2324" opacity="1.000000" stroke="none" 
	d="
M855.012451,318.726013 
	C850.234314,318.726013 845.953003,318.726013 841.728516,318.726013 
	C840.641418,308.932251 847.529663,301.246948 857.428833,300.711090 
	C868.796936,300.095703 876.231934,306.978729 876.142944,318.726044 
	C869.281860,318.726044 862.395569,318.726044 855.012451,318.726013 
z"/>
<path fill="#11181A" opacity="1.000000" stroke="none" 
	d="
M522.441345,329.797089 
	C515.984863,324.145630 509.869629,318.597748 503.426025,312.971283 
	C504.542664,311.581482 505.987671,310.270233 507.641724,308.685486 
	C510.462677,305.756165 513.074585,303.100311 515.823242,300.131134 
	C519.302246,295.525421 522.644653,291.233032 526.070312,286.621307 
	C530.065430,279.422424 533.977295,272.542877 538.177307,265.056885 
	C541.366516,254.642609 544.267517,244.834732 547.394165,234.717773 
	C548.358521,226.946503 549.097229,219.484299 549.915039,211.557816 
	C549.626160,204.734100 549.258301,198.374664 548.928467,191.590378 
	C547.902527,185.432770 546.838440,179.700012 545.774353,173.967270 
	C557.930237,169.306137 570.519592,169.210632 583.227905,170.439163 
	C584.863831,170.597336 586.483582,170.923401 588.536377,171.154327 
	C601.285706,174.425308 613.049622,178.955338 623.706116,186.753815 
	C629.898499,192.752060 635.769043,198.652069 641.901428,204.768936 
	C645.892639,211.925873 649.622009,218.865952 653.602844,226.068344 
	C655.359436,232.688385 656.864685,239.046097 658.561035,245.735382 
	C658.839661,252.066055 658.927063,258.065155 659.067627,264.529419 
	C658.020874,270.603546 656.921021,276.212524 655.804871,282.208008 
	C652.798462,289.120728 649.808350,295.646912 646.717407,302.523743 
	C641.148438,309.324982 635.680298,315.775604 630.076294,322.524292 
	C615.859924,334.934479 599.376953,342.216705 581.194336,344.587433 
	C570.239319,346.015717 558.917114,345.341522 547.732666,341.786499 
	C539.156006,337.854797 530.969299,333.877716 522.441345,329.797089 
z"/>
<path fill="#58BFF8" opacity="1.000000" stroke="none" 
	d="
M453.732422,212.481140 
	C456.878296,205.755768 460.024170,199.030396 463.437378,192.108368 
	C473.759766,190.122696 483.840149,188.463394 493.862488,186.506943 
	C503.258484,184.672760 512.579163,182.454102 521.967773,180.579193 
	C523.640686,180.245102 525.483765,180.763245 527.435303,181.223938 
	C521.991699,185.924179 516.360962,190.288330 510.441345,194.819168 
	C506.833038,198.679565 503.513702,202.373291 499.744080,206.049225 
	C486.863831,208.402039 474.454956,210.895020 461.986908,213.044876 
	C459.346344,213.500168 456.489563,212.701859 453.732422,212.481140 
z"/>
<path fill="#84180F" opacity="1.000000" stroke="none" 
	d="
M510.730255,194.652481 
	C516.360962,190.288330 521.991699,185.924179 527.822083,181.284882 
	C533.696045,178.648056 539.370361,176.286377 545.409485,173.945984 
	C546.838440,179.700012 547.902527,185.432770 548.535400,191.587250 
	C545.072937,192.837814 542.019226,193.593399 539.014404,194.509171 
	C529.813416,197.313385 520.631104,200.179123 511.318359,202.572388 
	C511.040222,199.633377 510.885223,197.142929 510.730255,194.652481 
z"/>
<path fill="#AD2317" opacity="1.000000" stroke="none" 
	d="
M547.168518,235.026855 
	C544.267517,244.834732 541.366516,254.642609 538.217224,264.695404 
	C536.190125,264.503571 534.161743,263.279846 532.671326,263.752533 
	C518.652832,268.198456 504.734650,272.959839 490.763611,277.557495 
	C488.746948,278.221161 486.603729,278.500336 484.215942,278.661560 
	C484.457092,277.564484 485.001343,276.763367 485.711975,275.805389 
	C485.878326,275.648529 486.093903,275.244354 486.371643,275.039185 
	C492.388214,265.874847 498.127106,256.915649 504.264374,247.959137 
	C516.429260,244.146271 528.182861,240.289993 539.973328,236.550064 
	C542.298828,235.812408 544.766418,235.522995 547.168518,235.026855 
z"/>
<path fill="#3D86F2" opacity="1.000000" stroke="none" 
	d="
M485.545593,275.962219 
	C485.001343,276.763367 484.457092,277.564484 483.793213,278.640625 
	C474.521698,287.300873 465.284973,295.566193 453.198792,300.245239 
	C451.276611,294.761383 449.666718,289.275665 448.501343,283.390137 
	C449.927582,282.841888 450.916290,282.729187 451.889984,282.539520 
	C463.109833,280.353821 474.327393,278.156464 485.545593,275.962219 
z"/>
<path fill="#AD2317" opacity="1.000000" stroke="none" 
	d="
M373.984833,303.730713 
	C382.782318,305.647858 391.579803,307.564972 400.702942,309.699036 
	C396.792816,311.893646 392.666473,314.168488 388.295258,315.778351 
	C381.966217,318.109283 375.459961,319.959106 368.646301,322.031433 
	C369.499786,318.282745 370.736328,314.516846 372.136353,310.048676 
	C372.861481,307.474518 373.423157,305.602600 373.984833,303.730713 
z"/>
<path fill="#121919" opacity="1.000000" stroke="none" 
	d="
M221.038177,305.299774 
	C219.865997,298.944031 218.886917,292.896637 217.802460,286.418091 
	C218.886902,278.972412 220.076721,271.957916 221.348511,264.552399 
	C226.229324,257.069000 231.028168,249.976562 235.958801,242.588013 
	C246.000717,233.748611 257.300415,227.911331 270.466858,225.206207 
	C271.252197,227.372406 271.602570,229.194458 271.953461,231.430054 
	C274.273651,240.270264 276.593323,248.696930 278.948425,257.491974 
	C282.273712,264.641388 285.563599,271.422424 288.921143,278.541534 
	C292.980103,284.619446 296.971375,290.359314 301.107971,296.396240 
	C305.154694,300.824677 309.056152,304.955994 313.113831,309.379639 
	C318.940826,314.375397 324.611603,319.078888 330.282349,323.782379 
	C317.083527,340.189117 300.134857,348.704010 278.899658,348.179443 
	C276.579498,348.122162 274.261200,347.990845 271.473999,347.913086 
	C262.042114,346.852509 254.321518,342.645599 246.327667,338.229614 
	C240.569244,332.820374 235.156006,327.439270 229.466339,321.855896 
	C226.537018,316.305145 223.884155,310.956604 221.038177,305.299774 
z"/>
<path fill="#57B056" opacity="1.000000" stroke="none" 
	d="
M373.985229,303.324463 
	C373.423157,305.602600 372.861481,307.474518 372.126282,309.662384 
	C364.452515,312.582642 356.925598,315.113403 349.462677,317.820465 
	C345.401367,319.293640 341.493561,321.192474 337.424408,322.640411 
	C335.839417,323.204376 334.001251,323.056854 332.167603,322.625610 
	C335.372375,315.025970 338.687958,308.034180 342.239563,300.779114 
	C342.961945,298.957245 343.448334,297.398651 344.178650,296.119537 
	C346.757202,296.022156 349.221252,296.000305 351.403381,295.204895 
	C359.422302,292.281830 367.347687,289.102112 375.308289,286.018982 
	C374.867401,291.652069 374.426544,297.285187 373.985229,303.324463 
z"/>
<path fill="#AD2317" opacity="1.000000" stroke="none" 
	d="
M342.003540,301.042389 
	C338.687958,308.034180 335.372375,315.025970 331.950958,322.327942 
	C331.461151,322.938873 331.077118,323.239624 330.487732,323.661377 
	C324.611603,319.078888 318.940826,314.375397 313.194153,309.024231 
	C313.274841,308.090454 313.367584,307.626190 313.597290,307.543915 
	C322.264374,304.437897 330.928528,301.320129 339.667297,298.428284 
	C340.109283,298.282013 341.209717,300.125397 342.003540,301.042389 
z"/>
<path fill="#6E140B" opacity="1.000000" stroke="none" 
	d="
M271.952911,231.016510 
	C271.602570,229.194458 271.252197,227.372406 270.845490,225.135101 
	C270.549408,221.751526 270.309692,218.783203 269.975403,215.404297 
	C269.943237,211.631241 270.005676,208.268753 270.005981,204.451340 
	C270.068176,203.158005 270.192535,202.319580 270.478333,201.208740 
	C280.899384,197.631744 291.120361,194.197769 301.447540,191.119934 
	C303.820831,190.412598 306.558716,190.928650 309.504028,190.945465 
	C309.855896,192.147034 309.832581,193.284851 309.578735,195.158356 
	C309.169403,203.929764 308.990540,211.965469 308.409119,220.000610 
	C305.749512,220.469864 303.430420,220.745255 301.246185,221.442932 
	C291.460785,224.568436 281.713776,227.814163 271.952911,231.016510 
z"/>
<path fill="#51B1F7" opacity="1.000000" stroke="none" 
	d="
M453.471161,212.755829 
	C456.489563,212.701859 459.346344,213.500168 461.986908,213.044876 
	C474.454956,210.895020 486.863831,208.402039 499.664001,206.392365 
	C495.745270,215.518646 491.456360,224.283966 486.732178,233.035797 
	C473.013519,235.671585 459.730072,238.320831 446.446655,240.970078 
	C448.701050,231.656891 450.955475,222.343704 453.471161,212.755829 
z"/>
<path fill="#49A1F7" opacity="1.000000" stroke="none" 
	d="
M446.290100,241.395218 
	C459.730072,238.320831 473.013519,235.671585 486.729187,233.445038 
	C486.040039,241.574509 484.918610,249.281311 483.385376,256.990234 
	C478.767426,257.786835 474.563019,258.590851 470.354736,259.373688 
	C462.106293,260.908081 453.855652,262.430664 445.605957,263.958130 
	C445.781830,256.578888 445.957703,249.199615 446.290100,241.395218 
z"/>
<path fill="#4292F4" opacity="1.000000" stroke="none" 
	d="
M445.495056,264.364380 
	C453.855652,262.430664 462.106293,260.908081 470.354736,259.373688 
	C474.563019,258.590851 478.767426,257.786835 483.471680,257.435455 
	C484.677795,263.667114 485.385864,269.455750 486.093903,275.244354 
	C486.093903,275.244354 485.878326,275.648529 485.711945,275.805359 
	C474.327393,278.156464 463.109833,280.353821 451.889984,282.539520 
	C450.916290,282.729187 449.927582,282.841888 448.539001,282.990723 
	C447.216156,276.917633 446.300171,270.844116 445.495056,264.364380 
z"/>
<path fill="#60BA55" opacity="1.000000" stroke="none" 
	d="
M375.461975,285.619171 
	C367.347687,289.102112 359.422302,292.281830 351.403381,295.204895 
	C349.221252,296.000305 346.757202,296.022156 344.159149,295.706146 
	C344.130402,291.830780 344.365051,288.648254 344.643982,285.006104 
	C344.348969,280.736755 344.009644,276.927094 344.090820,273.087585 
	C346.578400,272.569977 348.726837,272.298187 350.698151,271.556000 
	C358.067810,268.781433 365.379486,265.852875 372.712921,262.982056 
	C373.680511,270.394501 374.648071,277.806946 375.461975,285.619171 
z"/>
<path fill="#6FC855" opacity="1.000000" stroke="none" 
	d="
M372.716370,262.611786 
	C365.379486,265.852875 358.067810,268.781433 350.698151,271.556000 
	C348.726837,272.298187 346.578400,272.569977 343.911163,272.771210 
	C340.935272,265.983765 338.559540,259.482880 336.574432,252.982239 
	C338.872314,252.528854 340.851776,252.268600 342.674103,251.587738 
	C350.207581,248.773041 357.693451,245.830994 365.196808,242.935730 
	C367.704498,249.370987 370.212158,255.806259 372.716370,262.611786 
z"/>
<path fill="#7AD354" opacity="1.000000" stroke="none" 
	d="
M365.116882,242.585541 
	C357.693451,245.830994 350.207581,248.773041 342.674103,251.587738 
	C340.851776,252.268600 338.872314,252.528854 336.346771,252.723145 
	C332.351379,247.929459 328.974274,243.395111 325.787140,238.504547 
	C330.307648,236.148895 334.685486,234.244705 338.956207,232.124725 
	C343.741028,229.749542 348.428864,227.179001 353.158905,224.693451 
	C357.118256,230.540756 361.077606,236.388062 365.116882,242.585541 
z"/>
<path fill="#83DB55" opacity="1.000000" stroke="none" 
	d="
M353.030731,224.391373 
	C348.428864,227.179001 343.741028,229.749542 338.956207,232.124725 
	C334.685486,234.244705 330.307648,236.148895 325.490112,238.307648 
	C320.338348,235.130341 315.673615,231.793716 310.822327,228.206009 
	C310.404327,226.971741 310.172852,225.988541 310.315002,224.958084 
	C320.714050,220.800781 330.739502,216.690750 340.764954,212.580719 
	C344.810822,216.416916 348.856689,220.253098 353.030731,224.391373 
z"/>
<path fill="#8EE555" opacity="1.000000" stroke="none" 
	d="
M340.580139,212.276855 
	C330.739502,216.690750 320.714050,220.800781 310.122070,224.648438 
	C309.307526,222.924423 309.059601,221.462784 308.811676,220.001160 
	C308.990540,211.965469 309.169403,203.929764 309.560852,195.585236 
	C321.031830,198.914154 331.285614,204.394440 340.580139,212.276855 
z"/>
<path fill="#9D1F14" opacity="1.000000" stroke="none" 
	d="
M547.394165,234.717773 
	C544.766418,235.522995 542.298828,235.812408 539.973328,236.550064 
	C528.182861,240.289993 516.429260,244.146271 504.301514,247.580505 
	C506.087982,239.474747 508.235718,231.750275 510.737427,223.946030 
	C519.418030,221.190826 527.725708,218.454254 536.078857,215.864380 
	C540.624634,214.454971 545.247681,213.294708 549.835938,212.022095 
	C549.097229,219.484299 548.358521,226.946503 547.394165,234.717773 
z"/>
<path fill="#901C12" opacity="1.000000" stroke="none" 
	d="
M549.914978,211.557816 
	C545.247681,213.294708 540.624634,214.454971 536.078857,215.864380 
	C527.725708,218.454254 519.418030,221.190826 510.696960,223.533295 
	C510.682159,216.473846 511.061829,209.747391 511.441467,203.020935 
	C520.631104,200.179123 529.813416,197.313385 539.014404,194.509171 
	C542.019226,193.593399 545.072937,192.837814 548.497314,192.012100 
	C549.258301,198.374664 549.626160,204.734100 549.914978,211.557816 
z"/>
<path fill="#13191B" opacity="1.000000" stroke="none" 
	d="
M511.318329,202.572372 
	C511.061829,209.747391 510.682159,216.473846 510.342957,223.613068 
	C508.235718,231.750275 506.087982,239.474747 503.903137,247.577850 
	C498.127106,256.915649 492.388214,265.874847 486.371643,275.039185 
	C485.385864,269.455750 484.677795,263.667114 483.883484,257.433289 
	C484.918610,249.281311 486.040039,241.574509 487.164459,233.458496 
	C491.456360,224.283966 495.745270,215.518646 500.114258,206.410172 
	C503.513702,202.373291 506.833038,198.679565 510.441345,194.819168 
	C510.885223,197.142929 511.040222,199.633377 511.318329,202.572372 
z"/>
<path fill="#78160D" opacity="1.000000" stroke="none" 
	d="
M308.409119,220.000610 
	C309.059601,221.462784 309.307526,222.924423 309.748413,224.695709 
	C310.172852,225.988541 310.404327,226.971741 310.801086,228.660751 
	C312.303467,234.579987 313.640533,239.793396 314.553711,245.004959 
	C307.161194,246.967911 300.109589,248.684662 293.252075,250.981064 
	C288.337799,252.626724 283.683350,255.048218 278.912994,257.123596 
	C276.593323,248.696930 274.273651,240.270264 271.953461,231.430054 
	C281.713776,227.814163 291.460785,224.568436 301.246185,221.442932 
	C303.430420,220.745255 305.749512,220.469864 308.409119,220.000610 
z"/>
<path fill="#84180F" opacity="1.000000" stroke="none" 
	d="
M278.948425,257.491974 
	C283.683350,255.048218 288.337799,252.626724 293.252075,250.981064 
	C300.109589,248.684662 307.161194,246.967911 314.723114,245.314163 
	C318.614105,252.057953 321.911774,258.490692 324.823151,264.984039 
	C317.957092,267.088409 311.395447,268.908569 305.022461,271.243713 
	C299.521301,273.259399 294.234833,275.860962 288.853455,278.203491 
	C285.563599,271.422424 282.273712,264.641388 278.948425,257.491974 
z"/>
<path fill="#901C12" opacity="1.000000" stroke="none" 
	d="
M288.921143,278.541534 
	C294.234833,275.860962 299.521301,273.259399 305.022461,271.243713 
	C311.395447,268.908569 317.957092,267.088409 325.055756,265.210571 
	C330.225250,270.871307 334.775848,276.366119 338.904266,281.897339 
	C326.703583,285.660370 314.909210,289.338928 303.176147,293.203522 
	C302.223755,293.517242 301.690613,295.104004 300.962646,296.099182 
	C296.971375,290.359314 292.980103,284.619446 288.921143,278.541534 
z"/>
<path fill="#9D1F14" opacity="1.000000" stroke="none" 
	d="
M301.107971,296.396240 
	C301.690613,295.104004 302.223755,293.517242 303.176147,293.203522 
	C314.909210,289.338928 326.703583,285.660370 339.145020,282.095093 
	C341.405182,283.326233 343.002411,284.395996 344.599670,285.465729 
	C344.365051,288.648254 344.130402,291.830780 343.915283,295.426697 
	C343.448334,297.398651 342.961945,298.957245 342.239563,300.779114 
	C341.209717,300.125397 340.109283,298.282013 339.667297,298.428284 
	C330.928528,301.320129 322.264374,304.437897 313.597290,307.543915 
	C313.367584,307.626190 313.274841,308.090454 313.037903,308.731964 
	C309.056152,304.955994 305.154694,300.824677 301.107971,296.396240 
z"/>
<path fill="#141B1C" opacity="1.000000" stroke="none" 
	d="
M344.643982,285.006104 
	C343.002411,284.395996 341.405182,283.326233 339.567200,282.058716 
	C334.775848,276.366119 330.225250,270.871307 325.442047,265.149933 
	C321.911774,258.490692 318.614105,252.057953 315.147034,245.316010 
	C313.640533,239.793396 312.303467,234.579987 310.987610,228.911835 
	C315.673615,231.793716 320.338348,235.130341 325.300171,238.663879 
	C328.974274,243.395111 332.351379,247.929459 335.956116,252.722870 
	C338.559540,259.482880 340.935272,265.983765 343.490692,272.801025 
	C344.009644,276.927094 344.348969,280.736755 344.643982,285.006104 
z"/>
</svg>